<?xml version="1.0" standalone="no"?>
<!DOCTYPE svg PUBLIC "-//W3C//DTD SVG 1.1//EN" "http://www.w3.org/Graphics/SVG/1.1/DTD/svg11.dtd" >
<svg>
<metadata>
Created by FontForge 20090622 at Tue Jun 26 05:27:49 2018
 By ffonts
Copyright (c) 2014 by Julieta Ulanovsky. All rights reserved, Design modifications 2015 by Jasper @ Cannot Into Space Fonts.
</metadata>
<defs>
<font id="TruenoRound" horiz-adv-x="350" >
  <font-face 
    font-family="Trueno"
    font-weight="400"
    font-stretch="normal"
    units-per-em="1000"
    panose-1="0 0 5 0 0 0 0 0 0 0"
    ascent="800"
    descent="-200"
    x-height="532"
    cap-height="700"
    bbox="-250.401 -251 1381 969"
    underline-thickness="50"
    underline-position="-150"
    stemh="62"
    stemv="115"
    unicode-range="U+000D-U+FB02"
  />
<missing-glyph horiz-adv-x="500" 
d="M35 0c-19 0 -35 16 -35 35v630c0 19 16 35 35 35h430c19 0 35 -16 35 -35v-630c0 -19 -16 -35 -35 -35h-430zM221 439c15 -23 43 -23 58 0l105 157c16 25 1 54 -29 54h-210c-30 0 -45 -29 -29 -54zM293 369c-7 -9 -7 -29 0 -38l93 -140c20 -29 64 -16 64 20v278
c0 36 -44 49 -64 20zM116 104c-16 -25 -1 -54 29 -54h210c30 0 45 29 29 54l-105 157c-15 23 -43 23 -58 0zM114 509c-20 29 -64 16 -64 -20v-278c0 -36 44 -49 64 -20l93 140c7 9 7 29 0 38z" />
    <glyph glyph-name=".notdef" horiz-adv-x="500" 
d="M35 0c-19 0 -35 16 -35 35v630c0 19 16 35 35 35h430c19 0 35 -16 35 -35v-630c0 -19 -16 -35 -35 -35h-430zM221 439c15 -23 43 -23 58 0l105 157c16 25 1 54 -29 54h-210c-30 0 -45 -29 -29 -54zM293 369c-7 -9 -7 -29 0 -38l93 -140c20 -29 64 -16 64 20v278
c0 36 -44 49 -64 20zM116 104c-16 -25 -1 -54 29 -54h210c30 0 45 29 29 54l-105 157c-15 23 -43 23 -58 0zM114 509c-20 29 -64 16 -64 -20v-278c0 -36 44 -49 64 -20l93 140c7 9 7 29 0 38z" />
    <glyph glyph-name="NULL" horiz-adv-x="0" 
 />
    <glyph glyph-name="NULL" horiz-adv-x="0" 
 />
    <glyph glyph-name="CR" unicode="&#xd;" horiz-adv-x="250" 
 />
    <glyph glyph-name="space" unicode=" " horiz-adv-x="258" 
 />
    <glyph glyph-name="exclam" unicode="!" horiz-adv-x="210" 
d="M174 519l-16 -263c-1 -18 -17 -33 -35 -33h-7c-18 0 -34 15 -35 33l-16 263v137c0 19 16 35 35 35h39c19 0 35 -16 35 -35v-137zM120 123c36 0 63 -27 63 -65c0 -39 -27 -67 -63 -67s-63 28 -63 67c0 38 27 65 63 65z" />
    <glyph glyph-name="quotedbl" unicode="&#x22;" horiz-adv-x="362" 
d="M148 489c0 -19 -16 -35 -35 -35h-18c-19 0 -35 16 -35 35v176c0 19 16 35 35 35h18c19 0 35 -16 35 -35v-176zM302 489c0 -19 -16 -35 -35 -35h-18c-19 0 -35 16 -35 35v176c0 19 16 35 35 35h18c19 0 35 -16 35 -35v-176z" />
    <glyph glyph-name="numbersign" unicode="#" horiz-adv-x="725" 
d="M577 435c-17 0 -33 -14 -35 -31l-13 -106c-3 -21 13 -39 35 -39h62c21 0 36 -17 34 -38l-1 -16c-2 -18 -17 -32 -35 -32h-79c-17 0 -33 -14 -35 -31l-14 -111c-2 -17 -18 -31 -35 -31h-13c-22 0 -38 18 -35 39l11 95c3 21 -13 39 -35 39h-106c-17 0 -33 -14 -35 -31
l-14 -111c-2 -17 -18 -31 -35 -31h-13c-22 0 -38 18 -35 39l11 95c3 21 -13 39 -35 39h-62c-21 0 -36 17 -34 38l1 16c2 18 17 32 35 32h80c17 0 33 14 35 31l12 106c3 21 -13 39 -34 39h-62c-21 0 -36 17 -34 38l1 16c2 18 17 32 35 32h79c17 0 33 14 35 31l14 117
c2 17 18 31 35 31h14c22 0 38 -18 35 -39l-12 -101c-3 -21 13 -39 35 -39h106c17 0 33 14 35 31l14 117c2 17 18 31 35 31h14c22 0 38 -18 35 -39l-12 -101c-3 -21 13 -39 35 -39h61c21 0 37 -17 35 -38l-1 -16c-2 -18 -18 -32 -35 -32h-80zM456 396c3 21 -13 39 -34 39
h-107c-17 0 -33 -14 -35 -31l-13 -106c-3 -21 13 -39 35 -39h107c17 0 33 14 35 31z" />
    <glyph glyph-name="dollar" unicode="$" horiz-adv-x="621" 
d="M384 585c-13 3 -21 -6 -21 -19v-136c0 -14 10 -29 23 -33c95 -30 191 -72 190 -199c0 -103 -74 -173 -185 -195c-15 -3 -28 -19 -28 -35v-75c0 -19 -16 -35 -35 -35h-18c-19 0 -35 16 -35 35v73c0 16 -12 33 -29 35c-75 12 -145 44 -200 89c-12 9 -15 27 -8 41l21 42
c9 17 35 21 51 9c42 -32 89 -54 135 -66c19 -5 30 8 30 27v141c0 13 -10 29 -23 33c-93 29 -185 70 -185 193c0 99 70 167 180 188c16 3 28 20 28 35v66c0 19 16 35 35 35h18c19 0 35 -16 35 -35v-64c0 -16 18 -34 34 -36c52 -9 102 -27 144 -50c16 -9 21 -27 13 -43
l-23 -48c-6 -15 -27 -20 -41 -13c-37 19 -73 32 -106 40zM199 521c0 -36 21 -60 54 -77c11 -6 22 1 22 14v109c0 15 -9 23 -23 18c-33 -11 -53 -33 -53 -64zM387 272c-13 7 -24 -1 -24 -15v-119c0 -17 10 -25 25 -20c37 14 57 39 57 74c0 39 -23 63 -58 80z" />
    <glyph glyph-name="percent" unicode="%" horiz-adv-x="973" 
d="M223 702c115 0 185 -78 185 -208c0 -131 -70 -210 -185 -210s-185 79 -185 210c0 130 70 208 185 208zM226 0c-25 0 -38 25 -23 45l472 641c4 6 20 14 28 14h37c24 0 37 -25 22 -44l-471 -642c-4 -6 -20 -14 -28 -14h-37zM223 634c-69 0 -108 -51 -108 -140
c0 -90 39 -142 108 -142s109 52 109 142c0 89 -40 140 -109 140zM750 415c115 0 185 -78 185 -208c0 -131 -70 -209 -185 -209s-185 78 -185 209c0 130 70 208 185 208zM750 348c-69 0 -108 -52 -108 -141c0 -90 39 -141 108 -141s109 51 109 141c0 89 -40 141 -109 141z
" />
    <glyph glyph-name="ampersand" unicode="&#x26;" horiz-adv-x="663" 
d="M622 6c-14 -14 -36 -14 -50 -1l-60 59c-12 12 -34 14 -48 3c-56 -46 -120 -72 -187 -72c-125 0 -220 83 -220 196c0 84 52 135 116 174c16 10 23 36 13 52c-31 48 -45 89 -45 130c0 93 73 158 182 158c105 0 177 -61 177 -147s-68 -136 -144 -177c-14 -8 -19 -22 -8 -34
c32 -35 70 -74 116 -119c8 -8 19 -4 25 6c15 25 29 53 41 82c5 13 20 18 31 10l32 -25c12 -9 17 -28 11 -42c-15 -31 -30 -60 -48 -86c-6 -11 -6 -29 3 -37l72 -70c14 -14 14 -36 0 -50zM232 548c0 -31 12 -62 35 -100c10 -15 26 -19 42 -11c56 31 100 66 100 120
c0 46 -33 76 -85 76c-56 0 -92 -37 -92 -85zM281 82c42 0 83 17 120 47c15 12 17 28 3 42c-50 50 -93 94 -128 133c-11 12 -33 17 -46 8c-45 -30 -78 -64 -78 -112c0 -70 57 -118 129 -118z" />
    <glyph glyph-name="quotesingle" unicode="'" horiz-adv-x="208" 
d="M148 489c0 -19 -16 -35 -35 -35h-18c-19 0 -35 16 -35 35v176c0 19 16 35 35 35h18c19 0 35 -16 35 -35v-176z" />
    <glyph glyph-name="parenleft" unicode="(" horiz-adv-x="319" 
d="M187 725c5 7 21 17 30 17h34c23 0 37 -24 26 -45c-58 -107 -92 -243 -92 -388s34 -281 92 -388c11 -21 -3 -45 -26 -45h-34c-9 0 -25 10 -30 17c-71 112 -110 258 -110 416s39 304 110 416z" />
    <glyph glyph-name="parenright" unicode=")" horiz-adv-x="345" 
d="M145 697c-11 21 3 45 26 45h34c9 0 25 -10 30 -17c71 -112 110 -258 110 -416s-39 -304 -110 -416c-5 -7 -21 -17 -30 -17h-34c-23 0 -37 24 -26 45c58 107 92 243 92 388s-34 281 -92 388z" />
    <glyph glyph-name="asterisk" unicode="*" horiz-adv-x="348" 
d="M247 485c-21 12 -44 -1 -43 -25v-22c0 -17 -13 -30 -30 -30s-30 13 -30 30l1 22c0 24 -23 37 -44 25l-18 -10c-35 -21 -65 34 -31 55l18 10c21 12 21 38 0 50l-17 8c-15 9 -21 29 -12 45c8 15 28 21 43 11l17 -10c21 -12 44 1 44 26l-1 21c0 17 13 30 30 30
s30 -13 30 -30v-21c-1 -25 22 -38 43 -26l18 10c15 9 34 3 42 -12s3 -35 -13 -43l-17 -9c-21 -12 -21 -38 0 -50l17 -10c16 -9 21 -29 13 -44s-27 -21 -42 -12z" />
    <glyph glyph-name="plus" unicode="+" horiz-adv-x="498" 
d="M463 320c0 -19 -16 -35 -35 -35h-106c-19 0 -35 -16 -35 -35v-105c0 -19 -16 -35 -35 -35h-5c-19 0 -35 16 -35 35v105c0 19 -16 35 -35 35h-107c-19 0 -35 16 -35 35v9c0 19 16 35 35 35h107c19 0 35 16 35 35v105c0 19 16 35 35 35h5c19 0 35 -16 35 -35v-105
c0 -19 16 -35 35 -35h106c19 0 35 -16 35 -35v-9z" />
    <glyph glyph-name="comma" unicode="," horiz-adv-x="214" 
d="M109 121c32 0 61 -24 61 -64c0 -20 -7 -37 -18 -53l-47 -70c-4 -8 -20 -16 -29 -16h-10c-15 0 -24 13 -18 27l22 50c2 4 -1 14 -5 17c-12 12 -18 28 -18 45c0 37 26 64 62 64z" />
    <glyph glyph-name="hyphen" unicode="-" horiz-adv-x="368" 
d="M307 300c0 -19 -16 -35 -35 -35h-176c-19 0 -35 16 -35 35v9c0 19 16 35 35 35h176c19 0 35 -16 35 -35v-9z" />
    <glyph glyph-name="period" unicode="." horiz-adv-x="218" 
d="M109 123c36 0 63 -27 63 -65c0 -39 -27 -67 -63 -67s-63 28 -63 67c0 38 27 65 63 65z" />
    <glyph glyph-name="slash" unicode="/" horiz-adv-x="331" 
d="M85 -93c-4 -13 -20 -24 -33 -24h-24c-26 0 -41 22 -33 46l293 863c4 13 20 24 33 24h24c26 0 41 -22 33 -46z" />
    <glyph glyph-name="zero" unicode="0" horiz-adv-x="691" 
d="M346 703c191 0 297 -126 297 -353s-106 -353 -297 -353c-192 0 -298 126 -298 353s106 353 298 353zM346 610c-118 0 -177 -82 -177 -260c0 -177 59 -260 177 -260c117 0 176 83 176 260c0 178 -59 260 -176 260z" />
    <glyph glyph-name="one" unicode="1" horiz-adv-x="387" 
d="M268 35c0 -19 -16 -35 -35 -35h-48c-19 0 -35 16 -35 35v525c0 19 -16 35 -35 35h-67c-19 0 -35 16 -35 35v35c0 19 16 35 35 35h185c19 0 35 -16 35 -35v-630z" />
    <glyph glyph-name="two" unicode="2" horiz-adv-x="588" 
d="M288 705c132 0 223 -69 223 -176c0 -71 -54 -150 -128 -230l-126 -134c-23 -24 -7 -59 25 -59h226c19 0 35 -16 35 -35v-36c0 -19 -16 -35 -35 -35h-428c-19 0 -35 16 -35 35v37c0 5 6 20 9 24l249 267c51 52 85 109 85 149c0 56 -44 90 -117 90c-50 0 -107 -23 -159 -62
c-16 -11 -41 -8 -50 10l-16 30c-7 14 -3 33 10 43c71 51 151 82 232 82z" />
    <glyph glyph-name="three" unicode="3" horiz-adv-x="539" 
d="M274 422c-5 -6 -2 -14 6 -15l18 -2c117 -10 197 -78 197 -188c0 -131 -99 -222 -255 -222c-75 0 -154 23 -212 60c-15 9 -19 26 -11 42l20 39c8 15 30 18 44 8c45 -32 98 -50 151 -50c93 0 147 48 147 120c0 76 -55 115 -148 115h-62c-20 0 -35 15 -35 35v20
c0 5 6 20 9 24l118 127c22 24 7 59 -25 59h-165c-19 0 -35 16 -35 35v35c0 19 16 35 35 35h356c19 0 35 -16 35 -35v-25c0 -5 -6 -20 -9 -24z" />
    <glyph glyph-name="four" unicode="4" horiz-adv-x="599" 
d="M184 329c-14 -26 2 -52 31 -52h114c19 0 35 16 35 35v96c0 19 16 35 35 35h40c19 0 35 -16 35 -35v-96c0 -19 16 -35 35 -35h32c19 0 35 -16 35 -35v-35c0 -19 -16 -35 -35 -35h-32c-19 0 -35 -16 -35 -35v-102c0 -19 -16 -35 -35 -35h-40c-19 0 -35 16 -35 35v102
c0 19 -16 35 -35 35h-264c-19 0 -35 16 -35 35v44c0 2 3 15 4 17l225 414c5 9 21 18 31 18h36c28 0 43 -26 30 -50z" />
    <glyph glyph-name="five" unicode="5" horiz-adv-x="577" 
d="M506 629c0 -19 -16 -35 -35 -35h-248c-19 0 -35 -16 -35 -35v-81c0 -19 16 -35 35 -35l61 1c152 0 250 -90 250 -213c0 -142 -102 -235 -259 -235c-73 0 -156 25 -222 63c-15 9 -22 28 -14 44l18 36c8 16 32 20 47 10c49 -33 106 -51 158 -51c91 0 146 47 146 126
c0 71 -55 115 -145 115c-36 0 -110 -3 -160 -7c-13 -1 -24 9 -24 22v311c0 19 16 35 35 35h356c19 0 35 -16 35 -35z" />
    <glyph glyph-name="six" unicode="6" horiz-adv-x="615" 
d="M350 705c59 0 127 -15 182 -39c18 -8 21 -25 12 -43l-19 -37c-6 -11 -25 -15 -36 -9c-39 19 -87 30 -131 30c-126 0 -189 -87 -195 -220c0 -10 15 -9 22 -2c39 45 96 68 169 68c140 0 225 -87 225 -223c0 -145 -97 -235 -246 -235c-177 0 -285 126 -285 341
c0 223 117 369 302 369zM332 360c-95 0 -151 -61 -150 -133c-1 -61 44 -130 145 -130c85 0 142 49 142 134c0 80 -52 129 -137 129z" />
    <glyph glyph-name="seven" unicode="7" horiz-adv-x="570" 
d="M546 618c0 -2 -2 -13 -3 -15l-267 -583c-4 -10 -20 -20 -31 -20h-48c-28 0 -44 25 -32 50l226 494c12 25 -4 50 -32 50h-182c-19 0 -35 -16 -35 -35v-14c-1 -20 -22 -29 -37 -15l-57 54c-4 4 -11 19 -11 25v56c0 19 16 35 35 35h439c19 0 35 -16 35 -35v-47z" />
    <glyph glyph-name="eight" unicode="8" horiz-adv-x="626" 
d="M313 705c144 0 235 -69 235 -181c0 -56 -27 -102 -72 -133c-10 -6 -12 -24 -2 -29c68 -33 109 -92 109 -166c0 -125 -104 -201 -270 -201c-165 0 -269 76 -269 199c0 75 42 135 112 168c11 5 9 24 -1 30c-48 33 -76 80 -76 136c0 110 91 177 234 177zM313 620
c-84 0 -134 -38 -134 -103s50 -102 134 -102c85 0 134 37 134 102s-49 103 -134 103zM313 323c-99 0 -157 -43 -157 -116c0 -76 57 -119 157 -119s158 43 158 119c0 73 -58 116 -158 116z" />
    <glyph glyph-name="nine" unicode="9" horiz-adv-x="615" 
d="M271 -5c-59 0 -127 15 -182 39c-18 8 -21 25 -12 43l19 37c6 11 25 15 36 9c39 -19 87 -30 131 -30c126 0 189 87 195 220c0 10 -15 9 -22 2c-39 -45 -96 -68 -169 -68c-140 0 -225 87 -225 223c0 145 97 235 246 235c177 0 285 -126 285 -341
c0 -223 -117 -369 -302 -369zM289 340c95 0 151 61 150 133c1 61 -44 130 -145 130c-85 0 -142 -49 -142 -134c0 -80 52 -129 137 -129z" />
    <glyph glyph-name="colon" unicode=":" horiz-adv-x="212" 
d="M109 420c36 0 63 -27 63 -65c0 -39 -27 -67 -63 -67s-63 28 -63 67c0 38 27 65 63 65zM109 123c36 0 63 -27 63 -65c0 -39 -27 -67 -63 -67s-63 28 -63 67c0 38 27 65 63 65z" />
    <glyph glyph-name="semicolon" unicode=";" horiz-adv-x="216" 
d="M109 288c-36 0 -63 28 -63 67c0 38 27 65 63 65s63 -27 63 -65c0 -39 -27 -67 -63 -67zM109 121c32 0 61 -24 61 -64c0 -20 -7 -37 -18 -53l-47 -70c-4 -8 -20 -16 -29 -16h-10c-15 0 -24 13 -18 27l22 50c2 4 -1 14 -5 17c-12 12 -18 28 -18 45c0 37 26 64 62 64z" />
    <glyph glyph-name="less" unicode="&#x3c;" horiz-adv-x="498" 
d="M463 496c0 -12 -11 -27 -21 -32l-253 -106c-30 -13 -31 -52 0 -64l253 -107c10 -5 21 -20 21 -32v-21c0 -23 -20 -36 -41 -27l-366 159c-11 4 -21 20 -21 32v55c0 12 10 28 21 32l366 159c21 9 41 -4 41 -26v-22z" />
    <glyph glyph-name="equal" unicode="=" horiz-adv-x="498" 
d="M463 425c0 -19 -16 -35 -35 -35h-358c-19 0 -35 16 -35 35v9c0 19 16 35 35 35h358c19 0 35 -16 35 -35v-9zM463 215c0 -19 -16 -35 -35 -35h-358c-19 0 -35 16 -35 35v9c0 19 16 35 35 35h358c19 0 35 -16 35 -35v-9z" />
    <glyph glyph-name="greater" unicode="&#x3e;" horiz-adv-x="498" 
d="M35 160c0 12 11 27 21 32l253 106c30 13 31 52 0 64l-253 107c-10 5 -21 20 -21 32v22c0 22 20 35 41 26l366 -159c11 -4 21 -20 21 -32v-55c0 -12 -10 -28 -21 -32l-366 -159c-21 -9 -41 4 -41 27v21z" />
    <glyph glyph-name="question" unicode="?" horiz-adv-x="443" 
d="M100 528c-4 -14 -24 -33 -39 -33l-20 1c-22 0 -36 15 -33 36c17 105 92 163 204 163c120 0 200 -58 200 -167c0 -142 -128 -162 -154 -263c-3 -14 -24 -37 -39 -37h-18c-22 0 -36 12 -33 34c18 128 137 137 137 249c0 58 -41 86 -103 86c-54 0 -90 -23 -102 -69zM209 123
c36 0 63 -27 63 -65c0 -39 -27 -67 -63 -67s-63 28 -63 67c0 38 27 65 63 65z" />
    <glyph glyph-name="at" unicode="@" horiz-adv-x="974" 
d="M493 702c257 0 447 -181 447 -430c0 -151 -79 -249 -191 -249c-59 0 -103 24 -115 77c0 0 -1 5 -1 6l-1 8c0 3 -5 4 -7 1c-41 -54 -100 -80 -166 -80c-122 0 -231 94 -231 234c0 132 87 239 220 239c77 0 133 -41 152 -66c2 -2 6 0 6 3v21c0 17 15 32 33 32h40
c19 0 35 -16 35 -35v-314c0 -38 19 -54 46 -54c49 0 94 71 94 174c0 199 -139 352 -361 352c-208 0 -373 -156 -373 -354c0 -195 156 -337 360 -337c49 0 110 13 162 40c14 8 40 3 48 -11l9 -16c9 -17 3 -36 -14 -45c-59 -31 -140 -51 -205 -51c-254 0 -446 179 -446 420
c0 246 201 435 459 435zM469 408c-74 0 -124 -60 -124 -134c0 -77 50 -141 126 -141c79 0 128 62 128 140c0 75 -51 135 -130 135z" />
    <glyph glyph-name="A" unicode="A" horiz-adv-x="738" 
d="M553 137c-5 11 -20 21 -32 21h-307c-12 0 -27 -10 -32 -21l-49 -116c-5 -11 -20 -21 -32 -21h-46c-27 0 -43 24 -32 49l278 630c4 11 20 21 32 21h75c12 0 28 -10 32 -21l276 -630c10 -25 -5 -49 -32 -49h-50c-12 0 -27 10 -32 21zM446 263c27 0 43 24 32 49l-79 186
c-13 30 -51 30 -64 0l-79 -186c-11 -25 5 -49 32 -49h158z" />
    <glyph glyph-name="B" unicode="B" horiz-adv-x="706" 
d="M92 665c0 19 16 35 35 35h269c145 0 235 -66 235 -175c0 -65 -32 -117 -86 -143c-7 -3 -4 -21 3 -24c70 -26 110 -86 110 -166c0 -120 -97 -192 -255 -192h-276c-19 0 -35 16 -35 35v630zM245 595c-19 0 -35 -16 -35 -35v-115c0 -19 16 -35 35 -35h145
c75 0 120 35 120 94s-45 91 -120 91h-145zM245 306c-19 0 -35 -16 -35 -35v-131c0 -19 16 -35 35 -35h145c92 0 147 36 147 102c0 62 -55 99 -147 99h-145z" />
    <glyph glyph-name="C" unicode="C" horiz-adv-x="697" 
d="M402 703c89 0 178 -33 245 -89c14 -12 13 -29 1 -44l-26 -32c-11 -14 -38 -13 -52 -2c-47 39 -107 62 -166 62c-140 0 -250 -108 -250 -246s110 -247 250 -247c58 0 117 22 166 58c14 11 41 11 53 -2l24 -26c13 -15 15 -32 0 -45c-69 -59 -160 -95 -249 -95
c-205 0 -364 155 -364 356c0 199 161 352 368 352z" />
    <glyph glyph-name="D" unicode="D" horiz-adv-x="775" 
d="M92 665c0 19 16 35 35 35h252c210 0 362 -147 362 -350c0 -202 -153 -350 -365 -350h-249c-19 0 -35 16 -35 35v630zM245 594c-19 0 -35 -16 -35 -35v-418c0 -19 16 -35 35 -35h137c136 0 240 101 240 243c0 143 -107 245 -245 245h-132z" />
    <glyph glyph-name="E" unicode="E" horiz-adv-x="656" 
d="M592 629c0 -19 -16 -35 -35 -35h-312c-19 0 -35 -16 -35 -35v-119c0 -19 16 -35 35 -35h272c19 0 35 -16 35 -35v-36c0 -19 -16 -35 -35 -35h-272c-19 0 -35 -16 -35 -35v-123c0 -19 16 -35 35 -35h324c19 0 35 -16 35 -35v-36c0 -19 -16 -35 -35 -35h-442
c-19 0 -35 16 -35 35v630c0 19 16 35 35 35h430c19 0 35 -16 35 -35v-36z" />
    <glyph glyph-name="F" unicode="F" horiz-adv-x="575" 
d="M561 629c0 -19 -16 -35 -35 -35h-281c-19 0 -35 -16 -35 -35v-132c0 -19 16 -35 35 -35h248c19 0 35 -16 35 -35v-35c0 -19 -16 -35 -35 -35h-248c-19 0 -35 -16 -35 -35v-217c0 -19 -16 -35 -35 -35h-48c-19 0 -35 16 -35 35v630c0 19 16 35 35 35h400
c19 0 35 -16 35 -35z" />
    <glyph glyph-name="G" unicode="G" horiz-adv-x="749" 
d="M571 309c0 19 16 35 35 35h33c19 0 35 -16 35 -35v-206c0 -8 -9 -24 -17 -29c-70 -47 -166 -79 -255 -79c-207 0 -368 155 -368 355s163 353 375 353c88 0 175 -29 242 -77c16 -11 19 -31 7 -47l-25 -32c-10 -14 -38 -15 -52 -5c-50 36 -112 56 -172 56
c-143 0 -255 -109 -255 -248c0 -140 113 -249 256 -249c46 0 96 14 142 37c9 5 19 20 19 31v140z" />
    <glyph glyph-name="H" unicode="H" horiz-adv-x="791" 
d="M699 35c0 -19 -16 -35 -35 -35h-48c-19 0 -35 16 -35 35v220c0 19 -16 35 -35 35h-301c-19 0 -35 -16 -35 -35v-220c0 -19 -16 -35 -35 -35h-48c-19 0 -35 16 -35 35v630c0 19 16 35 35 35h48c19 0 35 -16 35 -35v-234c0 -19 16 -35 35 -35h301c19 0 35 16 35 35v234
c0 19 16 35 35 35h48c19 0 35 -16 35 -35v-630z" />
    <glyph glyph-name="I" unicode="I" horiz-adv-x="302" 
d="M210 35c0 -19 -16 -35 -35 -35h-48c-19 0 -35 16 -35 35v630c0 19 16 35 35 35h48c19 0 35 -16 35 -35v-630z" />
    <glyph glyph-name="J" unicode="J" horiz-adv-x="499" 
d="M303 665c0 19 16 35 35 35h49c19 0 35 -16 35 -35v-449c0 -141 -83 -221 -218 -221c-76 0 -140 30 -190 83c-10 10 -10 27 -3 39l25 40c9 14 30 16 43 5c40 -35 84 -53 124 -53c63 0 100 39 100 111v445z" />
    <glyph glyph-name="K" unicode="K" horiz-adv-x="718" 
d="M577 0c-8 0 -24 8 -28 14l-195 261c-13 18 -38 20 -54 3l-81 -90c-3 -4 -9 -19 -9 -24v-129c0 -19 -16 -35 -35 -35h-48c-19 0 -35 16 -35 35v630c0 19 16 35 35 35h48c19 0 35 -16 35 -35v-237c0 -34 38 -49 61 -24l263 285c4 4 19 11 25 11h55c28 0 41 -30 22 -51
l-205 -227c-10 -11 -11 -32 -2 -44l232 -323c18 -24 2 -55 -28 -55h-56z" />
    <glyph glyph-name="L" unicode="L" horiz-adv-x="534" 
d="M210 142c0 -19 16 -35 35 -35h233c19 0 35 -16 35 -35v-37c0 -19 -16 -35 -35 -35h-351c-19 0 -35 16 -35 35v630c0 19 16 35 35 35h48c19 0 35 -16 35 -35v-523z" />
    <glyph glyph-name="M" unicode="M" horiz-adv-x="925" 
d="M832 35c0 -19 -16 -35 -35 -35h-39c-19 0 -35 16 -35 35l-1 338c0 37 -50 48 -66 15l-145 -295c-5 -10 -21 -20 -32 -20h-33c-11 0 -27 10 -32 20l-145 295c-16 33 -66 21 -66 -16v-337c0 -19 -16 -35 -35 -35h-41c-19 0 -35 16 -35 35v630c0 19 16 35 35 35h83
c11 0 27 -10 32 -19l190 -383c13 -28 49 -28 62 0l189 383c5 9 21 19 32 19h82c19 0 35 -16 35 -35v-630z" />
    <glyph glyph-name="N" unicode="N" horiz-adv-x="792" 
d="M699 35c0 -19 -16 -35 -35 -35h-63c-8 0 -24 8 -28 14l-300 403c-21 28 -63 14 -63 -21v-361c0 -19 -16 -35 -35 -35h-48c-19 0 -35 16 -35 35v630c0 19 16 35 35 35h63c8 0 24 -8 28 -14l302 -404c21 -28 63 -14 63 21v362c0 19 16 35 35 35h46c19 0 35 -16 35 -35v-630
z" />
    <glyph glyph-name="O" unicode="O" horiz-adv-x="810" 
d="M405 703c209 0 371 -153 371 -353s-162 -355 -371 -355s-371 155 -371 355c0 201 162 353 371 353zM406 597c-138 0 -252 -108 -252 -247s115 -249 252 -249s249 110 249 249s-112 247 -249 247z" />
    <glyph glyph-name="P" unicode="P" horiz-adv-x="673" 
d="M92 665c0 19 16 35 35 35h244c176 0 277 -87 277 -239c0 -158 -101 -250 -277 -250h-126c-19 0 -35 -16 -35 -35v-141c0 -19 -16 -35 -35 -35h-48c-19 0 -35 16 -35 35v630zM245 594c-19 0 -35 -16 -35 -35v-207c0 -19 16 -35 35 -35h121c108 0 169 46 169 141
c0 92 -61 136 -169 136h-121z" />
    <glyph glyph-name="Q" unicode="Q" horiz-adv-x="825" 
d="M746 -12c12 9 31 6 38 -7l19 -33c8 -15 7 -32 -7 -42c-51 -38 -112 -60 -169 -60c-84 0 -159 50 -214 135c-5 7 -16 14 -25 14c-201 9 -354 160 -354 355c0 201 162 353 371 353s371 -153 371 -353c0 -152 -93 -278 -230 -329c-13 -5 -12 -18 -2 -28
c32 -29 64 -45 97 -45c31 0 67 15 105 40zM154 350c0 -139 115 -249 252 -249s249 110 249 249s-112 247 -249 247c-138 0 -252 -108 -252 -247z" />
    <glyph glyph-name="R" unicode="R" horiz-adv-x="723" 
d="M556 0c-10 0 -25 9 -30 17l-115 191c-2 2 -5 4 -7 4c-9 -1 -19 -1 -28 -1h-131c-19 0 -35 -16 -35 -35v-141c0 -19 -16 -35 -35 -35h-48c-19 0 -35 16 -35 35v630c0 19 16 35 35 35h249c179 0 282 -87 282 -239c0 -95 -38 -167 -106 -208c-17 -10 -26 -39 -15 -55
l96 -143c17 -25 1 -55 -29 -55h-48zM210 352c0 -19 16 -35 35 -35h131c108 0 170 46 170 141c0 92 -62 136 -170 136h-131c-19 0 -35 -16 -35 -35v-207z" />
    <glyph glyph-name="S" unicode="S" horiz-adv-x="622" 
d="M322 705c80 0 158 -22 220 -57c15 -8 20 -26 12 -42l-19 -42c-9 -18 -33 -25 -51 -16c-64 32 -126 46 -171 46c-69 0 -114 -26 -114 -73c0 -153 378 -71 377 -323c0 -125 -110 -202 -264 -202c-99 0 -193 36 -263 92c-13 9 -18 29 -11 43l18 36c10 21 36 28 55 14
c65 -48 139 -74 203 -74c82 0 131 31 131 85c0 156 -378 69 -378 318c0 120 103 195 255 195z" />
    <glyph glyph-name="T" unicode="T" horiz-adv-x="579" 
d="M570 629c0 -19 -16 -35 -35 -35h-152c-19 0 -35 -16 -35 -35v-524c0 -19 -16 -35 -35 -35h-48c-19 0 -35 16 -35 35v524c0 19 -16 35 -35 35h-151c-19 0 -35 16 -35 35v36c0 19 16 35 35 35h491c19 0 35 -16 35 -35v-36z" />
    <glyph glyph-name="U" unicode="U" horiz-adv-x="764" 
d="M652 700c19 0 35 -16 35 -35v-375c0 -183 -115 -295 -304 -295s-305 112 -305 295v375c0 19 16 35 35 35h48c19 0 35 -16 35 -35v-375c0 -118 73 -189 188 -189c114 0 185 70 185 189v375c0 19 16 35 35 35h48z" />
    <glyph glyph-name="V" unicode="V" horiz-adv-x="690" 
d="M413 22c-5 -11 -21 -22 -33 -22h-74c-12 0 -28 11 -33 22l-251 630c-10 25 6 48 33 48h51c12 0 28 -11 33 -23l174 -460c12 -32 54 -32 66 0l176 461c5 11 21 22 33 22h47c27 0 43 -23 33 -48z" />
    <glyph glyph-name="W" unicode="W" horiz-adv-x="1036" 
d="M820 24c-4 -13 -20 -24 -33 -24h-70c-14 0 -30 12 -34 25l-125 412c-10 33 -56 33 -67 0l-126 -412c-4 -13 -20 -25 -34 -25h-71c-13 0 -29 11 -33 24l-209 630c-8 24 8 46 33 46h53c14 0 30 -12 33 -25l129 -432c11 -34 57 -33 67 1l129 430c4 13 19 25 33 25l64 1
c14 0 30 -12 34 -25l128 -431c11 -34 57 -34 67 0l129 431c3 13 19 25 33 25h47c26 0 42 -22 34 -46z" />
    <glyph glyph-name="X" unicode="X" horiz-adv-x="692" 
d="M430 384c-7 -10 -7 -30 0 -40l202 -289c18 -25 2 -55 -28 -55h-56c-8 0 -24 8 -28 15l-150 209c-15 21 -43 21 -57 0l-150 -209c-4 -7 -20 -15 -28 -15h-52c-31 0 -46 30 -29 55l202 284c7 10 7 30 0 40l-185 266c-17 25 -1 55 29 55h52c8 0 24 -8 28 -15l132 -187
c15 -22 43 -22 58 -1l133 188c4 7 20 15 28 15h53c30 0 46 -30 28 -55z" />
    <glyph glyph-name="Y" unicode="Y" horiz-adv-x="637" 
d="M383 241c-1 -2 -4 -15 -4 -17v-189c0 -19 -16 -35 -35 -35h-47c-19 0 -35 16 -35 35v185c0 2 -3 15 -4 17l-228 411c-14 25 2 52 30 52h40c9 0 25 -9 30 -17l160 -272c14 -25 46 -25 60 0l156 271c5 9 21 18 30 18h41c28 0 44 -27 30 -52z" />
    <glyph glyph-name="Z" unicode="Z" horiz-adv-x="666" 
d="M623 628c0 -5 -5 -19 -8 -23l-370 -442c-20 -24 -5 -57 27 -57h321c19 0 35 -16 35 -35v-36c0 -19 -16 -35 -35 -35h-521c-19 0 -35 16 -35 35v37c0 5 5 19 8 23l371 442c20 24 5 57 -27 57h-304c-19 0 -35 16 -35 35v36c0 19 16 35 35 35h503c19 0 35 -16 35 -35v-37z
" />
    <glyph glyph-name="bracketleft" unicode="[" horiz-adv-x="345" 
d="M319 685c0 -19 -16 -35 -35 -35h-54c-19 0 -35 -16 -35 -35v-612c0 -19 16 -35 35 -35h54c19 0 35 -16 35 -35v-22c0 -19 -16 -35 -35 -35h-157c-19 0 -35 16 -35 35v796c0 19 16 35 35 35h157c19 0 35 -16 35 -35v-22z" />
    <glyph glyph-name="backslash" unicode="\" horiz-adv-x="545" 
d="M203 816c13 0 29 -11 33 -24l293 -863c8 -24 -7 -46 -33 -46h-24c-13 0 -29 11 -33 24l-293 863c-8 24 7 46 33 46h24z" />
    <glyph glyph-name="bracketright" unicode="]" horiz-adv-x="473" 
d="M346 742c19 0 35 -16 35 -35v-796c0 -19 -16 -35 -35 -35h-157c-19 0 -35 16 -35 35v22c0 19 16 35 35 35h54c19 0 35 16 35 35v612c0 19 -16 35 -35 35h-54c-19 0 -35 16 -35 35v22c0 19 16 35 35 35h157z" />
    <glyph glyph-name="asciicircum" unicode="^" horiz-adv-x="538" 
d="M439 132c-12 0 -28 10 -32 21l-106 232c-13 29 -51 29 -64 0l-107 -233c-4 -10 -20 -20 -31 -20h-22c-23 0 -35 20 -26 40l158 334c4 10 20 20 31 20h57c11 0 27 -10 31 -20l158 -334c9 -20 -3 -40 -25 -40h-22z" />
    <glyph glyph-name="underscore" unicode="_" horiz-adv-x="566" 
d="M566 -169c0 -19 -16 -35 -35 -35h-496c-19 0 -35 16 -35 35s16 35 35 35h496c19 0 35 -16 35 -35z" />
    <glyph glyph-name="grave" unicode="`" 
d="M250 650c14 -18 2 -41 -21 -41h-39c-4 0 -18 5 -22 8l-66 53c-23 18 -18 49 8 60l38 16c14 6 34 0 42 -12z" />
    <glyph glyph-name="a" unicode="a" horiz-adv-x="586" 
d="M437 0c-18 0 -33 15 -33 33v2c0 9 -15 14 -22 8c-38 -32 -90 -48 -154 -48c-115 0 -187 71 -187 165c0 97 73 159 201 160h153c4 0 8 4 8 8v8c0 67 -43 107 -127 107c-42 0 -86 -12 -129 -37c-14 -8 -36 -3 -44 11l-13 22c-10 17 -3 39 14 48c59 32 111 49 197 49
c137 0 214 -70 215 -187l1 -314c0 -19 -16 -35 -35 -35h-45zM252 86c80 0 142 41 150 97l1 6v23c0 13 -11 24 -24 24h-120c-75 0 -110 -20 -110 -71c0 -48 39 -79 103 -79z" />
    <glyph glyph-name="b" unicode="b" horiz-adv-x="680" 
d="M391 536c151 0 254 -110 254 -272c0 -159 -100 -268 -252 -268c-70 0 -126 23 -165 66c-7 8 -23 4 -23 -7v-20c0 -19 -16 -35 -35 -35h-45c-19 0 -35 16 -35 35v672c0 19 16 35 35 35h45c19 0 35 -16 35 -35v-230c0 -11 16 -15 23 -7c39 43 95 66 163 66zM367 94
c95 0 162 72 162 174c0 99 -67 172 -162 172s-162 -72 -162 -172c0 -103 67 -174 162 -174z" />
    <glyph glyph-name="c" unicode="c" horiz-adv-x="564" 
d="M303 536c84 0 152 -24 200 -67c14 -13 13 -29 0 -43l-26 -31c-8 -9 -28 -9 -38 -1c-34 26 -78 42 -131 41c-92 0 -158 -69 -158 -170s66 -170 158 -170c55 0 102 15 136 44c10 8 31 10 41 0l22 -22c14 -14 16 -31 3 -44c-49 -49 -119 -77 -207 -77
c-158 0 -268 109 -268 269c0 161 110 271 268 271z" />
    <glyph glyph-name="d" unicode="d" horiz-adv-x="682" 
d="M557 742c19 0 35 -16 35 -35v-672c0 -19 -16 -35 -35 -35h-45c-19 0 -35 16 -35 35v20c0 10 -16 13 -22 6c-39 -43 -95 -66 -165 -66c-153 0 -255 111 -255 273c0 160 103 269 253 269c71 0 127 -24 166 -67c7 -7 23 -4 23 7v230c0 19 16 35 35 35h45zM314 91
c96 0 163 72 163 173c0 103 -67 175 -163 175s-163 -73 -164 -175c1 -101 67 -173 164 -173z" />
    <glyph glyph-name="e" unicode="e" horiz-adv-x="588" 
d="M304 536c178 0 255 -110 250 -286c0 -19 -15 -28 -34 -28h-327c-27 0 -40 -16 -29 -40c28 -58 83 -93 152 -93c48 0 92 15 128 43c11 8 32 8 41 -1l20 -21c14 -15 13 -35 -3 -48c-50 -42 -117 -66 -195 -66c-164 0 -272 109 -272 269c0 161 111 270 269 271zM160 348
c-10 -25 3 -42 30 -42h226c24 0 38 13 32 36c-17 64 -69 102 -143 102c-69 0 -122 -36 -145 -96z" />
    <glyph glyph-name="f" unicode="f" horiz-adv-x="343" 
d="M293 647c-39 0 -72 -22 -72 -72v-31c0 -18 14 -32 32 -32h72c19 0 35 -16 35 -35v-16c0 -19 -16 -35 -35 -35h-69c-19 0 -35 -16 -35 -35v-356c0 -19 -16 -35 -35 -35h-44c-19 0 -35 16 -35 35v356c0 19 -16 35 -35 35s-35 16 -35 35v16c0 19 16 35 35 35h9
c14 0 26 12 26 26v26c0 124 91 183 183 183c35 0 71 -8 101 -25c12 -6 15 -19 10 -31l-29 -57c-3 -6 -12 -8 -18 -4c-19 11 -41 17 -61 17z" />
    <glyph glyph-name="g" unicode="g" horiz-adv-x="640" 
d="M530 532c19 0 35 -16 35 -35v-445c0 -153 -109 -249 -276 -249c-71 0 -134 19 -191 51c-17 10 -23 30 -13 47l16 28c8 14 29 17 42 9c43 -26 87 -40 141 -40c101 0 167 59 167 151v34c0 9 -15 12 -21 5c-37 -40 -89 -62 -155 -62c-144 0 -240 104 -240 257
c0 150 95 252 236 253c68 1 121 -21 158 -62c7 -7 22 -3 22 6v17c0 19 16 35 35 35h44zM298 116c90 0 153 68 153 164s-63 163 -153 163c-91 0 -154 -68 -155 -163c1 -96 63 -164 155 -164z" />
    <glyph glyph-name="h" unicode="h" horiz-adv-x="669" 
d="M402 536c124 0 198 -78 198 -205v-296c0 -19 -16 -35 -35 -35h-45c-19 0 -35 16 -35 35v264c0 80 -48 129 -128 129c-95 -1 -152 -72 -152 -166v-227c0 -19 -16 -35 -35 -35h-45c-19 0 -35 16 -35 35v672c0 19 16 35 35 35h45c19 0 35 -16 35 -35v-237
c0 -10 17 -14 23 -6c40 50 99 72 174 72z" />
    <glyph glyph-name="i" unicode="i" horiz-adv-x="284" 
d="M142 754c38 0 67 -29 67 -70c0 -40 -29 -69 -67 -69s-67 29 -67 69c0 41 29 70 67 70zM199 35c0 -19 -16 -35 -35 -35h-44c-19 0 -35 16 -35 35v462c0 19 16 35 35 35h44c19 0 35 -16 35 -35v-462z" />
    <glyph glyph-name="j" unicode="j" horiz-adv-x="287" 
d="M141 754c42 0 71 -29 71 -70c0 -40 -29 -70 -71 -70c-40 0 -70 30 -70 70c0 41 30 70 70 70zM163 532c19 0 35 -16 35 -35v-512c0 -126 -87 -184 -172 -184c-33 0 -66 9 -94 25c-10 6 -14 18 -9 29l25 59c2 6 10 9 15 5c19 -11 39 -17 58 -17c35 0 63 21 63 72v523
c0 19 16 35 35 35h44z" />
    <glyph glyph-name="k" unicode="k" horiz-adv-x="595" 
d="M319 206c-13 20 -38 23 -55 6l-49 -53c-4 -4 -10 -19 -10 -24v-100c0 -19 -16 -35 -35 -35h-45c-19 0 -35 16 -35 35v672c0 19 16 35 35 35h45c19 0 35 -16 35 -35v-328c0 -33 37 -48 60 -24l165 167c4 4 19 10 25 10h51c26 0 39 -29 20 -48l-132 -138
c-10 -11 -12 -31 -4 -43l162 -249c16 -25 0 -54 -30 -54h-52c-9 0 -25 9 -29 16z" />
    <glyph glyph-name="l" unicode="l" horiz-adv-x="295" 
d="M205 35c0 -19 -16 -35 -35 -35h-45c-19 0 -35 16 -35 35v672c0 19 16 35 35 35h45c19 0 35 -16 35 -35v-672z" />
    <glyph glyph-name="m" unicode="m" horiz-adv-x="1043" 
d="M779 536c122 0 195 -78 195 -205v-296c0 -19 -16 -35 -35 -35h-45c-19 0 -35 16 -35 35v264c0 81 -48 130 -126 130c-91 -3 -146 -73 -146 -166v-228c0 -19 -16 -35 -35 -35h-45c-19 0 -35 16 -35 35v264c0 81 -47 130 -125 130c-92 -3 -148 -73 -148 -166v-228
c0 -19 -16 -35 -35 -35h-44c-19 0 -35 16 -35 35v462c0 19 16 35 35 35h44c19 0 35 -16 35 -35v-26c0 -10 16 -14 22 -7c39 50 98 72 171 72c78 0 136 -32 168 -89c6 -10 29 -13 35 -2c38 63 102 91 184 91z" />
    <glyph glyph-name="n" unicode="n" horiz-adv-x="663" 
d="M351 428c-91 -1 -140 -62 -151 -147v-246c0 -19 -16 -35 -35 -35h-45c-19 0 -35 16 -35 35v462c0 19 16 35 35 35h45c19 0 35 -16 35 -35v-25c0 -10 16 -15 23 -7c39 49 99 71 173 71c124 0 198 -78 198 -205v-296c0 -19 -16 -35 -35 -35h-45c-19 0 -35 16 -35 35v264
c0 80 -48 129 -128 129z" />
    <glyph glyph-name="o" unicode="o" horiz-adv-x="625" 
d="M313 536c164 0 277 -109 277 -270c0 -160 -113 -270 -277 -270c-165 0 -278 110 -278 270c0 161 113 270 278 270zM313 437c-96 0 -163 -70 -163 -172c0 -103 67 -173 163 -173c95 0 162 70 162 173c0 102 -67 172 -162 172z" />
    <glyph glyph-name="p" unicode="p" horiz-adv-x="680" 
d="M391 536c151 0 254 -110 254 -272c0 -159 -100 -268 -252 -268c-70 0 -126 23 -165 66c-7 8 -23 4 -23 -7v-214c0 -19 -16 -35 -35 -35h-45c-19 0 -35 16 -35 35v656c0 19 16 35 35 35h45c19 0 35 -16 35 -35v-20c0 -11 16 -15 23 -7c39 43 95 66 163 66zM367 94
c95 0 162 72 162 174c0 99 -67 172 -162 172s-162 -72 -162 -172c0 -103 67 -174 162 -174z" />
    <glyph glyph-name="q" unicode="q" horiz-adv-x="682" 
d="M557 532c19 0 35 -16 35 -35v-656c0 -19 -16 -35 -35 -35h-45c-19 0 -35 16 -35 35v214c0 10 -16 13 -22 6c-39 -43 -95 -66 -165 -66c-153 0 -255 111 -255 273c0 160 103 269 253 269c71 0 127 -24 166 -67c7 -7 23 -4 23 7v20c0 19 16 35 35 35h45zM314 91
c96 0 163 72 163 173c0 103 -67 175 -163 175s-163 -73 -164 -175c1 -101 67 -173 164 -173z" />
    <glyph glyph-name="r" unicode="r" horiz-adv-x="394" 
d="M165 532c19 0 35 -16 35 -35v-31c0 -9 16 -13 21 -5c31 40 74 65 127 72c21 4 36 -10 36 -32v-38c0 -17 -21 -36 -38 -38c-87 -9 -137 -67 -146 -149v-241c0 -19 -16 -35 -35 -35h-45c-19 0 -35 16 -35 35v462c0 19 16 35 35 35h45z" />
    <glyph glyph-name="s" unicode="s" horiz-adv-x="470" 
d="M244 537c57 0 117 -14 163 -40c16 -8 18 -24 10 -40l-17 -34c-6 -13 -25 -17 -38 -11c-41 21 -88 33 -127 33c-45 0 -78 -15 -78 -53c0 -98 283 -45 282 -238c0 -109 -97 -158 -204 -158c-68 0 -140 20 -193 57c-13 10 -16 26 -9 41l15 30c7 14 24 19 36 11
c46 -31 107 -49 156 -49s87 17 87 57c0 109 -280 48 -279 240c0 108 94 154 196 154z" />
    <glyph glyph-name="t" unicode="t" horiz-adv-x="407" 
d="M342 115c9 4 18 -1 20 -9l16 -49c5 -14 -1 -29 -14 -35c-35 -17 -72 -27 -109 -27c-80 0 -149 46 -149 155v241c0 19 -16 35 -35 35h-5c-19 0 -35 16 -35 35v16c0 19 16 35 35 35h5c19 0 35 16 35 35v76c0 19 16 35 35 35h44c19 0 35 -16 35 -35v-76c0 -19 16 -35 35 -35
h87c19 0 35 -16 35 -35v-16c0 -19 -16 -35 -35 -35h-87c-19 0 -35 -16 -35 -35v-220c0 -55 21 -72 57 -72c20 0 41 6 65 16z" />
    <glyph glyph-name="u" unicode="u" horiz-adv-x="653" 
d="M533 532c19 0 35 -16 35 -35v-462c0 -19 -16 -35 -35 -35h-45c-19 0 -35 16 -35 35v28c0 9 -16 13 -22 6c-38 -50 -96 -72 -168 -73c-122 0 -195 78 -195 205v296c0 19 16 35 35 35h45c19 0 35 -16 35 -35v-264c0 -80 47 -129 124 -129c92 2 146 73 146 166v227
c0 19 16 35 35 35h45z" />
    <glyph glyph-name="v" unicode="v" horiz-adv-x="525" 
d="M335 22c-5 -11 -21 -22 -33 -22h-71c-12 0 -28 11 -33 22l-179 462c-9 25 7 48 33 48h44c13 0 29 -11 33 -23l107 -302c11 -32 55 -32 66 0l105 302c4 12 20 23 33 23h39c26 0 42 -23 33 -48z" />
    <glyph glyph-name="w" unicode="w" horiz-adv-x="893" 
d="M712 23c-4 -12 -20 -23 -32 -23h-70c-13 0 -29 11 -33 24l-94 273c-11 33 -55 33 -66 0l-94 -273c-4 -13 -20 -24 -33 -24h-69c-12 0 -28 11 -32 23l-171 462c-9 24 7 47 33 47h43c13 0 29 -11 33 -24l96 -292c11 -33 56 -33 67 0l93 292c4 12 20 24 34 24h68
c13 0 29 -12 33 -24l94 -291c11 -34 56 -34 66 0l95 291c4 13 20 24 33 24h42c26 0 42 -23 33 -47z" />
    <glyph glyph-name="x" unicode="x" horiz-adv-x="554" 
d="M249 394c15 -22 43 -22 58 0l82 122c4 8 20 16 29 16h44c29 0 44 -28 28 -53l-123 -187c-7 -9 -7 -28 0 -38l133 -200c17 -24 1 -54 -29 -54h-47c-9 0 -25 9 -29 16l-89 135c-14 23 -43 23 -58 1l-96 -137c-4 -7 -20 -15 -28 -15h-46c-29 0 -44 29 -28 53l138 200
c7 10 8 30 1 40l-125 184c-17 25 -1 55 29 55h47c9 0 25 -9 29 -16z" />
    <glyph glyph-name="y" unicode="y" horiz-adv-x="531" 
d="M484 532c27 0 43 -23 33 -48l-223 -557c-33 -84 -93 -126 -173 -126c-40 0 -72 10 -103 30c-13 8 -16 23 -8 36l30 55c3 6 13 8 20 4c19 -12 36 -17 56 -17c35 0 63 19 81 59l12 26c2 6 2 22 0 28l-194 461c-10 25 6 49 33 49h42c12 0 28 -11 33 -22l116 -296
c13 -31 54 -30 66 1l108 294c4 12 20 23 32 23h39z" />
    <glyph glyph-name="z" unicode="z" horiz-adv-x="537" 
d="M491 467c0 -5 -5 -19 -8 -23l-248 -293c-20 -24 -5 -57 27 -57l203 -1c19 0 35 -16 35 -35v-24c0 -19 -16 -35 -35 -35l-385 1c-19 0 -35 16 -35 35v30c0 5 5 19 8 23l247 292c21 25 5 58 -26 58h-185c-19 0 -35 16 -35 35v24c0 19 16 35 35 35l367 -1
c19 0 35 -16 35 -35v-29z" />
    <glyph glyph-name="braceleft" unicode="{" horiz-adv-x="329" 
d="M214 580v-164c0 -53 -13 -83 -46 -99c-5 -3 -5 -15 0 -17c33 -16 46 -46 46 -99v-164c0 -41 16 -63 62 -69c16 -2 33 -20 33 -37v-36c0 -11 -10 -21 -21 -21h-22c-112 0 -156 35 -156 128v206c0 38 -13 53 -43 53h-15c-9 0 -16 7 -16 16v64c0 8 7 15 16 15h15
c30 0 43 15 43 53v207c0 92 44 127 156 127h22c11 0 21 -10 21 -21v-36c0 -17 -17 -35 -33 -37c-46 -6 -62 -28 -62 -69z" />
    <glyph glyph-name="bar" unicode="|" horiz-adv-x="269" 
d="M178 -81c0 -19 -16 -35 -35 -35h-17c-19 0 -35 16 -35 35v856c0 19 16 35 35 35h17c19 0 35 -16 35 -35v-856z" />
    <glyph glyph-name="braceright" unicode="}" horiz-adv-x="402" 
d="M387 356c8 0 15 -7 15 -15v-64c0 -9 -7 -16 -15 -16h-16c-30 0 -43 -15 -43 -53v-206c0 -93 -44 -128 -156 -128h-21c-12 0 -22 10 -22 21v36c0 17 17 35 33 37c46 6 62 28 62 69v164c0 53 13 83 46 99c5 3 5 15 0 17c-33 16 -46 46 -46 99v164c0 41 -16 63 -62 69
c-16 2 -33 20 -33 37v36c0 11 10 21 22 21h21c112 0 156 -35 156 -127v-207c0 -38 13 -53 43 -53h16z" />
    <glyph glyph-name="asciitilde" unicode="~" horiz-adv-x="498" 
d="M163 395c64 0 111 -57 152 -57c21 0 34 12 38 34c1 8 10 16 18 16h27c21 0 36 -12 33 -33c-7 -71 -39 -107 -95 -107c-68 0 -110 57 -151 57c-22 0 -34 -12 -38 -34c-1 -8 -10 -16 -17 -16h-29c-21 0 -36 12 -33 33c7 71 39 107 95 107z" />
    <glyph glyph-name="nbspace" unicode="&#xa0;" horiz-adv-x="258" 
 />
    <glyph glyph-name="exclamdown" unicode="&#xa1;" horiz-adv-x="209" 
d="M117 408c-36 0 -63 27 -63 65c0 39 27 67 63 67s63 -28 63 -67c0 -38 -27 -65 -63 -65zM63 13l16 262c1 18 17 33 35 33h7c18 0 34 -15 35 -33l16 -262v-138c0 -19 -16 -35 -35 -35h-39c-19 0 -35 16 -35 35v138z" />
    <glyph glyph-name="cent" unicode="&#xa2;" horiz-adv-x="564" 
d="M449 142c8 8 24 9 32 1l26 -26c14 -14 16 -31 2 -45c-34 -35 -79 -58 -134 -69c-15 -4 -29 -21 -29 -36v-74c0 -19 -16 -35 -35 -35h-17c-19 0 -35 16 -35 35v75c0 15 -15 33 -29 36c-118 29 -195 127 -195 261c0 135 77 233 195 262c14 4 29 22 29 36v86
c0 19 16 35 35 35h17c19 0 35 -16 35 -35v-83c0 -16 18 -34 33 -37c50 -10 92 -31 124 -60c14 -13 13 -29 0 -43l-29 -35c-7 -8 -22 -8 -30 -1c-12 9 -98 67 -98 20v-287c0 -15 11 -24 25 -20c31 7 56 20 78 39zM150 265c0 -68 29 -121 77 -149c18 -11 32 -1 32 20v258
c0 21 -14 31 -32 20c-48 -28 -77 -81 -77 -149z" />
    <glyph glyph-name="sterling" unicode="&#xa3;" horiz-adv-x="547" 
d="M238 131c0 -19 16 -35 35 -35h210c19 0 35 -16 35 -35v-26c0 -19 -16 -35 -35 -35h-411c-19 0 -35 16 -35 35v26c0 19 16 35 35 35h13c19 0 35 16 35 35v132c0 19 -16 35 -35 35h-13c-19 0 -35 16 -35 35v14c0 19 16 35 35 35h13c19 0 35 16 35 35v66
c0 142 77 222 213 222c68 0 133 -26 182 -73c10 -10 11 -26 5 -38l-21 -42c-7 -14 -26 -15 -38 -5c-36 34 -76 52 -116 52c-69 0 -107 -40 -107 -119v-63c0 -19 16 -35 35 -35h106c19 0 35 -16 35 -35v-14c0 -19 -16 -35 -35 -35h-106c-19 0 -35 -16 -35 -35v-132z" />
    <glyph glyph-name="currency" unicode="&#xa4;" horiz-adv-x="711" 
d="M625 319c0 -47 -13 -91 -35 -129c-7 -11 -6 -33 3 -42l59 -59c13 -13 14 -35 1 -49l-17 -18c-14 -14 -36 -15 -50 -1l-63 62c-8 8 -31 10 -41 4c-38 -19 -82 -30 -127 -30s-88 11 -126 30c-11 6 -33 5 -41 -4l-63 -62c-14 -14 -36 -13 -50 1l-17 18c-13 14 -12 36 1 49
l59 59c9 9 10 31 4 42c-22 39 -35 83 -35 129s12 90 33 128c6 11 5 33 -4 42l-57 57c-13 13 -14 35 -1 49l17 18c14 14 36 15 50 1l59 -59c9 -9 32 -11 43 -4c38 20 82 32 128 32c47 0 91 -12 129 -32c11 -6 34 -4 43 5l59 58c14 14 36 13 50 -1l17 -18
c13 -14 12 -36 -1 -49l-57 -57c-9 -9 -10 -31 -4 -42c22 -38 34 -82 34 -128zM355 155c99 0 179 74 179 164c0 92 -80 167 -179 167c-97 0 -176 -75 -176 -167c0 -90 79 -164 176 -164z" />
    <glyph glyph-name="yen" unicode="&#xa5;" horiz-adv-x="628" 
d="M457 374c-14 -25 2 -52 30 -52h63c14 0 25 -11 25 -25s-11 -25 -25 -25h-128c-10 0 -26 -9 -31 -18l-7 -12c-1 -2 -4 -15 -4 -17v-13c0 -13 10 -23 23 -23h147c14 0 25 -11 25 -25s-11 -25 -25 -25h-135c-19 0 -35 -16 -35 -35v-69c0 -19 -16 -35 -35 -35h-48
c-19 0 -35 16 -35 35v69c0 19 -16 35 -35 35h-127c-14 0 -25 11 -25 25s11 25 25 25h142c11 0 20 9 20 20v11c0 2 -3 15 -4 17l-10 17c-5 9 -21 18 -31 18h-117c-14 0 -25 11 -25 25s11 25 25 25h52c28 0 44 27 30 52l-152 274c-14 25 2 52 30 52h40c9 0 25 -9 30 -17
l160 -272c14 -25 46 -25 60 0l156 271c5 9 21 18 30 18h41c28 0 44 -27 30 -52z" />
    <glyph glyph-name="brokenbar" unicode="&#xa6;" horiz-adv-x="269" 
d="M178 499c0 -19 -16 -35 -35 -35h-17c-19 0 -35 16 -35 35v276c0 19 16 35 35 35h17c19 0 35 -16 35 -35v-276zM178 -81c0 -19 -16 -35 -35 -35h-17c-19 0 -35 16 -35 35v276c0 19 16 35 35 35h17c19 0 35 -16 35 -35v-276z" />
    <glyph glyph-name="section" unicode="&#xa7;" horiz-adv-x="499" 
d="M259 694c55 0 110 -12 162 -38c17 -9 21 -27 13 -44l-8 -17c-7 -14 -28 -20 -42 -13c-44 21 -87 31 -124 31c-59 0 -97 -24 -97 -59c0 -113 305 -62 305 -248c0 -48 -33 -92 -78 -116c-8 -5 -10 -22 -1 -27c40 -23 58 -52 58 -100c0 -86 -82 -148 -205 -148
c-71 0 -141 21 -198 59c-13 9 -18 27 -11 42l7 16c8 16 31 21 47 11c49 -30 102 -46 152 -46c62 0 105 28 105 63c0 112 -302 65 -302 247c0 52 32 92 85 115c11 4 11 23 2 28c-49 27 -66 56 -66 100c0 84 77 144 196 144zM242 376c-64 0 -100 -24 -100 -61
c0 -47 56 -80 127 -80c64 0 97 27 97 64c0 46 -52 77 -124 77z" />
    <glyph glyph-name="dieresis" unicode="&#xa8;" horiz-adv-x="388" 
d="M87 753c35 0 60 -27 60 -64c0 -36 -25 -63 -60 -63s-61 27 -61 63c0 37 26 64 61 64zM264 753c35 0 60 -27 60 -64c0 -36 -25 -63 -60 -63s-61 27 -61 63c0 37 26 64 61 64z" />
    <glyph glyph-name="copyright" unicode="&#xa9;" horiz-adv-x="745" 
d="M373 689c190 0 338 -153 338 -339c0 -185 -149 -341 -340 -341c-190 0 -337 154 -337 339s148 341 339 341zM373 629c-160 0 -282 -128 -282 -281s121 -279 280 -279c160 0 283 128 283 281s-122 279 -281 279zM378 520c40 0 80 -14 112 -37c12 -9 13 -23 4 -34l-8 -10
c-6 -7 -19 -7 -26 -1c-24 18 -52 29 -81 29c-68 0 -121 -52 -121 -117c0 -66 53 -119 121 -119c27 0 56 10 81 28c6 5 20 5 26 -1l7 -8c10 -11 9 -26 -4 -35c-32 -24 -73 -39 -113 -39c-100 0 -178 75 -178 173c0 97 79 171 180 171z" />
    <glyph glyph-name="ordfeminine" unicode="&#xaa;" horiz-adv-x="385" 
d="M198 777c87 0 137 -42 137 -113v-171c0 -19 -16 -35 -35 -35h-19c-14 0 -25 11 -25 25v3c0 7 -10 10 -14 5c-25 -24 -59 -36 -101 -36c-67 0 -108 39 -108 95c0 58 45 90 125 91h90c4 0 7 3 7 7v7c0 37 -25 59 -76 59c-27 0 -56 -7 -87 -21c-10 -4 -23 1 -27 11l-4 11
c-5 15 2 30 16 36c40 16 81 26 121 26zM168 509c36 0 64 13 83 42c1 2 4 13 4 16v12c0 12 -9 21 -21 21h-60c-41 0 -65 -15 -65 -43c0 -29 23 -48 59 -48z" />
    <glyph glyph-name="guillemotleft" unicode="&#xab;" horiz-adv-x="456" 
d="M139 278c-5 -9 -5 -27 0 -36l71 -115c12 -19 0 -41 -23 -41h-29c-9 0 -25 8 -29 16l-93 139c-7 9 -7 29 0 38l93 139c4 8 20 16 29 16h29c23 0 35 -22 23 -41zM319 278c-5 -9 -5 -27 0 -36l71 -115c12 -19 0 -41 -23 -41h-29c-9 0 -25 8 -29 16l-93 139c-7 9 -7 29 0 38
l93 139c4 8 20 16 29 16h29c23 0 35 -22 23 -41z" />
    <glyph glyph-name="logicalnot" unicode="&#xac;" horiz-adv-x="562" 
d="M451 404c19 0 35 -16 35 -35v-189c0 -19 -16 -35 -35 -35h-14c-19 0 -35 16 -35 35v110c0 19 -16 35 -35 35h-297c-19 0 -35 16 -35 35v9c0 19 16 35 35 35h381z" />
    <glyph glyph-name="softhyphen" unicode="&#xad;" horiz-adv-x="368" 
d="M307 300c0 -19 -16 -35 -35 -35h-176c-19 0 -35 16 -35 35v9c0 19 16 35 35 35h176c19 0 35 -16 35 -35v-9z" />
    <glyph glyph-name="registered" unicode="&#xae;" horiz-adv-x="745" 
d="M373 689c190 0 338 -153 338 -339c0 -185 -149 -341 -340 -341c-190 0 -337 154 -337 339s148 341 339 341zM371 69c160 0 283 128 283 281s-122 279 -281 279c-160 0 -282 -128 -282 -281s121 -279 280 -279zM517 412c0 -44 -17 -77 -49 -98c-9 -6 -14 -22 -8 -31
l45 -66c9 -12 1 -27 -14 -27h-13c-10 0 -25 9 -30 17l-49 79c-2 3 -8 6 -11 6h-52c-19 0 -35 -16 -35 -35v-38c0 -16 -13 -29 -28 -29c-16 0 -29 13 -29 29v274c0 19 16 35 35 35h101c88 0 137 -42 137 -116zM301 375c0 -19 16 -35 35 -35h44c52 0 83 26 83 71
s-31 69 -83 69h-44c-19 0 -35 -16 -35 -35v-70z" />
    <glyph glyph-name="macron" unicode="&#xaf;" 
d="M303 676c0 -19 -16 -35 -35 -35h-185c-19 0 -35 16 -35 35v13c0 19 16 35 35 35h185c19 0 35 -16 35 -35v-13z" />
    <glyph glyph-name="degree" unicode="&#xb0;" horiz-adv-x="346" 
d="M197 810c64 0 116 -52 116 -115s-52 -115 -116 -115c-63 0 -116 52 -116 115s52 115 116 115zM197 759c-37 0 -67 -30 -67 -64s30 -63 67 -63s67 29 67 63s-30 64 -67 64z" />
    <glyph glyph-name="plusminus" unicode="&#xb1;" horiz-adv-x="498" 
d="M428 430c19 0 35 -16 35 -35v-8c0 -19 -16 -35 -35 -35h-106c-19 0 -35 -16 -35 -35v-101c0 -19 -16 -35 -35 -35h-5c-19 0 -35 16 -35 35v101c0 19 -16 35 -35 35h-107c-19 0 -35 16 -35 35v8c0 19 16 35 35 35h107c19 0 35 16 35 35v101c0 19 16 35 35 35h5
c19 0 35 -16 35 -35v-101c0 -19 16 -35 35 -35h106zM35 65c0 19 16 35 35 35h358c19 0 35 -16 35 -35v-10c0 -19 -16 -35 -35 -35h-358c-19 0 -35 16 -35 35v10z" />
    <glyph glyph-name="twosuperior" unicode="&#xb2;" horiz-adv-x="383" 
d="M191 703c82 0 139 -41 139 -105c0 -43 -32 -90 -80 -136l-54 -54c-21 -22 -7 -55 23 -55h96c18 0 33 -15 33 -33s-15 -33 -33 -33h-250c-15 0 -28 13 -28 28v14c0 5 6 20 10 24l147 151c29 28 49 60 49 82c0 30 -24 47 -65 47c-30 0 -65 -14 -97 -36c-10 -7 -26 -5 -31 6
l-8 14c-8 16 -3 35 12 44c43 26 89 42 137 42z" />
    <glyph glyph-name="threesuperior" unicode="&#xb3;" horiz-adv-x="355" 
d="M189 537c-4 -3 -2 -9 3 -9l11 -1c69 -7 117 -47 117 -112c0 -77 -62 -132 -159 -132c-47 0 -96 14 -132 34c-12 7 -14 20 -7 32l14 27c5 9 19 10 27 4c27 -21 59 -33 92 -33c52 0 83 26 83 67s-31 62 -84 62h-39c-13 0 -23 10 -23 23v9c0 5 6 20 10 24l46 47
c22 22 8 57 -24 57h-62c-17 0 -31 14 -31 31s14 31 31 31h214c13 0 24 -11 24 -24v-11c0 -5 -6 -20 -10 -24z" />
    <glyph glyph-name="acute" unicode="&#xb4;" 
d="M232 729c26 -11 31 -42 8 -60l-66 -53c-4 -3 -18 -8 -22 -8h-39c-23 0 -35 23 -21 41l60 84c8 12 28 18 42 12z" />
    <glyph glyph-name="mu" unicode="&#xb5;" horiz-adv-x="675" 
d="M555 532c19 0 35 -16 35 -35v-462c0 -19 -16 -35 -35 -35h-45c-19 0 -35 16 -35 35v28c0 9 -16 13 -22 6c-38 -50 -96 -72 -168 -73c-25 0 -47 3 -68 9c-6 2 -12 -2 -12 -9v-155c0 -19 -16 -35 -35 -35h-45c-19 0 -35 16 -35 35v656c0 19 16 35 35 35h45
c19 0 35 -16 35 -35v-264c0 -80 47 -129 124 -129c92 2 146 73 146 166v227c0 19 16 35 35 35h45z" />
    <glyph glyph-name="paragraph" unicode="&#xb6;" horiz-adv-x="615" 
d="M523 -74c0 -19 -16 -35 -35 -35h-18c-19 0 -35 16 -35 35v709c0 19 -16 35 -35 35h-61c-19 0 -35 -16 -35 -35v-709c0 -19 -16 -35 -35 -35h-17c-19 0 -35 16 -35 35v415c0 8 -7 15 -15 15h-16c-149 0 -187 115 -187 189c0 100 63 197 225 197h264c19 0 35 -16 35 -35
v-781z" />
    <glyph glyph-name="periodcentered" unicode="&#xb7;" horiz-adv-x="212" 
d="M106 350c34 0 60 -26 60 -63c0 -36 -26 -63 -60 -63s-60 27 -60 63c0 37 26 63 60 63z" />
    <glyph glyph-name="cedilla" unicode="&#xb8;" 
d="M197 11c17 0 27 -15 20 -31l-6 -11c-4 -8 3 -21 12 -25c30 -12 49 -37 49 -73c0 -58 -47 -95 -106 -95c-27 0 -54 7 -75 20c-8 4 -11 13 -8 21l13 31c2 5 9 6 13 4c15 -9 33 -14 49 -14c29 0 46 21 46 41c0 19 -15 38 -48 38c-10 0 -21 -2 -31 -4c-2 0 -3 2 -2 4l31 73
c5 11 20 21 32 21h11z" />
    <glyph glyph-name="onesuperior" unicode="&#xb9;" horiz-adv-x="262" 
d="M134 287c-19 0 -35 16 -35 35v274c0 19 -16 35 -35 35h-13c-20 0 -35 15 -35 35c0 19 15 34 35 34h97c19 0 35 -16 35 -35v-343c0 -19 -16 -35 -35 -35h-14z" />
    <glyph glyph-name="ordmasculine" unicode="&#xba;" horiz-adv-x="407" 
d="M203 776c103 0 174 -64 174 -160s-71 -160 -174 -160s-173 64 -173 160s70 160 173 160zM203 710c-54 0 -92 -38 -92 -95s38 -95 92 -95s91 38 91 95s-37 95 -91 95z" />
    <glyph glyph-name="guillemotright" unicode="&#xbb;" horiz-adv-x="468" 
d="M172 243c5 9 5 27 0 36l-71 115c-12 19 0 41 23 41h29c9 0 25 -8 29 -16l93 -139c7 -9 7 -29 0 -38l-93 -139c-4 -8 -20 -16 -29 -16h-29c-23 0 -35 22 -23 41zM352 243c5 9 5 27 0 36l-71 115c-12 19 0 41 23 41h29c9 0 25 -8 29 -16l93 -139c7 -9 7 -29 0 -38l-93 -139
c-4 -8 -20 -16 -29 -16h-29c-23 0 -35 22 -23 41z" />
    <glyph glyph-name="onequarter" unicode="&#xbc;" horiz-adv-x="817" 
d="M134 287c-19 0 -35 16 -35 35v274c0 19 -16 35 -35 35h-13c-20 0 -35 15 -35 35c0 19 15 34 35 34h97c19 0 35 -16 35 -35v-343c0 -19 -16 -35 -35 -35h-14zM106 0c-25 0 -38 25 -23 45l472 641c4 6 20 14 28 14h37c24 0 37 -25 22 -44l-471 -642c-4 -6 -20 -14 -28 -14
h-37zM620 159c19 0 35 16 35 35v32c0 19 16 35 35 35h9c19 0 35 -16 35 -35v-36c0 -17 14 -31 31 -31c16 0 30 -14 30 -30v-1c0 -17 -14 -31 -30 -31c-17 0 -31 -14 -31 -30v-32c0 -19 -16 -35 -35 -35h-9c-19 0 -35 16 -35 35v27c0 19 -16 35 -35 35h-139
c-17 0 -30 13 -30 30v20c0 2 3 15 4 17l129 231c5 9 21 18 31 18h19c19 0 30 -18 21 -35l-92 -167c-13 -25 2 -52 31 -52h26z" />
    <glyph glyph-name="onehalf" unicode="&#xbd;" horiz-adv-x="839" 
d="M134 287c-19 0 -35 16 -35 35v274c0 19 -16 35 -35 35h-13c-20 0 -35 15 -35 35c0 19 15 34 35 34h97c19 0 35 -16 35 -35v-343c0 -19 -16 -35 -35 -35h-14zM106 0c-25 0 -38 25 -23 45l472 641c4 6 20 14 28 14h37c24 0 37 -25 22 -44l-471 -642c-4 -6 -20 -14 -28 -14
h-37zM647 416c82 0 139 -41 139 -105c0 -43 -32 -90 -80 -136l-54 -54c-21 -21 -7 -54 22 -54h97c18 0 33 -15 33 -33c0 -19 -15 -34 -33 -34h-249c-16 0 -29 13 -29 29v14c0 5 6 20 10 24l147 150c29 29 49 61 49 83c0 29 -24 47 -65 47c-30 0 -65 -14 -97 -36
c-10 -7 -26 -5 -32 6l-7 13c-8 16 -6 32 9 42c43 28 91 44 140 44z" />
    <glyph glyph-name="threequarters" unicode="&#xbe;" horiz-adv-x="878" 
d="M168 0c-25 0 -38 25 -23 45l472 641c4 6 20 14 28 14h37c24 0 37 -25 22 -44l-471 -642c-4 -6 -20 -14 -28 -14h-37zM189 537c-4 -3 -2 -9 3 -9l11 -1c69 -7 117 -47 117 -112c0 -77 -62 -132 -159 -132c-47 0 -96 14 -132 34c-12 7 -14 20 -7 32l14 27c5 9 19 10 27 4
c27 -21 59 -33 92 -33c52 0 83 26 83 67s-31 62 -84 62h-39c-13 0 -23 10 -23 23v9c0 5 6 20 10 24l46 47c22 22 8 57 -24 57h-62c-17 0 -31 14 -31 31s14 31 31 31h214c13 0 24 -11 24 -24v-11c0 -5 -6 -20 -10 -24zM682 159c19 0 35 16 35 35v32c0 19 16 35 35 35h9
c19 0 35 -16 35 -35v-36c0 -17 14 -31 31 -31c16 0 30 -14 30 -30v-1c0 -17 -14 -31 -30 -31c-17 0 -31 -14 -31 -30v-32c0 -19 -16 -35 -35 -35h-9c-19 0 -35 16 -35 35v27c0 19 -16 35 -35 35h-139c-17 0 -30 13 -30 30v20c0 2 3 15 4 17l129 231c5 9 21 18 31 18h19
c19 0 30 -18 21 -35l-92 -167c-13 -25 2 -52 31 -52h26z" />
    <glyph glyph-name="questiondown" unicode="&#xbf;" horiz-adv-x="443" 
d="M234 408c-36 0 -63 27 -63 65c0 39 27 67 63 67s63 -28 63 -67c0 -38 -27 -65 -63 -65zM343 3c4 14 24 33 39 33l20 -1c22 0 36 -14 33 -36c-17 -104 -92 -163 -204 -163c-120 0 -200 58 -200 167c0 142 128 162 154 263c3 14 24 37 39 37h18c22 0 36 -12 33 -34
c-18 -128 -137 -137 -137 -248c0 -59 41 -87 103 -87c54 0 90 23 102 69z" />
    <glyph glyph-name="Agrave" unicode="&#xc0;" horiz-adv-x="738" 
d="M341 777c-4 0 -18 5 -22 8l-66 53c-23 18 -18 49 8 60l38 16c14 6 34 0 42 -12l60 -84c14 -18 2 -41 -21 -41h-39zM553 137c-5 11 -20 21 -32 21h-307c-12 0 -27 -10 -32 -21l-49 -116c-5 -11 -20 -21 -32 -21h-46c-27 0 -43 24 -32 49l278 630c4 11 20 21 32 21h75
c12 0 28 -10 32 -21l276 -630c10 -25 -5 -49 -32 -49h-50c-12 0 -27 10 -32 21zM446 263c27 0 43 24 32 49l-79 186c-13 30 -51 30 -64 0l-79 -186c-11 -25 5 -49 32 -49h158z" />
    <glyph glyph-name="Aacute" unicode="&#xc1;" horiz-adv-x="738" 
d="M414 784c-4 -3 -18 -8 -22 -8h-39c-23 0 -35 23 -21 41l60 84c8 12 28 18 42 12l38 -16c26 -11 31 -42 8 -60zM553 137c-5 11 -20 21 -32 21h-307c-12 0 -27 -10 -32 -21l-49 -116c-5 -11 -20 -21 -32 -21h-46c-27 0 -43 24 -32 49l278 630c4 11 20 21 32 21h75
c12 0 28 -10 32 -21l276 -630c10 -25 -5 -49 -32 -49h-50c-12 0 -27 10 -32 21zM446 263c27 0 43 24 32 49l-79 186c-13 30 -51 30 -64 0l-79 -186c-11 -25 5 -49 32 -49h158z" />
    <glyph glyph-name="Acircumflex" unicode="&#xc2;" horiz-adv-x="738" 
d="M317 794c-4 -7 -20 -15 -28 -15h-29c-21 0 -32 21 -19 38l65 89c4 6 20 14 28 14h70c8 0 24 -8 28 -14l65 -89c13 -17 2 -38 -19 -38h-29c-8 0 -24 8 -28 15l-23 32c-15 21 -43 21 -58 0zM553 137c-5 11 -20 21 -32 21h-307c-12 0 -27 -10 -32 -21l-49 -116
c-5 -11 -20 -21 -32 -21h-46c-27 0 -43 24 -32 49l278 630c4 11 20 21 32 21h75c12 0 28 -10 32 -21l276 -630c10 -25 -5 -49 -32 -49h-50c-12 0 -27 10 -32 21zM446 263c27 0 43 24 32 49l-79 186c-13 30 -51 30 -64 0l-79 -186c-11 -25 5 -49 32 -49h158z" />
    <glyph glyph-name="Atilde" unicode="&#xc3;" horiz-adv-x="738" 
d="M319 844c-20 0 -32 -12 -36 -33c-1 -8 -10 -16 -17 -16h-23c-22 0 -36 15 -33 36c8 63 39 95 90 95c55 0 85 -55 119 -55c21 0 33 12 37 33c1 8 10 16 17 16h22c22 0 36 -15 33 -36c-8 -63 -38 -95 -89 -95c-60 0 -85 55 -120 55zM553 137c-5 11 -20 21 -32 21h-307
c-12 0 -27 -10 -32 -21l-49 -116c-5 -11 -20 -21 -32 -21h-46c-27 0 -43 24 -32 49l278 630c4 11 20 21 32 21h75c12 0 28 -10 32 -21l276 -630c10 -25 -5 -49 -32 -49h-50c-12 0 -27 10 -32 21zM446 263c27 0 43 24 32 49l-79 186c-13 30 -51 30 -64 0l-79 -186
c-11 -25 5 -49 32 -49h158z" />
    <glyph glyph-name="Adieresis" unicode="&#xc4;" horiz-adv-x="738" 
d="M281 794c-35 0 -61 27 -61 63c0 37 26 64 61 64s60 -27 60 -64c0 -36 -25 -63 -60 -63zM458 794c-35 0 -61 27 -61 63c0 37 26 64 61 64s60 -27 60 -64c0 -36 -25 -63 -60 -63zM553 137c-5 11 -20 21 -32 21h-307c-12 0 -27 -10 -32 -21l-49 -116c-5 -11 -20 -21 -32 -21
h-46c-27 0 -43 24 -32 49l278 630c4 11 20 21 32 21h75c12 0 28 -10 32 -21l276 -630c10 -25 -5 -49 -32 -49h-50c-12 0 -27 10 -32 21zM446 263c27 0 43 24 32 49l-79 186c-13 30 -51 30 -64 0l-79 -186c-11 -25 5 -49 32 -49h158z" />
    <glyph glyph-name="Aring" unicode="&#xc5;" horiz-adv-x="738" 
d="M553 137c-5 11 -20 21 -32 21h-307c-12 0 -27 -10 -32 -21l-49 -116c-5 -11 -20 -21 -32 -21h-46c-27 0 -43 24 -32 49l269 610c4 7 -1 24 -7 30c-22 22 -36 52 -36 85c0 67 55 122 122 122c68 0 123 -55 123 -122c0 -33 -14 -64 -37 -86c-6 -6 -11 -23 -7 -30l266 -609
c10 -25 -5 -49 -32 -49h-50c-12 0 -27 10 -32 21zM371 840c-38 0 -69 -30 -69 -66s31 -65 69 -65s70 29 70 65s-32 66 -70 66zM446 263c27 0 43 24 32 49l-79 186c-13 30 -51 30 -64 0l-79 -186c-11 -25 5 -49 32 -49h158z" />
    <glyph glyph-name="AE" unicode="&#xc6;" horiz-adv-x="1052" 
d="M964 106c19 0 35 -16 35 -35v-36c0 -19 -16 -35 -35 -35h-441c-19 0 -35 16 -35 35v103c0 19 -16 35 -35 35h-211c-9 0 -25 -9 -30 -18l-78 -137c-5 -9 -21 -18 -30 -18h-42c-29 0 -45 27 -31 53l366 630c5 8 21 17 30 17h525c19 0 35 -16 35 -35v-36
c0 -19 -16 -35 -35 -35h-312c-19 0 -35 -16 -35 -35v-120c0 -19 16 -35 35 -35h273c19 0 35 -16 35 -35v-35c0 -19 -16 -35 -35 -35h-273c-19 0 -35 -16 -35 -35v-123c0 -19 16 -35 35 -35h324zM453 265c19 0 35 16 35 35v290c0 7 -5 12 -12 12c-6 0 -15 -5 -18 -10
l-155 -275c-14 -25 2 -52 31 -52h119z" />
    <glyph glyph-name="Ccedilla" unicode="&#xc7;" horiz-adv-x="697" 
d="M452 0c-9 -2 -25 -13 -28 -21l-5 -10c-4 -8 3 -21 12 -25c30 -12 49 -37 49 -73c0 -58 -47 -95 -106 -95c-27 0 -54 7 -75 20c-8 4 -11 13 -8 21l13 31c2 5 9 6 13 4c15 -9 33 -14 49 -14c29 0 46 21 46 41c0 19 -15 38 -48 38c-10 0 -21 -2 -31 -4c-2 0 -3 2 -2 4l16 37
c9 20 -2 44 -24 48c-168 33 -289 173 -289 349c0 199 161 352 368 352c89 0 178 -33 245 -89c14 -12 13 -29 1 -44l-26 -32c-11 -14 -38 -13 -52 -2c-47 39 -107 62 -166 62c-140 0 -250 -108 -250 -246s110 -247 250 -247c58 0 117 22 166 58c14 11 41 11 53 -2l24 -26
c13 -15 13 -34 -3 -47c-54 -46 -122 -77 -192 -88z" />
    <glyph glyph-name="Egrave" unicode="&#xc8;" horiz-adv-x="656" 
d="M376 818c14 -18 2 -41 -21 -41h-39c-4 0 -18 5 -22 8l-66 53c-23 18 -18 49 8 60l38 16c14 6 34 0 42 -12zM592 629c0 -19 -16 -35 -35 -35h-312c-19 0 -35 -16 -35 -35v-119c0 -19 16 -35 35 -35h272c19 0 35 -16 35 -35v-36c0 -19 -16 -35 -35 -35h-272
c-19 0 -35 -16 -35 -35v-123c0 -19 16 -35 35 -35h324c19 0 35 -16 35 -35v-36c0 -19 -16 -35 -35 -35h-442c-19 0 -35 16 -35 35v630c0 19 16 35 35 35h430c19 0 35 -16 35 -35v-36z" />
    <glyph glyph-name="Eacute" unicode="&#xc9;" horiz-adv-x="656" 
d="M447 897c26 -11 31 -42 8 -60l-66 -53c-4 -3 -18 -8 -22 -8h-39c-23 0 -35 23 -21 41l60 84c8 12 28 18 42 12zM592 629c0 -19 -16 -35 -35 -35h-312c-19 0 -35 -16 -35 -35v-119c0 -19 16 -35 35 -35h272c19 0 35 -16 35 -35v-36c0 -19 -16 -35 -35 -35h-272
c-19 0 -35 -16 -35 -35v-123c0 -19 16 -35 35 -35h324c19 0 35 -16 35 -35v-36c0 -19 -16 -35 -35 -35h-442c-19 0 -35 16 -35 35v630c0 19 16 35 35 35h430c19 0 35 -16 35 -35v-36z" />
    <glyph glyph-name="Ecircumflex" unicode="&#xca;" horiz-adv-x="656" 
d="M472 817c13 -17 2 -38 -19 -38h-29c-8 0 -24 8 -28 15l-23 32c-15 21 -43 21 -58 0l-23 -32c-4 -7 -20 -15 -28 -15h-29c-21 0 -32 21 -19 38l65 89c4 6 20 14 28 14h70c8 0 24 -8 28 -14zM592 629c0 -19 -16 -35 -35 -35h-312c-19 0 -35 -16 -35 -35v-119
c0 -19 16 -35 35 -35h272c19 0 35 -16 35 -35v-36c0 -19 -16 -35 -35 -35h-272c-19 0 -35 -16 -35 -35v-123c0 -19 16 -35 35 -35h324c19 0 35 -16 35 -35v-36c0 -19 -16 -35 -35 -35h-442c-19 0 -35 16 -35 35v630c0 19 16 35 35 35h430c19 0 35 -16 35 -35v-36z" />
    <glyph glyph-name="Edieresis" unicode="&#xcb;" horiz-adv-x="656" 
d="M256 921c35 0 60 -27 60 -64c0 -36 -25 -63 -60 -63s-61 27 -61 63c0 37 26 64 61 64zM433 921c35 0 60 -27 60 -64c0 -36 -25 -63 -60 -63s-61 27 -61 63c0 37 26 64 61 64zM592 629c0 -19 -16 -35 -35 -35h-312c-19 0 -35 -16 -35 -35v-119c0 -19 16 -35 35 -35h272
c19 0 35 -16 35 -35v-36c0 -19 -16 -35 -35 -35h-272c-19 0 -35 -16 -35 -35v-123c0 -19 16 -35 35 -35h324c19 0 35 -16 35 -35v-36c0 -19 -16 -35 -35 -35h-442c-19 0 -35 16 -35 35v630c0 19 16 35 35 35h430c19 0 35 -16 35 -35v-36z" />
    <glyph glyph-name="Igrave" unicode="&#xcc;" horiz-adv-x="302" 
d="M182 818c14 -18 2 -41 -21 -41h-39c-4 0 -18 5 -22 8l-66 53c-23 18 -18 49 8 60l38 16c14 6 34 0 42 -12zM210 35c0 -19 -16 -35 -35 -35h-48c-19 0 -35 16 -35 35v630c0 19 16 35 35 35h48c19 0 35 -16 35 -35v-630z" />
    <glyph glyph-name="Iacute" unicode="&#xcd;" horiz-adv-x="302" 
d="M254 897c26 -11 31 -42 8 -60l-66 -53c-4 -3 -18 -8 -22 -8h-39c-23 0 -35 23 -21 41l60 84c8 12 28 18 42 12zM210 35c0 -19 -16 -35 -35 -35h-48c-19 0 -35 16 -35 35v630c0 19 16 35 35 35h48c19 0 35 -16 35 -35v-630z" />
    <glyph glyph-name="Icircumflex" unicode="&#xce;" horiz-adv-x="302" 
d="M279 817c13 -17 2 -38 -19 -38h-29c-8 0 -24 8 -28 15l-23 32c-15 21 -43 21 -58 0l-23 -32c-4 -7 -20 -15 -28 -15h-29c-21 0 -32 21 -19 38l65 89c4 6 20 14 28 14h70c8 0 24 -8 28 -14zM210 35c0 -19 -16 -35 -35 -35h-48c-19 0 -35 16 -35 35v630c0 19 16 35 35 35
h48c19 0 35 -16 35 -35v-630z" />
    <glyph glyph-name="Idieresis" unicode="&#xcf;" horiz-adv-x="302" 
d="M63 921c35 0 60 -27 60 -64c0 -36 -25 -63 -60 -63s-61 27 -61 63c0 37 26 64 61 64zM240 921c35 0 60 -27 60 -64c0 -36 -25 -63 -60 -63s-61 27 -61 63c0 37 26 64 61 64zM210 35c0 -19 -16 -35 -35 -35h-48c-19 0 -35 16 -35 35v630c0 19 16 35 35 35h48
c19 0 35 -16 35 -35v-630z" />
    <glyph glyph-name="Eth" unicode="&#xd0;" horiz-adv-x="795" 
d="M112 665c0 19 16 35 35 35h252c209 0 362 -147 362 -350c0 -202 -153 -350 -366 -350h-248c-19 0 -35 16 -35 35v247c0 19 -16 35 -35 35h-42c-20 0 -35 15 -35 35c0 19 15 34 35 34h42c19 0 35 16 35 35v244zM229 141c0 -19 16 -35 35 -35h138c136 0 239 101 239 243
c0 143 -106 245 -244 245h-133c-19 0 -35 -16 -35 -35v-138c0 -19 16 -35 35 -35h130c19 0 34 -15 34 -34c0 -20 -15 -35 -34 -35h-130c-19 0 -35 -16 -35 -35v-141z" />
    <glyph glyph-name="Ntilde" unicode="&#xd1;" horiz-adv-x="792" 
d="M327 926c55 0 85 -55 119 -55c21 0 33 12 37 33c1 8 10 16 17 16h22c22 0 36 -15 33 -36c-8 -63 -38 -95 -89 -95c-60 0 -85 55 -120 55c-20 0 -32 -12 -36 -33c-1 -8 -10 -16 -17 -16h-23c-22 0 -36 15 -33 36c8 63 39 95 90 95zM699 35c0 -19 -16 -35 -35 -35h-63
c-8 0 -24 8 -28 14l-300 403c-21 28 -63 14 -63 -21v-361c0 -19 -16 -35 -35 -35h-48c-19 0 -35 16 -35 35v630c0 19 16 35 35 35h63c8 0 24 -8 28 -14l302 -404c21 -28 63 -14 63 21v362c0 19 16 35 35 35h46c19 0 35 -16 35 -35v-630z" />
    <glyph glyph-name="Ograve" unicode="&#xd2;" horiz-adv-x="810" 
d="M432 818c14 -18 2 -41 -21 -41h-39c-4 0 -18 5 -22 8l-66 53c-23 18 -18 49 8 60l38 16c14 6 34 0 42 -12zM405 703c209 0 371 -153 371 -353s-162 -355 -371 -355s-371 155 -371 355c0 201 162 353 371 353zM406 597c-138 0 -252 -108 -252 -247s115 -249 252 -249
s249 110 249 249s-112 247 -249 247z" />
    <glyph glyph-name="Oacute" unicode="&#xd3;" horiz-adv-x="810" 
d="M503 897c26 -11 31 -42 8 -60l-66 -53c-4 -3 -18 -8 -22 -8h-39c-23 0 -35 23 -21 41l60 84c8 12 28 18 42 12zM405 703c209 0 371 -153 371 -353s-162 -355 -371 -355s-371 155 -371 355c0 201 162 353 371 353zM406 597c-138 0 -252 -108 -252 -247s115 -249 252 -249
s249 110 249 249s-112 247 -249 247z" />
    <glyph glyph-name="Ocircumflex" unicode="&#xd4;" horiz-adv-x="810" 
d="M528 817c13 -17 2 -38 -19 -38h-29c-8 0 -24 8 -28 15l-23 32c-15 21 -43 21 -58 0l-23 -32c-4 -7 -20 -15 -28 -15h-29c-21 0 -32 21 -19 38l65 89c4 6 20 14 28 14h70c8 0 24 -8 28 -14zM405 703c209 0 371 -153 371 -353s-162 -355 -371 -355s-371 155 -371 355
c0 201 162 353 371 353zM406 597c-138 0 -252 -108 -252 -247s115 -249 252 -249s249 110 249 249s-112 247 -249 247z" />
    <glyph glyph-name="Otilde" unicode="&#xd5;" horiz-adv-x="810" 
d="M331 926c55 0 85 -55 119 -55c21 0 33 12 37 33c1 8 10 16 17 16h22c22 0 36 -15 33 -36c-8 -63 -38 -95 -89 -95c-60 0 -85 55 -120 55c-20 0 -32 -12 -36 -33c-1 -8 -10 -16 -17 -16h-23c-22 0 -36 15 -33 36c8 63 39 95 90 95zM405 703c209 0 371 -153 371 -353
s-162 -355 -371 -355s-371 155 -371 355c0 201 162 353 371 353zM406 597c-138 0 -252 -108 -252 -247s115 -249 252 -249s249 110 249 249s-112 247 -249 247z" />
    <glyph glyph-name="Odieresis" unicode="&#xd6;" horiz-adv-x="810" 
d="M312 921c35 0 60 -27 60 -64c0 -36 -25 -63 -60 -63s-61 27 -61 63c0 37 26 64 61 64zM489 921c35 0 60 -27 60 -64c0 -36 -25 -63 -60 -63s-61 27 -61 63c0 37 26 64 61 64zM405 703c209 0 371 -153 371 -353s-162 -355 -371 -355s-371 155 -371 355
c0 201 162 353 371 353zM406 597c-138 0 -252 -108 -252 -247s115 -249 252 -249s249 110 249 249s-112 247 -249 247z" />
    <glyph glyph-name="multiply" unicode="&#xd7;" horiz-adv-x="498" 
d="M329 350c-14 -14 -14 -36 0 -50l74 -75c13 -13 14 -35 1 -49l-5 -5c-14 -14 -36 -15 -50 0l-74 74c-14 14 -36 14 -50 0l-75 -75c-14 -14 -36 -13 -50 1l-5 5c-13 14 -12 36 1 49l74 75c14 14 14 36 0 50l-74 74c-13 13 -14 35 -1 49l5 5c14 14 36 15 50 1l75 -75
c14 -14 36 -14 50 0l74 74c14 15 36 14 50 0l5 -5c13 -14 12 -36 -1 -49z" />
    <glyph glyph-name="Oslash" unicode="&#xd8;" horiz-adv-x="810" 
d="M547 811c18 0 30 -16 24 -33l-22 -64c-5 -17 4 -38 20 -45c124 -56 207 -176 207 -319c0 -200 -162 -355 -371 -355c-27 0 -54 3 -80 8c-8 1 -18 -4 -21 -12l-31 -89c-4 -13 -20 -24 -33 -24h-9c-19 0 -30 16 -24 33l30 86c5 15 -4 36 -18 44c-111 60 -185 175 -185 309
c0 201 162 353 371 353c19 0 38 -1 58 -4c6 -1 13 3 15 9l26 79c4 13 20 24 33 24h10zM154 350c0 -80 38 -150 96 -195c20 -16 37 -6 46 18l141 417c1 3 0 5 -3 5c-9 1 -19 2 -28 2c-138 0 -252 -108 -252 -247zM406 101c137 0 249 110 249 249c0 91 -48 169 -121 212
c-20 12 -36 3 -44 -19l-144 -424c-6 -18 45 -18 60 -18z" />
    <glyph glyph-name="Ugrave" unicode="&#xd9;" horiz-adv-x="764" 
d="M414 818c14 -18 2 -41 -21 -41h-39c-4 0 -18 5 -22 8l-66 53c-23 18 -18 49 8 60l38 16c14 6 34 0 42 -12zM652 700c19 0 35 -16 35 -35v-375c0 -183 -115 -295 -304 -295s-305 112 -305 295v375c0 19 16 35 35 35h48c19 0 35 -16 35 -35v-375c0 -118 73 -189 188 -189
c114 0 185 70 185 189v375c0 19 16 35 35 35h48z" />
    <glyph glyph-name="Uacute" unicode="&#xda;" horiz-adv-x="764" 
d="M485 897c26 -11 31 -42 8 -60l-66 -53c-4 -3 -18 -8 -22 -8h-39c-23 0 -35 23 -21 41l60 84c8 12 28 18 42 12zM652 700c19 0 35 -16 35 -35v-375c0 -183 -115 -295 -304 -295s-305 112 -305 295v375c0 19 16 35 35 35h48c19 0 35 -16 35 -35v-375
c0 -118 73 -189 188 -189c114 0 185 70 185 189v375c0 19 16 35 35 35h48z" />
    <glyph glyph-name="Ucircumflex" unicode="&#xdb;" horiz-adv-x="764" 
d="M510 817c13 -17 2 -38 -19 -38h-29c-8 0 -24 8 -28 15l-23 32c-15 21 -43 21 -58 0l-23 -32c-4 -7 -20 -15 -28 -15h-29c-21 0 -32 21 -19 38l65 89c4 6 20 14 28 14h70c8 0 24 -8 28 -14zM652 700c19 0 35 -16 35 -35v-375c0 -183 -115 -295 -304 -295
s-305 112 -305 295v375c0 19 16 35 35 35h48c19 0 35 -16 35 -35v-375c0 -118 73 -189 188 -189c114 0 185 70 185 189v375c0 19 16 35 35 35h48z" />
    <glyph glyph-name="Udieresis" unicode="&#xdc;" horiz-adv-x="764" 
d="M294 921c35 0 60 -27 60 -64c0 -36 -25 -63 -60 -63s-61 27 -61 63c0 37 26 64 61 64zM471 921c35 0 60 -27 60 -64c0 -36 -25 -63 -60 -63s-61 27 -61 63c0 37 26 64 61 64zM652 700c19 0 35 -16 35 -35v-375c0 -183 -115 -295 -304 -295s-305 112 -305 295v375
c0 19 16 35 35 35h48c19 0 35 -16 35 -35v-375c0 -118 73 -189 188 -189c114 0 185 70 185 189v375c0 19 16 35 35 35h48z" />
    <glyph glyph-name="Yacute" unicode="&#xdd;" horiz-adv-x="637" 
d="M363 784c-4 -3 -18 -8 -22 -8h-39c-23 0 -35 23 -21 41l60 84c8 12 28 18 42 12l38 -16c26 -11 31 -42 8 -60zM383 241c-1 -2 -4 -15 -4 -17v-189c0 -19 -16 -35 -35 -35h-47c-19 0 -35 16 -35 35v185c0 2 -3 15 -4 17l-228 411c-14 25 2 52 30 52h40c9 0 25 -9 30 -17
l160 -272c14 -25 46 -25 60 0l156 271c5 9 21 18 30 18h41c28 0 44 -27 30 -52z" />
    <glyph glyph-name="Thorn" unicode="&#xde;" horiz-adv-x="679" 
d="M210 636c0 -19 16 -35 35 -35h112c190 0 296 -85 296 -234c0 -156 -106 -245 -296 -245h-112c-19 0 -35 -16 -35 -35v-52c0 -19 -16 -35 -35 -35h-48c-19 0 -35 16 -35 35v630c0 19 16 35 35 35h48c19 0 35 -16 35 -35v-29zM210 255c0 -19 16 -35 35 -35h107
c119 0 181 49 181 144c0 91 -62 139 -181 139h-107c-19 0 -35 -16 -35 -35v-213z" />
    <glyph glyph-name="germandbls" unicode="&#xdf;" horiz-adv-x="654" 
d="M333 747c137 0 233 -76 233 -193c0 -64 -31 -122 -81 -155c-8 -6 -5 -25 4 -29c69 -25 117 -78 117 -160c0 -122 -103 -210 -263 -210h-25c-15 0 -26 11 -26 26v33c0 17 13 30 30 30h30c86 0 142 49 142 118c0 75 -66 118 -167 118h-6c-4 0 -7 3 -7 7v46
c0 16 21 35 37 38c64 12 104 56 104 120c0 73 -50 118 -124 118c-86 0 -139 -61 -139 -158v-461c0 -19 -16 -35 -35 -35h-44c-19 0 -35 16 -35 35v453c0 157 96 259 255 259z" />
    <glyph glyph-name="agrave" unicode="&#xe0;" horiz-adv-x="586" 
d="M262 609c-4 0 -18 5 -22 8l-66 53c-23 18 -18 49 8 60l38 16c14 6 34 0 42 -12l60 -84c14 -18 2 -41 -21 -41h-39zM437 0c-18 0 -33 15 -33 33v2c0 9 -15 14 -22 8c-38 -32 -90 -48 -154 -48c-115 0 -187 71 -187 165c0 97 73 159 201 160h153c4 0 8 4 8 8v8
c0 67 -43 107 -127 107c-42 0 -86 -12 -129 -37c-14 -8 -36 -3 -44 11l-13 22c-10 17 -3 39 14 48c59 32 111 49 197 49c137 0 214 -70 215 -187l1 -314c0 -19 -16 -35 -35 -35h-45zM252 86c80 0 142 41 150 97l1 6v23c0 13 -11 24 -24 24h-120c-75 0 -110 -20 -110 -71
c0 -48 39 -79 103 -79z" />
    <glyph glyph-name="aacute" unicode="&#xe1;" horiz-adv-x="586" 
d="M335 616c-4 -3 -18 -8 -22 -8h-39c-23 0 -35 23 -21 41l60 84c8 12 28 18 42 12l38 -16c26 -11 31 -42 8 -60zM437 0c-18 0 -33 15 -33 33v2c0 9 -15 14 -22 8c-38 -32 -90 -48 -154 -48c-115 0 -187 71 -187 165c0 97 73 159 201 160h153c4 0 8 4 8 8v8
c0 67 -43 107 -127 107c-42 0 -86 -12 -129 -37c-14 -8 -36 -3 -44 11l-13 22c-10 17 -3 39 14 48c59 32 111 49 197 49c137 0 214 -70 215 -187l1 -314c0 -19 -16 -35 -35 -35h-45zM252 86c80 0 142 41 150 97l1 6v23c0 13 -11 24 -24 24h-120c-75 0 -110 -20 -110 -71
c0 -48 39 -79 103 -79z" />
    <glyph glyph-name="acircumflex" unicode="&#xe2;" horiz-adv-x="586" 
d="M238 626c-4 -7 -20 -15 -28 -15h-29c-21 0 -32 21 -19 38l65 89c4 6 20 14 28 14h70c8 0 24 -8 28 -14l65 -89c13 -17 2 -38 -19 -38h-29c-8 0 -24 8 -28 15l-23 32c-15 21 -43 21 -58 0zM437 0c-18 0 -33 15 -33 33v2c0 9 -15 14 -22 8c-38 -32 -90 -48 -154 -48
c-115 0 -187 71 -187 165c0 97 73 159 201 160h153c4 0 8 4 8 8v8c0 67 -43 107 -127 107c-42 0 -86 -12 -129 -37c-14 -8 -36 -3 -44 11l-13 22c-10 17 -3 39 14 48c59 32 111 49 197 49c137 0 214 -70 215 -187l1 -314c0 -19 -16 -35 -35 -35h-45zM252 86
c80 0 142 41 150 97l1 6v23c0 13 -11 24 -24 24h-120c-75 0 -110 -20 -110 -71c0 -48 39 -79 103 -79z" />
    <glyph glyph-name="atilde" unicode="&#xe3;" horiz-adv-x="586" 
d="M240 676c-20 0 -32 -12 -36 -33c-1 -8 -10 -16 -17 -16h-23c-22 0 -36 15 -33 36c8 63 39 95 90 95c55 0 85 -55 119 -55c21 0 33 12 37 33c1 8 10 16 17 16h22c22 0 36 -15 33 -36c-8 -63 -38 -95 -89 -95c-60 0 -85 55 -120 55zM437 0c-18 0 -33 15 -33 33v2
c0 9 -15 14 -22 8c-38 -32 -90 -48 -154 -48c-115 0 -187 71 -187 165c0 97 73 159 201 160h153c4 0 8 4 8 8v8c0 67 -43 107 -127 107c-42 0 -86 -12 -129 -37c-14 -8 -36 -3 -44 11l-13 22c-10 17 -3 39 14 48c59 32 111 49 197 49c137 0 214 -70 215 -187l1 -314
c0 -19 -16 -35 -35 -35h-45zM252 86c80 0 142 41 150 97l1 6v23c0 13 -11 24 -24 24h-120c-75 0 -110 -20 -110 -71c0 -48 39 -79 103 -79z" />
    <glyph glyph-name="adieresis" unicode="&#xe4;" horiz-adv-x="586" 
d="M202 626c-35 0 -61 27 -61 63c0 37 26 64 61 64s60 -27 60 -64c0 -36 -25 -63 -60 -63zM379 626c-35 0 -61 27 -61 63c0 37 26 64 61 64s60 -27 60 -64c0 -36 -25 -63 -60 -63zM437 0c-18 0 -33 15 -33 33v2c0 9 -15 14 -22 8c-38 -32 -90 -48 -154 -48
c-115 0 -187 71 -187 165c0 97 73 159 201 160h153c4 0 8 4 8 8v8c0 67 -43 107 -127 107c-42 0 -86 -12 -129 -37c-14 -8 -36 -3 -44 11l-13 22c-10 17 -3 39 14 48c59 32 111 49 197 49c137 0 214 -70 215 -187l1 -314c0 -19 -16 -35 -35 -35h-45zM252 86
c80 0 142 41 150 97l1 6v23c0 13 -11 24 -24 24h-120c-75 0 -110 -20 -110 -71c0 -48 39 -79 103 -79z" />
    <glyph glyph-name="aring" unicode="&#xe5;" horiz-adv-x="586" 
d="M290 569c-65 0 -118 52 -118 116c0 63 53 116 118 116s118 -53 118 -116c0 -64 -53 -116 -118 -116zM290 749c-37 0 -68 -29 -68 -64s31 -64 68 -64s68 29 68 64s-31 64 -68 64zM437 0c-18 0 -33 15 -33 33v2c0 9 -15 14 -22 8c-38 -32 -90 -48 -154 -48
c-115 0 -187 71 -187 165c0 97 73 159 201 160h153c4 0 8 4 8 8v8c0 67 -43 107 -127 107c-42 0 -86 -12 -129 -37c-14 -8 -36 -3 -44 11l-13 22c-10 17 -3 39 14 48c59 32 111 49 197 49c137 0 214 -70 215 -187l1 -314c0 -19 -16 -35 -35 -35h-45zM252 86
c80 0 142 41 150 97l1 6v23c0 13 -11 24 -24 24h-120c-75 0 -110 -20 -110 -71c0 -48 39 -79 103 -79z" />
    <glyph glyph-name="ae" unicode="&#xe6;" horiz-adv-x="974" 
d="M677 536c154 0 254 -102 264 -256c1 -21 -13 -39 -34 -39h-346c-26 0 -39 -16 -31 -40c23 -70 83 -112 159 -112c48 0 92 15 128 43c11 8 32 8 41 -1l20 -21c15 -15 14 -35 -2 -48c-51 -42 -118 -66 -196 -66c-87 0 -156 33 -201 89c-10 12 -37 16 -47 3
c-45 -62 -116 -93 -205 -93c-114 0 -186 66 -186 160c0 96 75 150 202 151h147c8 0 15 7 15 15v15c0 67 -44 107 -128 107c-47 0 -96 -13 -145 -37c-16 -8 -37 -1 -42 15l-8 23c-6 16 3 35 18 43c66 31 134 49 201 49c73 0 129 -20 166 -55c9 -9 33 -11 43 -4
c43 38 100 59 167 59zM530 340c-8 -24 6 -37 31 -37h229c24 0 37 14 31 37c-16 67 -69 112 -143 112c-72 0 -126 -45 -148 -112zM424 196c-9 3 -18 5 -18 16v10c0 12 -10 22 -22 22h-119c-74 0 -116 -28 -116 -79c0 -53 41 -89 104 -89c67 0 122 27 156 99c3 7 10 7 16 3
l8 -7c1 -1 2 0 2 1c-2 6 -4 24 -11 24z" />
    <glyph glyph-name="ccedilla" unicode="&#xe7;" horiz-adv-x="564" 
d="M444 139c10 8 31 10 41 0l22 -22c14 -14 15 -32 2 -45c-38 -38 -89 -63 -152 -72c-8 -1 -23 -12 -27 -20l-5 -11c-4 -8 3 -21 12 -25c30 -12 49 -37 49 -73c0 -58 -47 -95 -106 -95c-27 0 -54 7 -75 20c-8 4 -11 13 -8 21l13 31c2 5 9 6 13 4c15 -9 33 -14 49 -14
c29 0 46 21 46 41c0 19 -15 38 -48 38c-10 0 -21 -2 -31 -4c-2 0 -3 2 -2 4l16 38c8 20 -1 45 -23 50c-118 27 -195 126 -195 260c0 161 110 271 268 271c84 0 152 -24 200 -67c14 -13 13 -29 0 -43l-26 -31c-8 -9 -28 -9 -38 -1c-34 26 -78 42 -131 41
c-92 0 -158 -69 -158 -170s66 -170 158 -170c55 0 102 15 136 44z" />
    <glyph glyph-name="egrave" unicode="&#xe8;" horiz-adv-x="588" 
d="M270 609c-4 0 -18 5 -22 8l-66 53c-23 18 -18 49 8 60l38 16c14 6 34 0 42 -12l60 -84c14 -18 2 -41 -21 -41h-39zM304 536c178 0 255 -110 250 -286c0 -19 -15 -28 -34 -28h-327c-27 0 -40 -16 -29 -40c28 -58 83 -93 152 -93c48 0 92 15 128 43c11 8 32 8 41 -1l20 -21
c14 -15 13 -35 -3 -48c-50 -42 -117 -66 -195 -66c-164 0 -272 109 -272 269c0 161 111 270 269 271zM160 348c-10 -25 3 -42 30 -42h226c24 0 38 13 32 36c-17 64 -69 102 -143 102c-69 0 -122 -36 -145 -96z" />
    <glyph glyph-name="eacute" unicode="&#xe9;" horiz-adv-x="588" 
d="M343 616c-4 -3 -18 -8 -22 -8h-39c-23 0 -35 23 -21 41l60 84c8 12 28 18 42 12l38 -16c26 -11 31 -42 8 -60zM304 536c178 0 255 -110 250 -286c0 -19 -15 -28 -34 -28h-327c-27 0 -40 -16 -29 -40c28 -58 83 -93 152 -93c48 0 92 15 128 43c11 8 32 8 41 -1l20 -21
c14 -15 13 -35 -3 -48c-50 -42 -117 -66 -195 -66c-164 0 -272 109 -272 269c0 161 111 270 269 271zM160 348c-10 -25 3 -42 30 -42h226c24 0 38 13 32 36c-17 64 -69 102 -143 102c-69 0 -122 -36 -145 -96z" />
    <glyph glyph-name="ecircumflex" unicode="&#xea;" horiz-adv-x="588" 
d="M247 626c-4 -7 -20 -15 -28 -15h-29c-21 0 -32 21 -19 38l65 89c4 6 20 14 28 14h70c8 0 24 -8 28 -14l65 -89c13 -17 2 -38 -19 -38h-29c-8 0 -24 8 -28 15l-23 32c-15 21 -43 21 -58 0zM304 536c178 0 255 -110 250 -286c0 -19 -15 -28 -34 -28h-327
c-27 0 -40 -16 -29 -40c28 -58 83 -93 152 -93c48 0 92 15 128 43c11 8 32 8 41 -1l20 -21c14 -15 13 -35 -3 -48c-50 -42 -117 -66 -195 -66c-164 0 -272 109 -272 269c0 161 111 270 269 271zM160 348c-10 -25 3 -42 30 -42h226c24 0 38 13 32 36c-17 64 -69 102 -143 102
c-69 0 -122 -36 -145 -96z" />
    <glyph glyph-name="edieresis" unicode="&#xeb;" horiz-adv-x="588" 
d="M211 626c-35 0 -61 27 -61 63c0 37 26 64 61 64s60 -27 60 -64c0 -36 -25 -63 -60 -63zM388 626c-35 0 -61 27 -61 63c0 37 26 64 61 64s60 -27 60 -64c0 -36 -25 -63 -60 -63zM304 536c178 0 255 -110 250 -286c0 -19 -15 -28 -34 -28h-327c-27 0 -40 -16 -29 -40
c28 -58 83 -93 152 -93c48 0 92 15 128 43c11 8 32 8 41 -1l20 -21c14 -15 13 -35 -3 -48c-50 -42 -117 -66 -195 -66c-164 0 -272 109 -272 269c0 161 111 270 269 271zM160 348c-10 -25 3 -42 30 -42h226c24 0 38 13 32 36c-17 64 -69 102 -143 102
c-69 0 -122 -36 -145 -96z" />
    <glyph glyph-name="igrave" unicode="&#xec;" horiz-adv-x="284" 
d="M174 650c14 -18 2 -41 -21 -41h-39c-4 0 -18 5 -22 8l-66 53c-23 18 -18 49 8 60l38 16c14 6 34 0 42 -12zM199 35c0 -19 -16 -35 -35 -35h-44c-19 0 -35 16 -35 35v462c0 19 16 35 35 35h44c19 0 35 -16 35 -35v-462z" />
    <glyph glyph-name="iacute" unicode="&#xed;" horiz-adv-x="284" 
d="M245 729c26 -11 31 -42 8 -60l-66 -53c-4 -3 -18 -8 -22 -8h-39c-23 0 -35 23 -21 41l60 84c8 12 28 18 42 12zM199 35c0 -19 -16 -35 -35 -35h-44c-19 0 -35 16 -35 35v462c0 19 16 35 35 35h44c19 0 35 -16 35 -35v-462z" />
    <glyph glyph-name="icircumflex" unicode="&#xee;" horiz-adv-x="284" 
d="M270 649c13 -17 2 -38 -19 -38h-29c-8 0 -24 8 -28 15l-23 32c-15 21 -43 21 -58 0l-23 -32c-4 -7 -20 -15 -28 -15h-29c-21 0 -32 21 -19 38l65 89c4 6 20 14 28 14h70c8 0 24 -8 28 -14zM199 35c0 -19 -16 -35 -35 -35h-44c-19 0 -35 16 -35 35v462c0 19 16 35 35 35
h44c19 0 35 -16 35 -35v-462z" />
    <glyph glyph-name="idieresis" unicode="&#xef;" horiz-adv-x="284" 
d="M54 753c35 0 60 -27 60 -64c0 -36 -25 -63 -60 -63s-61 27 -61 63c0 37 26 64 61 64zM231 753c35 0 60 -27 60 -64c0 -36 -25 -63 -60 -63s-61 27 -61 63c0 37 26 64 61 64zM199 35c0 -19 -16 -35 -35 -35h-44c-19 0 -35 16 -35 35v462c0 19 16 35 35 35h44
c19 0 35 -16 35 -35v-462z" />
    <glyph glyph-name="eth" unicode="&#xf0;" horiz-adv-x="590" 
d="M455 686c39 14 56 -47 18 -60l-19 -6c-23 -8 -31 -35 -15 -53c74 -90 117 -195 117 -302c0 -164 -108 -270 -274 -270c-149 0 -246 90 -246 229c0 133 89 219 227 219c65 0 125 -23 161 -60c3 -3 9 2 7 6c-23 57 -63 114 -114 166c-8 7 -25 11 -35 8l-102 -34
c-39 -14 -57 47 -19 60l62 21c11 3 12 16 3 22c-26 18 -52 36 -80 50c-10 6 -12 19 -3 26l40 28c8 5 24 7 33 3c45 -22 85 -47 122 -76c7 -5 24 -8 32 -5zM289 97c88 0 145 51 145 129c0 81 -57 133 -145 133c-87 0 -143 -50 -143 -128c0 -82 57 -134 143 -134z" />
    <glyph glyph-name="ntilde" unicode="&#xf1;" horiz-adv-x="663" 
d="M296 676c-20 0 -32 -12 -36 -33c-1 -8 -10 -16 -17 -16h-23c-22 0 -36 15 -33 36c8 63 39 95 90 95c55 0 85 -55 119 -55c21 0 33 12 37 33c1 8 10 16 17 16h22c22 0 36 -15 33 -36c-8 -63 -38 -95 -89 -95c-60 0 -85 55 -120 55zM351 428c-91 -1 -140 -62 -151 -147
v-246c0 -19 -16 -35 -35 -35h-45c-19 0 -35 16 -35 35v462c0 19 16 35 35 35h45c19 0 35 -16 35 -35v-25c0 -10 16 -15 23 -7c39 49 99 71 173 71c124 0 198 -78 198 -205v-296c0 -19 -16 -35 -35 -35h-45c-19 0 -35 16 -35 35v264c0 80 -48 129 -128 129z" />
    <glyph glyph-name="ograve" unicode="&#xf2;" horiz-adv-x="625" 
d="M344 650c14 -18 2 -41 -21 -41h-39c-4 0 -18 5 -22 8l-66 53c-23 18 -18 49 8 60l38 16c14 6 34 0 42 -12zM313 536c164 0 277 -109 277 -270c0 -160 -113 -270 -277 -270c-165 0 -278 110 -278 270c0 161 113 270 278 270zM313 437c-96 0 -163 -70 -163 -172
c0 -103 67 -173 163 -173c95 0 162 70 162 173c0 102 -67 172 -162 172z" />
    <glyph glyph-name="oacute" unicode="&#xf3;" horiz-adv-x="625" 
d="M415 729c26 -11 31 -42 8 -60l-66 -53c-4 -3 -18 -8 -22 -8h-39c-23 0 -35 23 -21 41l60 84c8 12 28 18 42 12zM313 536c164 0 277 -109 277 -270c0 -160 -113 -270 -277 -270c-165 0 -278 110 -278 270c0 161 113 270 278 270zM313 437c-96 0 -163 -70 -163 -172
c0 -103 67 -173 163 -173c95 0 162 70 162 173c0 102 -67 172 -162 172z" />
    <glyph glyph-name="ocircumflex" unicode="&#xf4;" horiz-adv-x="625" 
d="M441 649c13 -17 2 -38 -19 -38h-29c-8 0 -24 8 -28 15l-23 32c-15 21 -43 21 -58 0l-23 -32c-4 -7 -20 -15 -28 -15h-29c-21 0 -32 21 -19 38l65 89c4 6 20 14 28 14h70c8 0 24 -8 28 -14zM313 536c164 0 277 -109 277 -270c0 -160 -113 -270 -277 -270
c-165 0 -278 110 -278 270c0 161 113 270 278 270zM313 437c-96 0 -163 -70 -163 -172c0 -103 67 -173 163 -173c95 0 162 70 162 173c0 102 -67 172 -162 172z" />
    <glyph glyph-name="otilde" unicode="&#xf5;" horiz-adv-x="625" 
d="M243 758c55 0 85 -55 119 -55c21 0 33 12 37 33c1 8 10 16 17 16h22c22 0 36 -15 33 -36c-8 -63 -38 -95 -89 -95c-60 0 -85 55 -120 55c-20 0 -32 -12 -36 -33c-1 -8 -10 -16 -17 -16h-23c-22 0 -36 15 -33 36c8 63 39 95 90 95zM313 536c164 0 277 -109 277 -270
c0 -160 -113 -270 -277 -270c-165 0 -278 110 -278 270c0 161 113 270 278 270zM313 437c-96 0 -163 -70 -163 -172c0 -103 67 -173 163 -173c95 0 162 70 162 173c0 102 -67 172 -162 172z" />
    <glyph glyph-name="odieresis" unicode="&#xf6;" horiz-adv-x="625" 
d="M225 753c35 0 60 -27 60 -64c0 -36 -25 -63 -60 -63s-61 27 -61 63c0 37 26 64 61 64zM402 753c35 0 60 -27 60 -64c0 -36 -25 -63 -60 -63s-61 27 -61 63c0 37 26 64 61 64zM313 536c164 0 277 -109 277 -270c0 -160 -113 -270 -277 -270c-165 0 -278 110 -278 270
c0 161 113 270 278 270zM313 437c-96 0 -163 -70 -163 -172c0 -103 67 -173 163 -173c95 0 162 70 162 173c0 102 -67 172 -162 172z" />
    <glyph glyph-name="divide" unicode="&#xf7;" horiz-adv-x="498" 
d="M243 572c35 0 61 -27 61 -63c0 -37 -26 -64 -61 -64s-60 27 -60 64c0 36 25 63 60 63zM463 320c0 -19 -16 -35 -35 -35h-358c-19 0 -35 16 -35 35v9c0 19 16 35 35 35h358c19 0 35 -16 35 -35v-9zM243 217c35 0 61 -27 61 -63c0 -37 -26 -64 -61 -64s-60 27 -60 64
c0 36 25 63 60 63z" />
    <glyph glyph-name="oslash" unicode="&#xf8;" horiz-adv-x="625" 
d="M460 640l-29 -90c-5 -15 5 -37 20 -45c86 -43 139 -128 139 -239c0 -160 -113 -270 -277 -270c-18 0 -35 1 -51 4c-4 0 -9 -3 -11 -8l-37 -114c-4 -13 -20 -24 -33 -24h-1c-14 0 -22 12 -18 25l33 103c6 15 -4 37 -19 45c-88 43 -141 129 -141 239c0 161 113 270 278 270
c18 0 35 -1 51 -4c5 0 10 3 12 8l32 101c4 12 20 24 34 24s22 -12 18 -25zM144 265c0 -64 23 -115 63 -147c15 -12 30 -6 37 13l99 308c1 3 0 5 -2 6c-9 1 -19 2 -28 2c-100 0 -169 -74 -169 -182zM313 83c99 0 169 73 169 182c0 63 -24 115 -63 146c-15 13 -30 7 -37 -11
l-99 -309c-1 -3 0 -5 2 -6c9 -1 19 -2 28 -2z" />
    <glyph glyph-name="ugrave" unicode="&#xf9;" horiz-adv-x="653" 
d="M295 609c-4 0 -18 5 -22 8l-66 53c-23 18 -18 49 8 60l38 16c14 6 34 0 42 -12l60 -84c14 -18 2 -41 -21 -41h-39zM533 532c19 0 35 -16 35 -35v-462c0 -19 -16 -35 -35 -35h-45c-19 0 -35 16 -35 35v28c0 9 -16 13 -22 6c-38 -50 -96 -72 -168 -73
c-122 0 -195 78 -195 205v296c0 19 16 35 35 35h45c19 0 35 -16 35 -35v-264c0 -80 47 -129 124 -129c92 2 146 73 146 166v227c0 19 16 35 35 35h45z" />
    <glyph glyph-name="uacute" unicode="&#xfa;" horiz-adv-x="653" 
d="M368 616c-4 -3 -18 -8 -22 -8h-39c-23 0 -35 23 -21 41l60 84c8 12 28 18 42 12l38 -16c26 -11 31 -42 8 -60zM533 532c19 0 35 -16 35 -35v-462c0 -19 -16 -35 -35 -35h-45c-19 0 -35 16 -35 35v28c0 9 -16 13 -22 6c-38 -50 -96 -72 -168 -73c-122 0 -195 78 -195 205
v296c0 19 16 35 35 35h45c19 0 35 -16 35 -35v-264c0 -80 47 -129 124 -129c92 2 146 73 146 166v227c0 19 16 35 35 35h45z" />
    <glyph glyph-name="ucircumflex" unicode="&#xfb;" horiz-adv-x="653" 
d="M271 626c-4 -7 -20 -15 -28 -15h-29c-21 0 -32 21 -19 38l65 89c4 6 20 14 28 14h70c8 0 24 -8 28 -14l65 -89c13 -17 2 -38 -19 -38h-29c-8 0 -24 8 -28 15l-23 32c-15 21 -43 21 -58 0zM533 532c19 0 35 -16 35 -35v-462c0 -19 -16 -35 -35 -35h-45
c-19 0 -35 16 -35 35v28c0 9 -16 13 -22 6c-38 -50 -96 -72 -168 -73c-122 0 -195 78 -195 205v296c0 19 16 35 35 35h45c19 0 35 -16 35 -35v-264c0 -80 47 -129 124 -129c92 2 146 73 146 166v227c0 19 16 35 35 35h45z" />
    <glyph glyph-name="udieresis" unicode="&#xfc;" horiz-adv-x="653" 
d="M235 626c-35 0 -61 27 -61 63c0 37 26 64 61 64s60 -27 60 -64c0 -36 -25 -63 -60 -63zM412 626c-35 0 -61 27 -61 63c0 37 26 64 61 64s60 -27 60 -64c0 -36 -25 -63 -60 -63zM533 532c19 0 35 -16 35 -35v-462c0 -19 -16 -35 -35 -35h-45c-19 0 -35 16 -35 35v28
c0 9 -16 13 -22 6c-38 -50 -96 -72 -168 -73c-122 0 -195 78 -195 205v296c0 19 16 35 35 35h45c19 0 35 -16 35 -35v-264c0 -80 47 -129 124 -129c92 2 146 73 146 166v227c0 19 16 35 35 35h45z" />
    <glyph glyph-name="yacute" unicode="&#xfd;" horiz-adv-x="531" 
d="M370 729c26 -11 31 -42 8 -60l-66 -53c-4 -3 -18 -8 -22 -8h-39c-23 0 -35 23 -21 41l60 84c8 12 28 18 42 12zM484 532c27 0 43 -23 33 -48l-223 -557c-33 -84 -93 -126 -173 -126c-40 0 -72 10 -103 30c-13 8 -16 23 -8 36l30 55c3 6 13 8 20 4c19 -12 36 -17 56 -17
c35 0 63 19 81 59l12 26c2 6 2 22 0 28l-194 461c-10 25 6 49 33 49h42c12 0 28 -11 33 -22l116 -296c13 -31 54 -30 66 1l108 294c4 12 20 23 32 23h39z" />
    <glyph glyph-name="thorn" unicode="&#xfe;" horiz-adv-x="680" 
d="M391 536c151 0 254 -110 254 -272c0 -159 -100 -268 -252 -268c-70 0 -126 23 -165 66c-7 8 -23 4 -23 -7v-214c0 -19 -16 -35 -35 -35h-45c-19 0 -35 16 -35 35v866c0 19 16 35 35 35h45c19 0 35 -16 35 -35v-230c0 -11 16 -15 23 -7c39 43 95 66 163 66zM367 94
c95 0 162 72 162 174c0 99 -67 172 -162 172s-162 -72 -162 -172c0 -103 67 -174 162 -174z" />
    <glyph glyph-name="ydieresis" unicode="&#xff;" horiz-adv-x="531" 
d="M179 753c35 0 60 -27 60 -64c0 -36 -25 -63 -60 -63s-61 27 -61 63c0 37 26 64 61 64zM356 753c35 0 60 -27 60 -64c0 -36 -25 -63 -60 -63s-61 27 -61 63c0 37 26 64 61 64zM484 532c27 0 43 -23 33 -48l-223 -557c-33 -84 -93 -126 -173 -126c-40 0 -72 10 -103 30
c-13 8 -16 23 -8 36l30 55c3 6 13 8 20 4c19 -12 36 -17 56 -17c35 0 63 19 81 59l12 26c2 6 2 22 0 28l-194 461c-10 25 6 49 33 49h42c12 0 28 -11 33 -22l116 -296c13 -31 54 -30 66 1l108 294c4 12 20 23 32 23h39z" />
    <glyph glyph-name="Amacron" unicode="&#x100;" horiz-adv-x="738" 
d="M497 844c0 -19 -16 -35 -35 -35h-185c-19 0 -35 16 -35 35v13c0 19 16 35 35 35h185c19 0 35 -16 35 -35v-13zM553 137c-5 11 -20 21 -32 21h-307c-12 0 -27 -10 -32 -21l-49 -116c-5 -11 -20 -21 -32 -21h-46c-27 0 -43 24 -32 49l278 630c4 11 20 21 32 21h75
c12 0 28 -10 32 -21l276 -630c10 -25 -5 -49 -32 -49h-50c-12 0 -27 10 -32 21zM446 263c27 0 43 24 32 49l-79 186c-13 30 -51 30 -64 0l-79 -186c-11 -25 5 -49 32 -49h158z" />
    <glyph glyph-name="amacron" unicode="&#x101;" horiz-adv-x="586" 
d="M418 676c0 -19 -16 -35 -35 -35h-185c-19 0 -35 16 -35 35v13c0 19 16 35 35 35h185c19 0 35 -16 35 -35v-13zM437 0c-18 0 -33 15 -33 33v2c0 9 -15 14 -22 8c-38 -32 -90 -48 -154 -48c-115 0 -187 71 -187 165c0 97 73 159 201 160h153c4 0 8 4 8 8v8
c0 67 -43 107 -127 107c-42 0 -86 -12 -129 -37c-14 -8 -36 -3 -44 11l-13 22c-10 17 -3 39 14 48c59 32 111 49 197 49c137 0 214 -70 215 -187l1 -314c0 -19 -16 -35 -35 -35h-45zM252 86c80 0 142 41 150 97l1 6v23c0 13 -11 24 -24 24h-120c-75 0 -110 -20 -110 -71
c0 -48 39 -79 103 -79z" />
    <glyph glyph-name="Abreve" unicode="&#x102;" horiz-adv-x="738" 
d="M369 774c-68 0 -120 41 -136 106c-6 23 7 36 31 36h23c8 0 20 -11 22 -19c8 -28 31 -46 60 -46s52 18 60 46c2 8 14 19 22 19h23c24 0 37 -13 31 -36c-16 -65 -68 -106 -136 -106zM553 137c-5 11 -20 21 -32 21h-307c-12 0 -27 -10 -32 -21l-49 -116
c-5 -11 -20 -21 -32 -21h-46c-27 0 -43 24 -32 49l278 630c4 11 20 21 32 21h75c12 0 28 -10 32 -21l276 -630c10 -25 -5 -49 -32 -49h-50c-12 0 -27 10 -32 21zM446 263c27 0 43 24 32 49l-79 186c-13 30 -51 30 -64 0l-79 -186c-11 -25 5 -49 32 -49h158z" />
    <glyph glyph-name="abreve" unicode="&#x103;" horiz-adv-x="586" 
d="M290 606c-68 0 -120 41 -136 106c-6 23 7 36 31 36h23c8 0 20 -11 22 -19c8 -28 31 -46 60 -46s52 18 60 46c2 8 14 19 22 19h23c24 0 37 -13 31 -36c-16 -65 -68 -106 -136 -106zM437 0c-18 0 -33 15 -33 33v2c0 9 -15 14 -22 8c-38 -32 -90 -48 -154 -48
c-115 0 -187 71 -187 165c0 97 73 159 201 160h153c4 0 8 4 8 8v8c0 67 -43 107 -127 107c-42 0 -86 -12 -129 -37c-14 -8 -36 -3 -44 11l-13 22c-10 17 -3 39 14 48c59 32 111 49 197 49c137 0 214 -70 215 -187l1 -314c0 -19 -16 -35 -35 -35h-45zM252 86
c80 0 142 41 150 97l1 6v23c0 13 -11 24 -24 24h-120c-75 0 -110 -20 -110 -71c0 -48 39 -79 103 -79z" />
    <glyph glyph-name="Aogonek" unicode="&#x104;" horiz-adv-x="738" 
d="M731 15c4 -8 -1 -15 -9 -15s-22 -7 -27 -14c-27 -41 -39 -70 -39 -91c0 -20 12 -32 30 -32c15 0 28 9 41 22c4 5 12 5 16 1l11 -14c9 -10 10 -23 1 -33c-22 -26 -51 -40 -82 -40c-38 0 -79 23 -79 78c0 33 15 68 43 109c4 6 0 14 -8 14c-9 0 -20 8 -24 16l-52 121
c-5 11 -20 21 -32 21h-306c-12 0 -27 -10 -32 -21l-50 -116c-5 -11 -20 -21 -32 -21h-46c-27 0 -43 24 -32 49l278 630c4 11 20 21 32 21h76c12 0 28 -10 32 -21zM255 311c-11 -25 5 -49 32 -49h162c27 0 43 24 32 49l-81 188c-13 30 -51 30 -64 0z" />
    <glyph glyph-name="aogonek" unicode="&#x105;" horiz-adv-x="590" 
d="M301 536c137 0 214 -70 216 -187v-332c0 -9 -8 -17 -17 -17c-8 0 -22 -7 -27 -14c-28 -41 -40 -70 -40 -91c0 -20 12 -32 30 -32c15 0 28 9 41 22c4 5 12 5 16 1l11 -14c9 -10 10 -23 1 -33c-22 -26 -51 -40 -82 -40c-39 0 -79 23 -79 78c0 35 17 73 49 116
c3 4 -1 7 -5 7c-6 0 -11 5 -11 11v24c0 9 -15 14 -22 8c-38 -32 -90 -48 -154 -48c-116 0 -187 71 -187 165c0 97 73 159 200 160h154c4 0 8 4 8 8v8c-1 67 -43 107 -128 107c-41 0 -85 -12 -128 -37c-14 -8 -36 -3 -44 11l-13 22c-10 17 -3 39 14 48c59 32 110 49 197 49z
M404 211c0 14 -11 25 -25 25h-120c-76 0 -110 -20 -110 -71c0 -48 39 -79 103 -79c80 0 149 48 152 100v25z" />
    <glyph glyph-name="Cacute" unicode="&#x106;" horiz-adv-x="697" 
d="M475 897c26 -11 31 -42 8 -60l-66 -53c-4 -3 -18 -8 -22 -8h-39c-23 0 -35 23 -21 41l60 84c8 12 28 18 42 12zM402 703c89 0 178 -33 245 -89c14 -12 13 -29 1 -44l-26 -32c-11 -14 -38 -13 -52 -2c-47 39 -107 62 -166 62c-140 0 -250 -108 -250 -246
s110 -247 250 -247c58 0 117 22 166 58c14 11 41 11 53 -2l24 -26c13 -15 15 -32 0 -45c-69 -59 -160 -95 -249 -95c-205 0 -364 155 -364 356c0 199 161 352 368 352z" />
    <glyph glyph-name="cacute" unicode="&#x107;" horiz-adv-x="564" 
d="M390 729c26 -11 31 -42 8 -60l-66 -53c-4 -3 -18 -8 -22 -8h-39c-23 0 -35 23 -21 41l60 84c8 12 28 18 42 12zM303 536c84 0 152 -24 200 -67c14 -13 13 -29 0 -43l-26 -31c-8 -9 -28 -9 -38 -1c-34 26 -78 42 -131 41c-92 0 -158 -69 -158 -170s66 -170 158 -170
c55 0 102 15 136 44c10 8 31 10 41 0l22 -22c14 -14 16 -31 3 -44c-49 -49 -119 -77 -207 -77c-158 0 -268 109 -268 269c0 161 110 271 268 271z" />
    <glyph glyph-name="Ccaron" unicode="&#x10c;" horiz-adv-x="697" 
d="M234 879c-14 18 -2 41 21 41h32c9 0 25 -8 29 -15l24 -35c15 -22 43 -22 58 0l24 35c4 7 20 15 29 15h32c23 0 35 -23 21 -41l-68 -94c-4 -7 -20 -15 -28 -15h-78c-8 0 -24 8 -28 15zM402 703c89 0 178 -33 245 -89c14 -12 13 -29 1 -44l-26 -32c-11 -14 -38 -13 -52 -2
c-47 39 -107 62 -166 62c-140 0 -250 -108 -250 -246s110 -247 250 -247c58 0 117 22 166 58c14 11 41 11 53 -2l24 -26c13 -15 15 -32 0 -45c-69 -59 -160 -95 -249 -95c-205 0 -364 155 -364 356c0 199 161 352 368 352z" />
    <glyph glyph-name="ccaron" unicode="&#x10d;" horiz-adv-x="564" 
d="M150 711c-14 18 -2 41 21 41h32c9 0 25 -8 29 -15l24 -35c15 -22 43 -22 58 0l24 35c4 7 20 15 29 15h32c23 0 35 -23 21 -41l-68 -94c-4 -7 -20 -15 -28 -15h-78c-8 0 -24 8 -28 15zM303 536c84 0 152 -24 200 -67c14 -13 13 -29 0 -43l-26 -31c-8 -9 -28 -9 -38 -1
c-34 26 -78 42 -131 41c-92 0 -158 -69 -158 -170s66 -170 158 -170c55 0 102 15 136 44c10 8 31 10 41 0l22 -22c14 -14 16 -31 3 -44c-49 -49 -119 -77 -207 -77c-158 0 -268 109 -268 269c0 161 110 271 268 271z" />
    <glyph glyph-name="Dcaron" unicode="&#x10e;" horiz-adv-x="775" 
d="M227 879c-14 18 -2 41 21 41h32c9 0 25 -8 29 -15l24 -35c15 -22 43 -22 58 0l24 35c4 7 20 15 29 15h32c23 0 35 -23 21 -41l-68 -94c-4 -7 -20 -15 -28 -15h-78c-8 0 -24 8 -28 15zM92 665c0 19 16 35 35 35h252c210 0 362 -147 362 -350c0 -202 -153 -350 -365 -350
h-249c-19 0 -35 16 -35 35v630zM245 594c-19 0 -35 -16 -35 -35v-418c0 -19 16 -35 35 -35h137c136 0 240 101 240 243c0 143 -107 245 -245 245h-132z" />
    <glyph glyph-name="dcaron" unicode="&#x10f;" horiz-adv-x="719" 
d="M477 707c0 19 16 35 35 35h45c19 0 35 -16 35 -35v-672c0 -19 -16 -35 -35 -35h-45c-19 0 -35 16 -35 35v20c0 10 -16 13 -22 6c-39 -43 -95 -66 -165 -66c-153 0 -255 111 -255 273c0 160 103 269 253 269c71 0 127 -24 166 -67c7 -7 23 -4 23 7v230zM714 685
c32 0 61 -24 61 -64c0 -20 -7 -37 -18 -53l-47 -70c-4 -8 -20 -16 -29 -16h-10c-15 0 -24 13 -18 27l22 50c2 4 -1 14 -5 17c-12 12 -18 28 -18 45c0 37 26 64 62 64zM314 91c96 0 163 72 163 173c0 103 -67 175 -163 175s-163 -73 -164 -175c1 -101 67 -173 164 -173z" />
    <glyph glyph-name="Dcroat" unicode="&#x110;" horiz-adv-x="775" 
d="M493 844c0 -19 -16 -35 -35 -35h-185c-19 0 -35 16 -35 35v13c0 19 16 35 35 35h185c19 0 35 -16 35 -35v-13zM92 665c0 19 16 35 35 35h252c210 0 362 -147 362 -350c0 -202 -153 -350 -365 -350h-249c-19 0 -35 16 -35 35v630zM245 594c-19 0 -35 -16 -35 -35v-418
c0 -19 16 -35 35 -35h137c136 0 240 101 240 243c0 143 -107 245 -245 245h-132z" />
    <glyph glyph-name="dcroat" unicode="&#x111;" horiz-adv-x="679" 
d="M661 649c0 -18 -15 -33 -33 -33h-1c-20 0 -35 -15 -35 -34v-547c0 -19 -16 -35 -35 -35h-45c-19 0 -35 16 -35 35v20c0 10 -16 13 -22 6c-39 -43 -95 -66 -165 -66c-153 0 -255 111 -255 273c0 160 103 269 253 269c71 0 127 -24 166 -67c7 -7 23 -4 23 7v104
c0 19 -16 35 -35 35h-31c-18 0 -33 15 -33 33s15 33 33 33h36c17 0 30 13 30 30s13 30 30 30h55c17 0 30 -13 30 -30s13 -30 30 -30h6c18 0 33 -15 33 -33zM314 91c96 0 163 72 163 173c0 103 -67 175 -163 175s-163 -73 -164 -175c1 -101 67 -173 164 -173z" />
    <glyph glyph-name="Emacron" unicode="&#x112;" horiz-adv-x="656" 
d="M472 844c0 -19 -16 -35 -35 -35h-185c-19 0 -35 16 -35 35v13c0 19 16 35 35 35h185c19 0 35 -16 35 -35v-13zM592 629c0 -19 -16 -35 -35 -35h-312c-19 0 -35 -16 -35 -35v-119c0 -19 16 -35 35 -35h272c19 0 35 -16 35 -35v-36c0 -19 -16 -35 -35 -35h-272
c-19 0 -35 -16 -35 -35v-123c0 -19 16 -35 35 -35h324c19 0 35 -16 35 -35v-36c0 -19 -16 -35 -35 -35h-442c-19 0 -35 16 -35 35v630c0 19 16 35 35 35h430c19 0 35 -16 35 -35v-36z" />
    <glyph glyph-name="emacron" unicode="&#x113;" horiz-adv-x="588" 
d="M426 676c0 -19 -16 -35 -35 -35h-185c-19 0 -35 16 -35 35v13c0 19 16 35 35 35h185c19 0 35 -16 35 -35v-13zM304 536c178 0 255 -110 250 -286c0 -19 -15 -28 -34 -28h-327c-27 0 -40 -16 -29 -40c28 -58 83 -93 152 -93c48 0 92 15 128 43c11 8 32 8 41 -1l20 -21
c14 -15 13 -35 -3 -48c-50 -42 -117 -66 -195 -66c-164 0 -272 109 -272 269c0 161 111 270 269 271zM160 348c-10 -25 3 -42 30 -42h226c24 0 38 13 32 36c-17 64 -69 102 -143 102c-69 0 -122 -36 -145 -96z" />
    <glyph glyph-name="Edotaccent" unicode="&#x116;" horiz-adv-x="656" 
d="M344 922c38 0 67 -29 67 -70c0 -40 -29 -69 -67 -69s-67 29 -67 69c0 41 29 70 67 70zM592 629c0 -19 -16 -35 -35 -35h-312c-19 0 -35 -16 -35 -35v-119c0 -19 16 -35 35 -35h272c19 0 35 -16 35 -35v-36c0 -19 -16 -35 -35 -35h-272c-19 0 -35 -16 -35 -35v-123
c0 -19 16 -35 35 -35h324c19 0 35 -16 35 -35v-36c0 -19 -16 -35 -35 -35h-442c-19 0 -35 16 -35 35v630c0 19 16 35 35 35h430c19 0 35 -16 35 -35v-36z" />
    <glyph glyph-name="edotaccent" unicode="&#x117;" horiz-adv-x="588" 
d="M299 615c-38 0 -67 29 -67 69c0 41 29 70 67 70s67 -29 67 -70c0 -40 -29 -69 -67 -69zM304 536c178 0 255 -110 250 -286c0 -19 -15 -28 -34 -28h-327c-27 0 -40 -16 -29 -40c28 -58 83 -93 152 -93c48 0 92 15 128 43c11 8 32 8 41 -1l20 -21c14 -15 13 -35 -3 -48
c-50 -42 -117 -66 -195 -66c-164 0 -272 109 -272 269c0 161 111 270 269 271zM160 348c-10 -25 3 -42 30 -42h226c24 0 38 13 32 36c-17 64 -69 102 -143 102c-69 0 -122 -36 -145 -96z" />
    <glyph glyph-name="Eogonek" unicode="&#x118;" horiz-adv-x="665" 
d="M601 637c0 -19 -16 -35 -35 -35h-321c-19 0 -35 -16 -35 -35v-128c0 -19 16 -35 35 -35h281c19 0 35 -16 35 -35v-27c0 -19 -16 -35 -35 -35h-281c-19 0 -35 -16 -35 -35v-139c0 -19 16 -35 35 -35h333c19 0 35 -16 35 -35v-30c0 -18 -15 -33 -33 -33h-15
c-9 0 -23 -7 -28 -14c-29 -42 -40 -70 -40 -91c0 -20 13 -32 30 -32c15 0 29 9 42 22c4 5 12 5 16 1l11 -13c9 -11 10 -24 0 -34c-22 -26 -51 -40 -82 -40c-38 0 -78 23 -78 78c0 30 12 61 35 98c7 11 0 25 -13 25h-331c-19 0 -35 16 -35 35v630c0 19 16 35 35 35h439
c19 0 35 -16 35 -35v-28z" />
    <glyph glyph-name="eogonek" unicode="&#x119;" horiz-adv-x="588" 
d="M304 535c168 5 254 -105 251 -284c0 -19 -15 -29 -34 -29h-329c-26 0 -38 -16 -28 -39c26 -58 78 -95 152 -95c46 0 92 16 128 44c11 8 32 8 41 -1l21 -22c11 -12 9 -37 -1 -50c-48 -62 -82 -123 -82 -162c0 -23 12 -34 30 -34c15 0 29 10 40 23c4 4 11 5 15 1l13 -16
c8 -9 9 -22 0 -32c-21 -24 -49 -40 -81 -40c-39 0 -79 22 -79 79c0 38 17 82 49 130c2 3 -2 11 -6 9c-32 -15 -64 -21 -102 -21c-157 0 -267 109 -267 271c0 151 95 264 269 268zM306 444c-73 0 -130 -40 -150 -103c-8 -24 6 -35 32 -35h228c24 0 38 12 32 35
c-17 63 -69 103 -142 103z" />
    <glyph glyph-name="Ecaron" unicode="&#x11a;" horiz-adv-x="656" 
d="M206 879c-14 18 -2 41 21 41h32c9 0 25 -8 29 -15l24 -35c15 -22 43 -22 58 0l24 35c4 7 20 15 29 15h32c23 0 35 -23 21 -41l-68 -94c-4 -7 -20 -15 -28 -15h-78c-8 0 -24 8 -28 15zM592 629c0 -19 -16 -35 -35 -35h-312c-19 0 -35 -16 -35 -35v-119
c0 -19 16 -35 35 -35h272c19 0 35 -16 35 -35v-36c0 -19 -16 -35 -35 -35h-272c-19 0 -35 -16 -35 -35v-123c0 -19 16 -35 35 -35h324c19 0 35 -16 35 -35v-36c0 -19 -16 -35 -35 -35h-442c-19 0 -35 16 -35 35v630c0 19 16 35 35 35h430c19 0 35 -16 35 -35v-36z" />
    <glyph glyph-name="ecaron" unicode="&#x11b;" horiz-adv-x="588" 
d="M257 602c-8 0 -24 8 -28 15l-68 94c-14 18 -2 41 21 41h32c9 0 25 -8 29 -15l24 -35c15 -22 43 -22 58 0l24 35c4 7 20 15 29 15h32c23 0 35 -23 21 -41l-68 -94c-4 -7 -20 -15 -28 -15h-78zM304 536c178 0 255 -110 250 -286c0 -19 -15 -28 -34 -28h-327
c-27 0 -40 -16 -29 -40c28 -58 83 -93 152 -93c48 0 92 15 128 43c11 8 32 8 41 -1l20 -21c14 -15 13 -35 -3 -48c-50 -42 -117 -66 -195 -66c-164 0 -272 109 -272 269c0 161 111 270 269 271zM160 348c-10 -25 3 -42 30 -42h226c24 0 38 13 32 36c-17 64 -69 102 -143 102
c-69 0 -122 -36 -145 -96z" />
    <glyph glyph-name="Gbreve" unicode="&#x11e;" horiz-adv-x="749" 
d="M387 774c-68 0 -120 41 -136 106c-6 23 7 36 31 36h23c8 0 20 -11 22 -19c8 -28 31 -46 60 -46s52 18 60 46c2 8 14 19 22 19h23c24 0 37 -13 31 -36c-16 -65 -68 -106 -136 -106zM571 309c0 19 16 35 35 35h33c19 0 35 -16 35 -35v-206c0 -8 -9 -24 -17 -29
c-70 -47 -166 -79 -255 -79c-207 0 -368 155 -368 355s163 353 375 353c88 0 175 -29 242 -77c16 -11 19 -31 7 -47l-25 -32c-10 -14 -38 -15 -52 -5c-50 36 -112 56 -172 56c-143 0 -255 -109 -255 -248c0 -140 113 -249 256 -249c46 0 96 14 142 37c9 5 19 20 19 31v140z
" />
    <glyph glyph-name="gbreve" unicode="&#x11f;" horiz-adv-x="640" 
d="M320 606c-68 0 -120 41 -136 106c-6 23 7 36 31 36h23c8 0 20 -11 22 -19c8 -28 31 -46 60 -46s52 18 60 46c2 8 14 19 22 19h23c24 0 37 -13 31 -36c-16 -65 -68 -106 -136 -106zM530 532c19 0 35 -16 35 -35v-445c0 -153 -109 -249 -276 -249c-71 0 -134 19 -191 51
c-17 10 -23 30 -13 47l16 28c8 14 29 17 42 9c43 -26 87 -40 141 -40c101 0 167 59 167 151v34c0 9 -15 12 -21 5c-37 -40 -89 -62 -155 -62c-144 0 -240 104 -240 257c0 150 95 252 236 253c68 1 121 -21 158 -62c7 -7 22 -3 22 6v17c0 19 16 35 35 35h44zM298 116
c90 0 153 68 153 164s-63 163 -153 163c-91 0 -154 -68 -155 -163c1 -96 63 -164 155 -164z" />
    <glyph glyph-name="Gcommaaccent" unicode="&#x122;" horiz-adv-x="749" 
d="M571 309c0 19 16 35 35 35h33c19 0 35 -16 35 -35v-206c0 -8 -9 -24 -17 -29c-70 -47 -166 -79 -255 -79c-207 0 -368 155 -368 355s163 353 375 353c88 0 175 -29 242 -77c16 -11 19 -31 7 -47l-25 -32c-10 -14 -38 -15 -52 -5c-50 36 -112 56 -172 56
c-143 0 -255 -109 -255 -248c0 -140 113 -249 256 -249c46 0 96 14 142 37c9 5 19 20 19 31v140zM393 -49c32 0 61 -24 61 -64c0 -19 -7 -36 -18 -52l-47 -70c-4 -8 -20 -16 -29 -16h-10c-15 0 -24 13 -18 27l22 49c2 4 -1 14 -5 17c-12 12 -18 28 -18 45c0 37 26 64 62 64z
" />
    <glyph glyph-name="gcommaaccent" unicode="&#x123;" horiz-adv-x="640" 
d="M314 581c-32 0 -61 24 -61 64c0 19 7 36 18 52l47 70c4 8 20 16 29 16h11c14 0 23 -13 17 -27l-22 -49c-2 -4 1 -14 5 -17c12 -12 18 -28 18 -45c0 -37 -26 -64 -62 -64zM530 532c19 0 35 -16 35 -35v-445c0 -153 -109 -249 -276 -249c-71 0 -134 19 -191 51
c-17 10 -23 30 -13 47l16 28c8 14 29 17 42 9c43 -26 87 -40 141 -40c101 0 167 59 167 151v34c0 9 -15 12 -21 5c-37 -40 -89 -62 -155 -62c-144 0 -240 104 -240 257c0 150 95 252 236 253c68 1 121 -21 158 -62c7 -7 22 -3 22 6v17c0 19 16 35 35 35h44zM298 116
c90 0 153 68 153 164s-63 163 -153 163c-91 0 -154 -68 -155 -163c1 -96 63 -164 155 -164z" />
    <glyph glyph-name="hbar" unicode="&#x127;" horiz-adv-x="815" 
d="M402 536c124 0 198 -78 198 -205v-296c0 -19 -16 -35 -35 -35h-45c-19 0 -35 16 -35 35v264c0 80 -48 129 -128 129c-95 -1 -152 -72 -152 -166v-227c0 -19 -16 -35 -35 -35h-45c-19 0 -35 16 -35 35v519c0 19 -16 35 -35 35h-14c-20 0 -35 15 -35 35c0 19 15 34 35 34
h14c19 0 35 16 35 35v14c0 19 16 35 35 35h45c19 0 35 -16 35 -35v-14c0 -19 16 -35 35 -35h72c19 0 34 -15 34 -34c0 -20 -15 -35 -34 -35h-72c-19 0 -35 -16 -35 -35v-84c0 -10 17 -14 23 -6c40 50 99 72 174 72z" />
    <glyph glyph-name="Itilde" unicode="&#x128;" horiz-adv-x="302" 
d="M82 926c55 0 85 -55 119 -55c21 0 33 12 37 33c1 8 10 16 17 16h22c22 0 36 -15 33 -36c-8 -63 -38 -95 -89 -95c-60 0 -85 55 -120 55c-20 0 -32 -12 -36 -33c-1 -8 -10 -16 -17 -16h-23c-22 0 -36 15 -33 36c8 63 39 95 90 95zM210 35c0 -19 -16 -35 -35 -35h-48
c-19 0 -35 16 -35 35v630c0 19 16 35 35 35h48c19 0 35 -16 35 -35v-630z" />
    <glyph glyph-name="itilde" unicode="&#x129;" horiz-adv-x="284" 
d="M73 758c55 0 85 -55 119 -55c21 0 33 12 37 33c1 8 10 16 17 16h22c22 0 36 -15 33 -36c-8 -63 -38 -95 -89 -95c-60 0 -85 55 -120 55c-20 0 -32 -12 -36 -33c-1 -8 -10 -16 -17 -16h-23c-22 0 -36 15 -33 36c8 63 39 95 90 95zM199 35c0 -19 -16 -35 -35 -35h-44
c-19 0 -35 16 -35 35v462c0 19 16 35 35 35h44c19 0 35 -16 35 -35v-462z" />
    <glyph glyph-name="Imacron" unicode="&#x12a;" horiz-adv-x="302" 
d="M279 844c0 -19 -16 -35 -35 -35h-185c-19 0 -35 16 -35 35v13c0 19 16 35 35 35h185c19 0 35 -16 35 -35v-13zM210 35c0 -19 -16 -35 -35 -35h-48c-19 0 -35 16 -35 35v630c0 19 16 35 35 35h48c19 0 35 -16 35 -35v-630z" />
    <glyph glyph-name="imacron" unicode="&#x12b;" horiz-adv-x="284" 
d="M270 676c0 -19 -16 -35 -35 -35h-185c-19 0 -35 16 -35 35v13c0 19 16 35 35 35h185c19 0 35 -16 35 -35v-13zM199 35c0 -19 -16 -35 -35 -35h-44c-19 0 -35 16 -35 35v462c0 19 16 35 35 35h44c19 0 35 -16 35 -35v-462z" />
    <glyph glyph-name="Iogonek" unicode="&#x12e;" horiz-adv-x="302" 
d="M208 -115c4 5 12 5 16 1l11 -14c9 -10 10 -23 1 -33c-22 -26 -51 -40 -82 -40c-39 0 -79 23 -79 78c0 33 15 68 43 109c4 7 -1 14 -8 14c-10 0 -18 8 -18 18v647c0 19 16 35 35 35h48c19 0 35 -16 35 -35v-653c0 -7 -5 -12 -12 -12c-6 0 -16 -6 -19 -11
c-29 -42 -42 -73 -42 -94c0 -20 12 -32 29 -32c16 0 29 9 42 22z" />
    <glyph glyph-name="iogonek" unicode="&#x12f;" horiz-adv-x="267" 
d="M135 754c39 0 67 -29 67 -70s-28 -70 -67 -70c-38 0 -67 29 -67 70s29 70 67 70zM193 12c0 -7 -5 -12 -12 -12c-6 0 -16 -6 -19 -11c-29 -42 -42 -73 -42 -94c0 -20 12 -32 30 -32c15 0 28 9 41 22c4 5 12 5 16 1l11 -14c9 -10 10 -23 1 -33c-22 -26 -51 -40 -82 -40
c-39 0 -79 23 -79 78c0 33 15 68 43 109c3 6 0 14 -7 14c-9 0 -16 7 -16 16v481c0 19 16 35 35 35h45c19 0 35 -16 35 -35v-485z" />
    <glyph glyph-name="Idotaccent" unicode="&#x130;" horiz-adv-x="302" 
d="M151 922c38 0 67 -29 67 -70c0 -40 -29 -69 -67 -69s-67 29 -67 69c0 41 29 70 67 70zM210 35c0 -19 -16 -35 -35 -35h-48c-19 0 -35 16 -35 35v630c0 19 16 35 35 35h48c19 0 35 -16 35 -35v-630z" />
    <glyph glyph-name="dotlessi" unicode="&#x131;" horiz-adv-x="284" 
d="M199 35c0 -19 -16 -35 -35 -35h-44c-19 0 -35 16 -35 35v462c0 19 16 35 35 35h44c19 0 35 -16 35 -35v-462z" />
    <glyph glyph-name="IJ" unicode="&#x132;" horiz-adv-x="801" 
d="M210 35c0 -19 -16 -35 -35 -35h-48c-19 0 -35 16 -35 35v630c0 19 16 35 35 35h48c19 0 35 -16 35 -35v-630zM689 700c19 0 35 -16 35 -35v-449c0 -141 -83 -221 -218 -221c-76 0 -140 30 -190 83c-10 10 -10 27 -3 39l25 40c9 14 30 16 43 5c40 -35 84 -53 124 -53
c63 0 100 39 100 111v339c0 19 -16 35 -35 35h-172c-19 0 -35 16 -35 35v36c0 19 16 35 35 35h291z" />
    <glyph glyph-name="ij" unicode="&#x133;" horiz-adv-x="571" 
d="M142 754c38 0 67 -29 67 -70c0 -40 -29 -69 -67 -69s-67 29 -67 69c0 41 29 70 67 70zM425 754c42 0 71 -29 71 -70c0 -40 -29 -70 -71 -70c-40 0 -70 30 -70 70c0 41 30 70 70 70zM199 35c0 -19 -16 -35 -35 -35h-44c-19 0 -35 16 -35 35v462c0 19 16 35 35 35h44
c19 0 35 -16 35 -35v-462zM447 532c19 0 35 -16 35 -35v-512c0 -126 -87 -184 -172 -184c-33 0 -66 9 -94 25c-10 6 -14 18 -9 29l25 59c2 6 10 9 15 5c19 -11 39 -17 58 -17c35 0 63 21 63 72v523c0 19 16 35 35 35h44z" />
    <glyph glyph-name="Jcircumflex" unicode="&#x134;" horiz-adv-x="499" 
d="M366 817c13 -17 2 -38 -19 -38h-29c-8 0 -24 8 -28 15l-23 32c-15 21 -43 21 -58 0l-23 -32c-4 -7 -20 -15 -28 -15h-29c-21 0 -32 21 -19 38l65 89c4 6 20 14 28 14h70c8 0 24 -8 28 -14zM387 700c19 0 35 -16 35 -35v-449c0 -141 -83 -221 -218 -221
c-76 0 -140 30 -190 83c-10 10 -10 27 -3 39l25 40c9 14 30 16 43 5c40 -35 84 -53 124 -53c63 0 100 39 100 111v339c0 19 -16 35 -35 35h-172c-19 0 -35 16 -35 35v36c0 19 16 35 35 35h291z" />
    <glyph glyph-name="jcircumflex" unicode="&#x135;" horiz-adv-x="274" 
d="M265 649c13 -17 2 -38 -19 -38h-29c-8 0 -24 8 -28 15l-23 32c-15 21 -43 21 -58 0l-23 -32c-4 -7 -20 -15 -28 -15h-29c-21 0 -32 21 -19 38l65 89c4 6 20 14 28 14h70c8 0 24 -8 28 -14zM164 532c19 0 35 -16 35 -35v-521c0 -112 -61 -175 -163 -174
c-39 1 -76 9 -107 25c-12 6 -17 19 -13 31l18 51c2 6 10 9 16 6c20 -11 40 -16 62 -17c47 -1 72 32 72 95v504c0 19 16 35 35 35h45z" />
    <glyph glyph-name="Kcommaaccent" unicode="&#x136;" horiz-adv-x="718" 
d="M661 55c18 -24 2 -55 -28 -55h-56c-8 0 -24 8 -28 14l-195 261c-13 18 -38 20 -54 3l-81 -90c-3 -4 -9 -19 -9 -24v-129c0 -19 -16 -35 -35 -35h-48c-19 0 -35 16 -35 35v630c0 19 16 35 35 35h48c19 0 35 -16 35 -35v-237c0 -34 38 -49 61 -24l263 285c4 4 19 11 25 11
h55c28 0 41 -30 22 -51l-205 -227c-10 -11 -11 -32 -2 -44zM359 -49c32 0 61 -24 61 -64c0 -19 -7 -36 -18 -52l-47 -70c-4 -8 -20 -16 -29 -16h-10c-15 0 -24 13 -18 27l22 49c2 4 -1 14 -5 17c-12 12 -18 28 -18 45c0 37 26 64 62 64z" />
    <glyph glyph-name="kcedilla" unicode="&#x137;" horiz-adv-x="595" 
d="M189 0c-8 0 -20 -7 -23 -14l-7 -14c-4 -9 3 -21 11 -25c30 -12 49 -39 50 -70c1 -59 -43 -98 -110 -98c-23 0 -52 7 -74 20c-8 4 -9 12 -5 20l14 33c1 4 6 5 10 3c13 -8 30 -14 45 -14c32 0 53 20 52 47c0 26 -20 43 -48 43c-8 0 -20 -2 -28 -3c-2 0 -3 2 -2 4l29 61
c1 3 -1 7 -5 7s-8 4 -8 8v699c0 19 16 35 35 35h45c19 0 35 -16 35 -35v-328c0 -33 37 -48 60 -24l165 167c4 4 19 10 25 10h51c26 0 39 -29 20 -48l-132 -138c-10 -11 -12 -31 -4 -43l162 -249c16 -25 0 -54 -30 -54h-52c-9 0 -25 9 -29 16l-122 190c-13 20 -38 23 -55 6
l-49 -53c-4 -4 -10 -19 -10 -24v-119c0 -9 -7 -16 -16 -16z" />
    <glyph glyph-name="kgreenlandic" unicode="&#x138;" horiz-adv-x="590" 
d="M315 206c-13 21 -38 23 -55 6l-51 -54c-4 -4 -10 -19 -10 -24v-99c0 -19 -16 -35 -35 -35h-44c-19 0 -35 16 -35 35v462c0 19 16 35 35 35h44c19 0 35 -16 35 -35v-118c0 -33 37 -48 60 -25l166 168c4 4 19 10 25 10h51c26 0 39 -29 20 -48l-132 -138
c-10 -11 -12 -31 -4 -43l162 -249c16 -25 0 -54 -30 -54h-52c-9 0 -25 9 -29 16z" />
    <glyph glyph-name="Lacute" unicode="&#x139;" horiz-adv-x="534" 
d="M256 897c26 -11 31 -42 8 -60l-66 -53c-4 -3 -18 -8 -22 -8h-39c-23 0 -35 23 -21 41l60 84c8 12 28 18 42 12zM210 142c0 -19 16 -35 35 -35h233c19 0 35 -16 35 -35v-37c0 -19 -16 -35 -35 -35h-351c-19 0 -35 16 -35 35v630c0 19 16 35 35 35h48c19 0 35 -16 35 -35
v-523z" />
    <glyph glyph-name="lacute" unicode="&#x13a;" horiz-adv-x="295" 
d="M251 939c26 -11 31 -42 8 -60l-66 -53c-4 -3 -18 -8 -22 -8h-39c-23 0 -35 23 -21 41l60 84c8 12 28 18 42 12zM205 35c0 -19 -16 -35 -35 -35h-45c-19 0 -35 16 -35 35v672c0 19 16 35 35 35h45c19 0 35 -16 35 -35v-672z" />
    <glyph glyph-name="Lcommaaccent" unicode="&#x13b;" horiz-adv-x="534" 
d="M478 107c19 0 35 -16 35 -35v-37c0 -19 -16 -35 -35 -35h-351c-19 0 -35 16 -35 35v630c0 19 16 35 35 35h48c19 0 35 -16 35 -35v-523c0 -19 16 -35 35 -35h233zM296 -49c32 0 61 -24 61 -64c0 -19 -7 -36 -18 -52l-47 -70c-4 -8 -20 -16 -29 -16h-10
c-15 0 -24 13 -18 27l22 49c2 4 -1 14 -5 17c-12 12 -18 28 -18 45c0 37 26 64 62 64z" />
    <glyph glyph-name="lcommaaccent" unicode="&#x13c;" horiz-adv-x="295" 
d="M205 35c0 -19 -16 -35 -35 -35h-45c-19 0 -35 16 -35 35v672c0 19 16 35 35 35h45c19 0 35 -16 35 -35v-672zM154 -49c32 0 61 -24 61 -64c0 -19 -7 -36 -18 -52l-47 -70c-4 -8 -20 -16 -29 -16h-10c-15 0 -24 13 -18 27l22 49c2 4 -1 14 -5 17c-12 12 -18 28 -18 45
c0 37 26 64 62 64z" />
    <glyph glyph-name="Lcaron" unicode="&#x13d;" horiz-adv-x="534" 
d="M478 107c19 0 35 -16 35 -35v-37c0 -19 -16 -35 -35 -35h-351c-19 0 -35 16 -35 35v630c0 19 16 35 35 35h48c19 0 35 -16 35 -35v-523c0 -19 16 -35 35 -35h233zM395 466c-15 0 -24 13 -18 27l22 50c2 4 -1 14 -5 17c-12 12 -18 28 -18 45c0 37 26 64 62 64
c32 0 61 -24 61 -64c0 -20 -7 -37 -18 -53l-47 -70c-4 -8 -20 -16 -29 -16h-10z" />
    <glyph glyph-name="lcaron" unicode="&#x13e;" horiz-adv-x="320" 
d="M90 707c0 19 16 35 35 35h45c19 0 35 -16 35 -35v-672c0 -19 -16 -35 -35 -35h-45c-19 0 -35 16 -35 35v672zM315 685c32 0 61 -24 61 -64c0 -20 -7 -37 -18 -53l-47 -70c-4 -8 -20 -16 -29 -16h-10c-15 0 -24 13 -18 27l22 50c2 4 -1 14 -5 17c-12 12 -18 28 -18 45
c0 37 26 64 62 64z" />
    <glyph glyph-name="Ldot" unicode="&#x13f;" horiz-adv-x="534" 
d="M210 142c0 -19 16 -35 35 -35h233c19 0 35 -16 35 -35v-37c0 -19 -16 -35 -35 -35h-351c-19 0 -35 16 -35 35v630c0 19 16 35 35 35h48c19 0 35 -16 35 -35v-523zM396 528c34 0 60 -26 60 -63s-26 -64 -60 -64s-60 27 -60 64s26 63 60 63z" />
    <glyph glyph-name="ldot" unicode="&#x140;" horiz-adv-x="333" 
d="M205 35c0 -19 -16 -35 -35 -35h-45c-19 0 -35 16 -35 35v672c0 19 16 35 35 35h45c19 0 35 -16 35 -35v-672zM304 374c35 0 61 -27 61 -65c0 -36 -26 -63 -61 -63c-36 0 -62 27 -62 63c0 38 26 65 62 65z" />
    <glyph glyph-name="Lslash" unicode="&#x141;" horiz-adv-x="551" 
d="M495 107c19 0 35 -16 35 -35v-37c0 -19 -16 -35 -35 -35h-351c-19 0 -35 16 -35 35v290c0 23 -19 37 -41 31l-8 -2c-19 -6 -38 6 -43 25l-2 8c-5 18 6 37 24 43l45 13c13 4 25 19 25 33v189c0 19 16 35 35 35h47c19 0 35 -16 35 -35v-133c0 -25 21 -41 45 -34l80 24
c19 5 39 -6 44 -25l2 -9c5 -18 -6 -37 -24 -43l-122 -36c-13 -4 -25 -19 -25 -33v-234c0 -19 16 -35 35 -35h234z" />
    <glyph glyph-name="lslash" unicode="&#x142;" horiz-adv-x="310" 
d="M247 428c-13 -4 -25 -19 -25 -33v-360c0 -19 -16 -35 -35 -35h-45c-19 0 -35 16 -35 35v306c0 25 -21 41 -45 34l-28 -9c-19 -5 -39 6 -44 25l-2 8c-5 18 6 37 24 43l70 21c13 3 25 19 25 33v211c0 19 16 35 35 35h45c19 0 35 -16 35 -35v-156c0 -25 21 -41 45 -34l15 5
c19 5 39 -6 44 -25l2 -9c5 -18 -6 -37 -23 -43z" />
    <glyph glyph-name="Nacute" unicode="&#x143;" horiz-adv-x="792" 
d="M499 897c26 -11 31 -42 8 -60l-66 -53c-4 -3 -18 -8 -22 -8h-39c-23 0 -35 23 -21 41l60 84c8 12 28 18 42 12zM699 35c0 -19 -16 -35 -35 -35h-63c-8 0 -24 8 -28 14l-300 403c-21 28 -63 14 -63 -21v-361c0 -19 -16 -35 -35 -35h-48c-19 0 -35 16 -35 35v630
c0 19 16 35 35 35h63c8 0 24 -8 28 -14l302 -404c21 -28 63 -14 63 21v362c0 19 16 35 35 35h46c19 0 35 -16 35 -35v-630z" />
    <glyph glyph-name="nacute" unicode="&#x144;" horiz-adv-x="663" 
d="M391 616c-4 -3 -18 -8 -22 -8h-39c-23 0 -35 23 -21 41l60 84c8 12 28 18 42 12l38 -16c26 -11 31 -42 8 -60zM351 428c-91 -1 -140 -62 -151 -147v-246c0 -19 -16 -35 -35 -35h-45c-19 0 -35 16 -35 35v462c0 19 16 35 35 35h45c19 0 35 -16 35 -35v-25
c0 -10 16 -15 23 -7c39 49 99 71 173 71c124 0 198 -78 198 -205v-296c0 -19 -16 -35 -35 -35h-45c-19 0 -35 16 -35 35v264c0 80 -48 129 -128 129z" />
    <glyph glyph-name="Ncommaaccent" unicode="&#x145;" horiz-adv-x="792" 
d="M664 700c19 0 35 -16 35 -35v-630c0 -19 -16 -35 -35 -35h-63c-8 0 -24 8 -28 14l-300 403c-21 28 -63 14 -63 -21v-361c0 -19 -16 -35 -35 -35h-48c-19 0 -35 16 -35 35v630c0 19 16 35 35 35h63c8 0 24 -8 28 -14l302 -404c21 -28 63 -14 63 21v362c0 19 16 35 35 35
h46zM402 -49c32 0 61 -24 61 -64c0 -19 -7 -36 -18 -52l-47 -70c-4 -8 -20 -16 -29 -16h-10c-15 0 -24 13 -18 27l22 49c2 4 -1 14 -5 17c-12 12 -18 28 -18 45c0 37 26 64 62 64z" />
    <glyph glyph-name="ncommaaccent" unicode="&#x146;" horiz-adv-x="663" 
d="M351 428c-91 -1 -140 -62 -151 -147v-246c0 -19 -16 -35 -35 -35h-45c-19 0 -35 16 -35 35v462c0 19 16 35 35 35h45c19 0 35 -16 35 -35v-25c0 -10 16 -15 23 -7c39 49 99 71 173 71c124 0 198 -78 198 -205v-296c0 -19 -16 -35 -35 -35h-45c-19 0 -35 16 -35 35v264
c0 80 -48 129 -128 129zM342 -49c32 0 61 -24 61 -64c0 -19 -7 -36 -18 -52l-47 -70c-4 -8 -20 -16 -29 -16h-10c-15 0 -24 13 -18 27l22 49c2 4 -1 14 -5 17c-12 12 -18 28 -18 45c0 37 26 64 62 64z" />
    <glyph glyph-name="Ncaron" unicode="&#x147;" horiz-adv-x="792" 
d="M258 879c-14 18 -2 41 21 41h32c9 0 25 -8 29 -15l24 -35c15 -22 43 -22 58 0l24 35c4 7 20 15 29 15h32c23 0 35 -23 21 -41l-68 -94c-4 -7 -20 -15 -28 -15h-78c-8 0 -24 8 -28 15zM699 35c0 -19 -16 -35 -35 -35h-63c-8 0 -24 8 -28 14l-300 403
c-21 28 -63 14 -63 -21v-361c0 -19 -16 -35 -35 -35h-48c-19 0 -35 16 -35 35v630c0 19 16 35 35 35h63c8 0 24 -8 28 -14l302 -404c21 -28 63 -14 63 21v362c0 19 16 35 35 35h46c19 0 35 -16 35 -35v-630z" />
    <glyph glyph-name="ncaron" unicode="&#x148;" horiz-adv-x="663" 
d="M304 602c-8 0 -24 8 -28 15l-68 94c-14 18 -2 41 21 41h32c9 0 25 -8 29 -15l24 -35c15 -22 43 -22 58 0l24 35c4 7 20 15 29 15h32c23 0 35 -23 21 -41l-68 -94c-4 -7 -20 -15 -28 -15h-78zM351 428c-91 -1 -140 -62 -151 -147v-246c0 -19 -16 -35 -35 -35h-45
c-19 0 -35 16 -35 35v462c0 19 16 35 35 35h45c19 0 35 -16 35 -35v-25c0 -10 16 -15 23 -7c39 49 99 71 173 71c124 0 198 -78 198 -205v-296c0 -19 -16 -35 -35 -35h-45c-19 0 -35 16 -35 35v264c0 80 -48 129 -128 129z" />
    <glyph glyph-name="Omacron" unicode="&#x14c;" horiz-adv-x="810" 
d="M528 844c0 -19 -16 -35 -35 -35h-185c-19 0 -35 16 -35 35v13c0 19 16 35 35 35h185c19 0 35 -16 35 -35v-13zM405 703c209 0 371 -153 371 -353s-162 -355 -371 -355s-371 155 -371 355c0 201 162 353 371 353zM406 597c-138 0 -252 -108 -252 -247s115 -249 252 -249
s249 110 249 249s-112 247 -249 247z" />
    <glyph glyph-name="omacron" unicode="&#x14d;" horiz-adv-x="625" 
d="M440 676c0 -19 -16 -35 -35 -35h-185c-19 0 -35 16 -35 35v13c0 19 16 35 35 35h185c19 0 35 -16 35 -35v-13zM313 536c164 0 277 -109 277 -270c0 -160 -113 -270 -277 -270c-165 0 -278 110 -278 270c0 161 113 270 278 270zM313 437c-96 0 -163 -70 -163 -172
c0 -103 67 -173 163 -173c95 0 162 70 162 173c0 102 -67 172 -162 172z" />
    <glyph glyph-name="Ohungarumlaut" unicode="&#x150;" horiz-adv-x="810" 
d="M393 903c22 -10 28 -36 12 -54l-52 -62c-4 -6 -19 -13 -26 -13h-28c-22 0 -34 20 -24 39l47 86c8 16 28 23 45 16zM558 903c22 -10 28 -36 12 -54l-52 -62c-4 -6 -19 -13 -26 -13h-28c-22 0 -34 20 -24 39l47 86c8 16 28 23 45 16zM405 703c209 0 371 -153 371 -353
s-162 -355 -371 -355s-371 155 -371 355c0 201 162 353 371 353zM406 597c-138 0 -252 -108 -252 -247s115 -249 252 -249s249 110 249 249s-112 247 -249 247z" />
    <glyph glyph-name="ohungarumlaut" unicode="&#x151;" horiz-adv-x="625" 
d="M306 735c22 -10 28 -36 12 -54l-52 -62c-4 -6 -19 -13 -26 -13h-28c-22 0 -34 20 -24 39l47 86c8 16 28 23 45 16zM471 735c22 -10 28 -36 12 -54l-52 -62c-4 -6 -19 -13 -26 -13h-28c-22 0 -34 20 -24 39l47 86c8 16 28 23 45 16zM313 536c164 0 277 -109 277 -270
c0 -160 -113 -270 -277 -270c-165 0 -278 110 -278 270c0 161 113 270 278 270zM313 437c-96 0 -163 -70 -163 -172c0 -103 67 -173 163 -173c95 0 162 70 162 173c0 102 -67 172 -162 172z" />
    <glyph glyph-name="OE" unicode="&#x152;" horiz-adv-x="1097" 
d="M1010 106c19 0 35 -16 35 -35v-36c0 -19 -16 -35 -35 -35h-606c-208 0 -370 152 -370 350c0 196 161 350 370 350h594c19 0 35 -16 35 -35v-36c0 -19 -16 -35 -35 -35h-312c-19 0 -35 -16 -35 -35v-120c0 -19 16 -35 35 -35h272c19 0 35 -16 35 -35v-35
c0 -19 -16 -35 -35 -35h-272c-19 0 -35 -16 -35 -35v-123c0 -19 16 -35 35 -35h324zM498 106c19 0 35 16 35 35v417c0 19 -16 35 -35 35h-93c-141 0 -251 -105 -251 -244s110 -243 251 -243h93z" />
    <glyph glyph-name="oe" unicode="&#x153;" horiz-adv-x="1040" 
d="M742 536c154 0 254 -102 264 -256c2 -21 -12 -39 -33 -39h-349c-26 0 -39 -16 -31 -40c23 -70 83 -112 161 -112c48 0 92 15 129 43c11 8 32 8 41 -2l20 -20c14 -15 12 -35 -3 -48c-51 -42 -118 -66 -197 -66c-82 0 -146 30 -189 82c-10 12 -40 12 -50 0
c-44 -52 -110 -82 -192 -82c-165 0 -278 110 -278 270c0 161 113 270 278 270c82 0 149 -30 192 -82c10 -12 40 -12 50 0c44 51 108 82 187 82zM593 341c-8 -25 6 -38 31 -38h232c24 0 37 14 31 37c-16 67 -70 111 -144 111c-73 0 -128 -43 -150 -110zM313 92
c95 0 162 70 162 173c0 102 -67 172 -162 172c-96 0 -163 -70 -163 -172c0 -103 67 -173 163 -173z" />
    <glyph glyph-name="Racute" unicode="&#x154;" horiz-adv-x="723" 
d="M400 784c-4 -3 -18 -8 -22 -8h-39c-23 0 -35 23 -21 41l60 84c8 12 28 18 42 12l38 -16c26 -11 31 -42 8 -60zM556 0c-10 0 -25 9 -30 17l-115 191c-2 2 -5 4 -7 4c-9 -1 -19 -1 -28 -1h-131c-19 0 -35 -16 -35 -35v-141c0 -19 -16 -35 -35 -35h-48c-19 0 -35 16 -35 35
v630c0 19 16 35 35 35h249c179 0 282 -87 282 -239c0 -95 -38 -167 -106 -208c-17 -10 -26 -39 -15 -55l96 -143c17 -25 1 -55 -29 -55h-48zM210 352c0 -19 16 -35 35 -35h131c108 0 170 46 170 141c0 92 -62 136 -170 136h-131c-19 0 -35 -16 -35 -35v-207z" />
    <glyph glyph-name="racute" unicode="&#x155;" horiz-adv-x="394" 
d="M248 616c-4 -3 -18 -8 -22 -8h-39c-23 0 -35 23 -21 41l60 84c8 12 28 18 42 12l38 -16c26 -11 31 -42 8 -60zM165 532c19 0 35 -16 35 -35v-31c0 -9 16 -13 21 -5c31 40 74 65 127 72c21 4 36 -10 36 -32v-38c0 -17 -21 -36 -38 -38c-87 -9 -137 -67 -146 -149v-241
c0 -19 -16 -35 -35 -35h-45c-19 0 -35 16 -35 35v462c0 19 16 35 35 35h45z" />
    <glyph glyph-name="Rcommaaccent" unicode="&#x156;" horiz-adv-x="723" 
d="M633 55c17 -25 1 -55 -29 -55h-48c-10 0 -25 9 -30 17l-115 191c-2 2 -5 4 -7 4c-9 -1 -19 -1 -28 -1h-131c-19 0 -35 -16 -35 -35v-141c0 -19 -16 -35 -35 -35h-48c-19 0 -35 16 -35 35v630c0 19 16 35 35 35h249c179 0 282 -87 282 -239c0 -95 -38 -167 -106 -208
c-17 -10 -26 -39 -15 -55zM210 352c0 -19 16 -35 35 -35h131c108 0 170 46 170 141c0 92 -62 136 -170 136h-131c-19 0 -35 -16 -35 -35v-207zM366 -49c32 0 61 -24 61 -64c0 -19 -7 -36 -18 -52l-47 -70c-4 -8 -20 -16 -29 -16h-10c-15 0 -24 13 -18 27l22 49
c2 4 -1 14 -5 17c-12 12 -18 28 -18 45c0 37 26 64 62 64z" />
    <glyph glyph-name="rcommaaccent" unicode="&#x157;" horiz-adv-x="394" 
d="M165 532c19 0 35 -16 35 -35v-31c0 -9 16 -13 21 -5c31 40 74 65 127 72c21 4 36 -10 36 -32v-38c0 -17 -21 -36 -38 -38c-87 -9 -137 -67 -146 -149v-241c0 -19 -16 -35 -35 -35h-45c-19 0 -35 16 -35 35v462c0 19 16 35 35 35h45zM146 -49c32 0 61 -24 61 -64
c0 -19 -7 -36 -18 -52l-47 -70c-4 -8 -20 -16 -29 -16h-10c-15 0 -24 13 -18 27l22 49c2 4 -1 14 -5 17c-12 12 -18 28 -18 45c0 37 26 64 62 64z" />
    <glyph glyph-name="Rcaron" unicode="&#x158;" horiz-adv-x="723" 
d="M313 770c-8 0 -24 8 -28 15l-68 94c-14 18 -2 41 21 41h32c9 0 25 -8 29 -15l24 -35c15 -22 43 -22 58 0l24 35c4 7 20 15 29 15h32c23 0 35 -23 21 -41l-68 -94c-4 -7 -20 -15 -28 -15h-78zM556 0c-10 0 -25 9 -30 17l-115 191c-2 2 -5 4 -7 4c-9 -1 -19 -1 -28 -1h-131
c-19 0 -35 -16 -35 -35v-141c0 -19 -16 -35 -35 -35h-48c-19 0 -35 16 -35 35v630c0 19 16 35 35 35h249c179 0 282 -87 282 -239c0 -95 -38 -167 -106 -208c-17 -10 -26 -39 -15 -55l96 -143c17 -25 1 -55 -29 -55h-48zM210 352c0 -19 16 -35 35 -35h131
c108 0 170 46 170 141c0 92 -62 136 -170 136h-131c-19 0 -35 -16 -35 -35v-207z" />
    <glyph glyph-name="rcaron" unicode="&#x159;" horiz-adv-x="394" 
d="M161 602c-8 0 -24 8 -28 15l-68 94c-14 18 -2 41 21 41h32c9 0 25 -8 29 -15l24 -35c15 -22 43 -22 58 0l24 35c4 7 20 15 29 15h32c23 0 35 -23 21 -41l-68 -94c-4 -7 -20 -15 -28 -15h-78zM165 532c19 0 35 -16 35 -35v-31c0 -9 16 -13 21 -5c31 40 74 65 127 72
c21 4 36 -10 36 -32v-38c0 -17 -21 -36 -38 -38c-87 -9 -137 -67 -146 -149v-241c0 -19 -16 -35 -35 -35h-45c-19 0 -35 16 -35 35v462c0 19 16 35 35 35h45z" />
    <glyph glyph-name="Sacute" unicode="&#x15a;" horiz-adv-x="622" 
d="M422 897c26 -11 31 -42 8 -60l-66 -53c-4 -3 -18 -8 -22 -8h-39c-23 0 -35 23 -21 41l60 84c8 12 28 18 42 12zM322 705c80 0 158 -22 220 -57c15 -8 20 -26 12 -42l-19 -42c-9 -18 -33 -25 -51 -16c-64 32 -126 46 -171 46c-69 0 -114 -26 -114 -73
c0 -153 378 -71 377 -323c0 -125 -110 -202 -264 -202c-99 0 -193 36 -263 92c-13 9 -18 29 -11 43l18 36c10 21 36 28 55 14c65 -48 139 -74 203 -74c82 0 131 31 131 85c0 156 -378 69 -378 318c0 120 103 195 255 195z" />
    <glyph glyph-name="sacute" unicode="&#x15b;" horiz-adv-x="470" 
d="M344 729c26 -11 31 -42 8 -60l-66 -53c-4 -3 -18 -8 -22 -8h-39c-23 0 -35 23 -21 41l60 84c8 12 28 18 42 12zM244 537c57 0 117 -14 163 -40c16 -8 18 -24 10 -40l-17 -34c-6 -13 -25 -17 -38 -11c-41 21 -88 33 -127 33c-45 0 -78 -15 -78 -53c0 -98 283 -45 282 -238
c0 -109 -97 -158 -204 -158c-68 0 -140 20 -193 57c-13 10 -16 26 -9 41l15 30c7 14 24 19 36 11c46 -31 107 -49 156 -49s87 17 87 57c0 109 -280 48 -279 240c0 108 94 154 196 154z" />
    <glyph glyph-name="Scedilla" unicode="&#x15e;" horiz-adv-x="622" 
d="M199 521c0 -153 378 -71 377 -323c0 -104 -77 -175 -192 -196c-7 -2 -23 -13 -26 -20l-6 -13c-4 -8 3 -21 12 -25c30 -12 49 -37 49 -73c0 -58 -47 -95 -106 -95c-27 0 -54 7 -75 20c-8 4 -11 13 -8 21l13 31c2 5 9 6 13 4c15 -9 33 -14 49 -14c29 0 46 21 46 41
c0 19 -15 38 -48 38c-10 0 -21 -2 -31 -4c-2 0 -3 2 -2 4l16 37c9 20 -7 43 -29 46c-77 12 -148 44 -203 89c-13 9 -17 28 -10 42l18 36c10 21 36 28 55 14c65 -48 139 -74 203 -74c82 0 131 31 131 85c0 156 -378 69 -378 318c0 120 103 195 255 195c80 0 158 -22 220 -57
c15 -8 20 -26 12 -42l-19 -42c-9 -18 -33 -25 -51 -16c-64 32 -126 46 -171 46c-69 0 -114 -26 -114 -73z" />
    <glyph glyph-name="scedilla" unicode="&#x15f;" horiz-adv-x="470" 
d="M157 392c0 -98 283 -45 282 -238c0 -85 -59 -133 -135 -150c-7 -2 -24 -14 -27 -21l-7 -14c-4 -8 3 -21 12 -25c30 -12 49 -37 49 -73c0 -58 -47 -95 -106 -95c-27 0 -54 7 -75 20c-8 4 -11 13 -8 21l13 31c2 5 9 6 13 4c15 -9 33 -14 49 -14c29 0 46 21 46 41
c0 19 -15 38 -48 38c-10 0 -21 -2 -31 -4c-2 0 -3 2 -2 4l20 47c7 16 -7 34 -24 37c-50 7 -99 26 -138 53c-13 10 -14 25 -7 40l15 30c7 14 24 19 36 11c46 -31 107 -49 156 -49s87 17 87 57c0 109 -280 48 -279 240c0 108 94 154 196 154c57 0 117 -14 163 -40
c16 -8 18 -24 10 -40l-17 -34c-6 -13 -25 -17 -38 -11c-41 21 -88 33 -127 33c-45 0 -78 -15 -78 -53z" />
    <glyph glyph-name="Scaron" unicode="&#x160;" horiz-adv-x="622" 
d="M181 879c-14 18 -2 41 21 41h32c9 0 25 -8 29 -15l24 -35c15 -22 43 -22 58 0l24 35c4 7 20 15 29 15h32c23 0 35 -23 21 -41l-68 -94c-4 -7 -20 -15 -28 -15h-78c-8 0 -24 8 -28 15zM322 705c80 0 158 -22 220 -57c15 -8 20 -26 12 -42l-19 -42c-9 -18 -33 -25 -51 -16
c-64 32 -126 46 -171 46c-69 0 -114 -26 -114 -73c0 -153 378 -71 377 -323c0 -125 -110 -202 -264 -202c-99 0 -193 36 -263 92c-13 9 -18 29 -11 43l18 36c10 21 36 28 55 14c65 -48 139 -74 203 -74c82 0 131 31 131 85c0 156 -378 69 -378 318c0 120 103 195 255 195z
" />
    <glyph glyph-name="scaron" unicode="&#x161;" horiz-adv-x="470" 
d="M103 711c-14 18 -2 41 21 41h32c9 0 25 -8 29 -15l24 -35c15 -22 43 -22 58 0l24 35c4 7 20 15 29 15h32c23 0 35 -23 21 -41l-68 -94c-4 -7 -20 -15 -28 -15h-78c-8 0 -24 8 -28 15zM244 537c57 0 117 -14 163 -40c16 -8 18 -24 10 -40l-17 -34c-6 -13 -25 -17 -38 -11
c-41 21 -88 33 -127 33c-45 0 -78 -15 -78 -53c0 -98 283 -45 282 -238c0 -109 -97 -158 -204 -158c-68 0 -140 20 -193 57c-13 10 -16 26 -9 41l15 30c7 14 24 19 36 11c46 -31 107 -49 156 -49s87 17 87 57c0 109 -280 48 -279 240c0 108 94 154 196 154z" />
    <glyph glyph-name="Tcedilla" unicode="&#x162;" horiz-adv-x="579" 
d="M338 0c-6 0 -13 -5 -16 -9l-10 -22c-4 -8 3 -21 12 -25c30 -12 49 -37 49 -73c0 -58 -47 -95 -106 -95c-27 0 -54 7 -75 20c-8 4 -11 13 -8 21l13 31c2 5 9 6 13 4c15 -9 33 -14 49 -14c29 0 46 21 46 41c0 19 -15 38 -48 38c-10 0 -21 -2 -31 -4c-2 0 -3 2 -2 4l29 70
c3 6 -1 13 -8 13c-9 0 -15 6 -15 15v544c0 19 -16 35 -35 35h-151c-19 0 -35 16 -35 35v36c0 19 16 35 35 35h491c19 0 35 -16 35 -35v-36c0 -19 -16 -35 -35 -35h-152c-19 0 -35 -16 -35 -35v-548c0 -6 -5 -11 -10 -11z" />
    <glyph glyph-name="tcedilla" unicode="&#x163;" horiz-adv-x="407" 
d="M311 2c-6 -1 -20 -12 -23 -17l-7 -16c-4 -8 3 -21 12 -25c30 -12 49 -37 49 -73c0 -58 -47 -95 -106 -95c-27 0 -54 7 -75 20c-8 4 -11 13 -8 21l13 31c2 5 9 6 13 4c15 -9 33 -14 49 -14c29 0 46 21 46 41c0 19 -15 38 -48 38c-10 0 -21 -2 -31 -4c-2 0 -3 2 -2 4l21 49
c6 14 -7 34 -21 40c-50 19 -87 65 -87 144v241c0 19 -16 35 -35 35h-5c-19 0 -35 16 -35 35v16c0 19 16 35 35 35h5c19 0 35 16 35 35v76c0 19 16 35 35 35h44c19 0 35 -16 35 -35v-76c0 -19 16 -35 35 -35h87c19 0 35 -16 35 -35v-16c0 -19 -16 -35 -35 -35h-87
c-19 0 -35 -16 -35 -35v-220c0 -55 21 -72 57 -72c20 0 41 6 65 16c9 4 18 -1 20 -9l19 -56c3 -9 -2 -20 -10 -25c-20 -10 -40 -18 -60 -23z" />
    <glyph glyph-name="Tcaron" unicode="&#x164;" horiz-adv-x="579" 
d="M159 879c-14 18 -2 41 21 41h32c9 0 25 -8 29 -15l24 -35c15 -22 43 -22 58 0l24 35c4 7 20 15 29 15h32c23 0 35 -23 21 -41l-68 -94c-4 -7 -20 -15 -28 -15h-78c-8 0 -24 8 -28 15zM570 629c0 -19 -16 -35 -35 -35h-152c-19 0 -35 -16 -35 -35v-524
c0 -19 -16 -35 -35 -35h-48c-19 0 -35 16 -35 35v524c0 19 -16 35 -35 35h-151c-19 0 -35 16 -35 35v36c0 19 16 35 35 35h491c19 0 35 -16 35 -35v-36z" />
    <glyph glyph-name="tcaron" unicode="&#x165;" horiz-adv-x="382" 
d="M350 789c32 0 61 -24 61 -64c0 -20 -7 -37 -18 -53l-47 -70c-4 -8 -20 -16 -29 -16h-10c-15 0 -24 13 -18 27l22 50c2 4 -1 14 -5 17c-12 12 -18 28 -18 45c0 37 26 64 62 64zM277 99c20 0 41 6 65 16c9 4 18 -1 20 -9l16 -49c5 -14 -1 -29 -14 -35
c-35 -17 -72 -27 -109 -27c-80 0 -149 46 -149 155v241c0 19 -16 35 -35 35h-5c-19 0 -35 16 -35 35v16c0 19 16 35 35 35h5c19 0 35 16 35 35v76c0 19 16 35 35 35h44c19 0 35 -16 35 -35v-76c0 -19 16 -35 35 -35h87c19 0 35 -16 35 -35v-16c0 -19 -16 -35 -35 -35h-87
c-19 0 -35 -16 -35 -35v-220c0 -55 21 -72 57 -72z" />
    <glyph glyph-name="Umacron" unicode="&#x16a;" horiz-adv-x="764" 
d="M510 844c0 -19 -16 -35 -35 -35h-185c-19 0 -35 16 -35 35v13c0 19 16 35 35 35h185c19 0 35 -16 35 -35v-13zM652 700c19 0 35 -16 35 -35v-375c0 -183 -115 -295 -304 -295s-305 112 -305 295v375c0 19 16 35 35 35h48c19 0 35 -16 35 -35v-375
c0 -118 73 -189 188 -189c114 0 185 70 185 189v375c0 19 16 35 35 35h48z" />
    <glyph glyph-name="umacron" unicode="&#x16b;" horiz-adv-x="653" 
d="M451 676c0 -19 -16 -35 -35 -35h-185c-19 0 -35 16 -35 35v13c0 19 16 35 35 35h185c19 0 35 -16 35 -35v-13zM533 532c19 0 35 -16 35 -35v-462c0 -19 -16 -35 -35 -35h-45c-19 0 -35 16 -35 35v28c0 9 -16 13 -22 6c-38 -50 -96 -72 -168 -73c-122 0 -195 78 -195 205
v296c0 19 16 35 35 35h45c19 0 35 -16 35 -35v-264c0 -80 47 -129 124 -129c92 2 146 73 146 166v227c0 19 16 35 35 35h45z" />
    <glyph glyph-name="Uring" unicode="&#x16e;" horiz-adv-x="764" 
d="M382 969c65 0 118 -53 118 -116c0 -64 -53 -116 -118 -116s-118 52 -118 116c0 63 53 116 118 116zM382 917c-37 0 -68 -29 -68 -64s31 -64 68 -64s68 29 68 64s-31 64 -68 64zM652 700c19 0 35 -16 35 -35v-375c0 -183 -115 -295 -304 -295s-305 112 -305 295v375
c0 19 16 35 35 35h48c19 0 35 -16 35 -35v-375c0 -118 73 -189 188 -189c114 0 185 70 185 189v375c0 19 16 35 35 35h48z" />
    <glyph glyph-name="uring" unicode="&#x16f;" horiz-adv-x="653" 
d="M323 569c-65 0 -118 52 -118 116c0 63 53 116 118 116s118 -53 118 -116c0 -64 -53 -116 -118 -116zM323 749c-37 0 -68 -29 -68 -64s31 -64 68 -64s68 29 68 64s-31 64 -68 64zM533 532c19 0 35 -16 35 -35v-462c0 -19 -16 -35 -35 -35h-45c-19 0 -35 16 -35 35v28
c0 9 -16 13 -22 6c-38 -50 -96 -72 -168 -73c-122 0 -195 78 -195 205v296c0 19 16 35 35 35h45c19 0 35 -16 35 -35v-264c0 -80 47 -129 124 -129c92 2 146 73 146 166v227c0 19 16 35 35 35h45z" />
    <glyph glyph-name="Uhungarumlaut" unicode="&#x170;" horiz-adv-x="764" 
d="M375 903c22 -10 28 -36 12 -54l-52 -62c-4 -6 -19 -13 -26 -13h-28c-22 0 -34 20 -24 39l47 86c8 16 28 23 45 16zM540 903c22 -10 28 -36 12 -54l-52 -62c-4 -6 -19 -13 -26 -13h-28c-22 0 -34 20 -24 39l47 86c8 16 28 23 45 16zM652 700c19 0 35 -16 35 -35v-375
c0 -183 -115 -295 -304 -295s-305 112 -305 295v375c0 19 16 35 35 35h48c19 0 35 -16 35 -35v-375c0 -118 73 -189 188 -189c114 0 185 70 185 189v375c0 19 16 35 35 35h48z" />
    <glyph glyph-name="uhungarumlaut" unicode="&#x171;" horiz-adv-x="653" 
d="M276 619c-4 -6 -19 -13 -26 -13h-28c-22 0 -34 20 -24 39l47 86c8 16 28 23 45 16l26 -12c22 -10 28 -36 12 -54zM387 606c-22 0 -34 20 -24 39l47 86c8 16 28 23 45 16l26 -12c22 -10 28 -36 12 -54l-52 -62c-4 -6 -19 -13 -26 -13h-28zM533 532c19 0 35 -16 35 -35
v-462c0 -19 -16 -35 -35 -35h-45c-19 0 -35 16 -35 35v28c0 9 -16 13 -22 6c-38 -50 -96 -72 -168 -73c-122 0 -195 78 -195 205v296c0 19 16 35 35 35h45c19 0 35 -16 35 -35v-264c0 -80 47 -129 124 -129c92 2 146 73 146 166v227c0 19 16 35 35 35h45z" />
    <glyph glyph-name="Uogonek" unicode="&#x172;" horiz-adv-x="765" 
d="M652 700c19 0 35 -16 35 -35v-375c0 -143 -71 -244 -193 -280c-5 -2 -15 -11 -18 -14c-30 -46 -45 -79 -45 -101c0 -20 12 -32 29 -32c16 0 29 9 42 22c4 5 12 5 16 1l11 -14c9 -10 10 -23 1 -33c-22 -26 -51 -40 -82 -40c-39 0 -79 23 -79 78c0 34 16 72 46 116
c1 2 0 3 -2 3c-10 -1 -20 -1 -30 -1c-189 0 -305 112 -305 295v375c0 19 16 35 35 35h47c19 0 35 -16 35 -35v-375c0 -118 74 -189 189 -189c114 0 185 70 185 189v375c0 19 16 35 35 35h48z" />
    <glyph glyph-name="uogonek" unicode="&#x173;" horiz-adv-x="648" 
d="M308 104c87 2 135 64 145 147v246c0 19 16 35 35 35h44c19 0 35 -16 35 -35v-484c0 -7 -6 -13 -12 -13s-17 -6 -21 -11c-30 -42 -42 -73 -42 -94c0 -20 12 -32 30 -32c15 0 28 9 41 22c4 5 12 5 16 1l11 -14c9 -10 10 -23 1 -33c-22 -26 -51 -40 -82 -40
c-38 0 -79 23 -79 78c0 34 16 70 45 113c3 5 -1 10 -7 10c-9 0 -15 6 -15 15v44c0 10 -16 14 -22 7c-39 -47 -96 -69 -168 -70c-122 0 -194 78 -194 205v296c0 19 16 35 35 35h44c19 0 35 -16 35 -35v-264c0 -80 48 -129 125 -129z" />
    <glyph glyph-name="Wcircumflex" unicode="&#x174;" horiz-adv-x="1036" 
d="M651 817c13 -17 2 -38 -19 -38h-29c-8 0 -24 8 -28 15l-23 32c-15 21 -43 21 -58 0l-23 -32c-4 -7 -20 -15 -28 -15h-29c-21 0 -32 21 -19 38l65 89c4 6 20 14 28 14h70c8 0 24 -8 28 -14zM820 24c-4 -13 -20 -24 -33 -24h-70c-14 0 -30 12 -34 25l-125 412
c-10 33 -56 33 -67 0l-126 -412c-4 -13 -20 -25 -34 -25h-71c-13 0 -29 11 -33 24l-209 630c-8 24 8 46 33 46h53c14 0 30 -12 33 -25l129 -432c11 -34 57 -33 67 1l129 430c4 13 19 25 33 25l64 1c14 0 30 -12 34 -25l128 -431c11 -34 57 -34 67 0l129 431
c3 13 19 25 33 25h47c26 0 42 -22 34 -46z" />
    <glyph glyph-name="wcircumflex" unicode="&#x175;" horiz-adv-x="893" 
d="M575 649c13 -17 2 -38 -19 -38h-29c-8 0 -24 8 -28 15l-23 32c-15 21 -43 21 -58 0l-23 -32c-4 -7 -20 -15 -28 -15h-29c-21 0 -32 21 -19 38l65 89c4 6 20 14 28 14h70c8 0 24 -8 28 -14zM712 23c-4 -12 -20 -23 -32 -23h-70c-13 0 -29 11 -33 24l-94 273
c-11 33 -55 33 -66 0l-94 -273c-4 -13 -20 -24 -33 -24h-69c-12 0 -28 11 -32 23l-171 462c-9 24 7 47 33 47h43c13 0 29 -11 33 -24l96 -292c11 -33 56 -33 67 0l93 292c4 12 20 24 34 24h68c13 0 29 -12 33 -24l94 -291c11 -34 56 -34 66 0l95 291c4 13 20 24 33 24h42
c26 0 42 -23 33 -47z" />
    <glyph glyph-name="Ycircumflex" unicode="&#x176;" horiz-adv-x="637" 
d="M266 794c-4 -7 -20 -15 -28 -15h-29c-21 0 -32 21 -19 38l65 89c4 6 20 14 28 14h70c8 0 24 -8 28 -14l65 -89c13 -17 2 -38 -19 -38h-29c-8 0 -24 8 -28 15l-23 32c-15 21 -43 21 -58 0zM383 241c-1 -2 -4 -15 -4 -17v-189c0 -19 -16 -35 -35 -35h-47
c-19 0 -35 16 -35 35v185c0 2 -3 15 -4 17l-228 411c-14 25 2 52 30 52h40c9 0 25 -9 30 -17l160 -272c14 -25 46 -25 60 0l156 271c5 9 21 18 30 18h41c28 0 44 -27 30 -52z" />
    <glyph glyph-name="ycircumflex" unicode="&#x177;" horiz-adv-x="531" 
d="M395 649c13 -17 2 -38 -19 -38h-29c-8 0 -24 8 -28 15l-23 32c-15 21 -43 21 -58 0l-23 -32c-4 -7 -20 -15 -28 -15h-29c-21 0 -32 21 -19 38l65 89c4 6 20 14 28 14h70c8 0 24 -8 28 -14zM484 532c27 0 43 -23 33 -48l-223 -557c-33 -84 -93 -126 -173 -126
c-40 0 -72 10 -103 30c-13 8 -16 23 -8 36l30 55c3 6 13 8 20 4c19 -12 36 -17 56 -17c35 0 63 19 81 59l12 26c2 6 2 22 0 28l-194 461c-10 25 6 49 33 49h42c12 0 28 -11 33 -22l116 -296c13 -31 54 -30 66 1l108 294c4 12 20 23 32 23h39z" />
    <glyph glyph-name="Ydieresis" unicode="&#x178;" horiz-adv-x="637" 
d="M230 794c-35 0 -61 27 -61 63c0 37 26 64 61 64s60 -27 60 -64c0 -36 -25 -63 -60 -63zM407 794c-35 0 -61 27 -61 63c0 37 26 64 61 64s60 -27 60 -64c0 -36 -25 -63 -60 -63zM383 241c-1 -2 -4 -15 -4 -17v-189c0 -19 -16 -35 -35 -35h-47c-19 0 -35 16 -35 35v185
c0 2 -3 15 -4 17l-228 411c-14 25 2 52 30 52h40c9 0 25 -9 30 -17l160 -272c14 -25 46 -25 60 0l156 271c5 9 21 18 30 18h41c28 0 44 -27 30 -52z" />
    <glyph glyph-name="Zacute" unicode="&#x179;" horiz-adv-x="666" 
d="M445 897c26 -11 31 -42 8 -60l-66 -53c-4 -3 -18 -8 -22 -8h-39c-23 0 -35 23 -21 41l60 84c8 12 28 18 42 12zM623 628c0 -5 -5 -19 -8 -23l-370 -442c-20 -24 -5 -57 27 -57h321c19 0 35 -16 35 -35v-36c0 -19 -16 -35 -35 -35h-521c-19 0 -35 16 -35 35v37
c0 5 5 19 8 23l371 442c20 24 5 57 -27 57h-304c-19 0 -35 16 -35 35v36c0 19 16 35 35 35h503c19 0 35 -16 35 -35v-37z" />
    <glyph glyph-name="zacute" unicode="&#x17a;" horiz-adv-x="537" 
d="M371 729c26 -11 31 -42 8 -60l-66 -53c-4 -3 -18 -8 -22 -8h-39c-23 0 -35 23 -21 41l60 84c8 12 28 18 42 12zM491 467c0 -5 -5 -19 -8 -23l-248 -293c-20 -24 -5 -57 27 -57l203 -1c19 0 35 -16 35 -35v-24c0 -19 -16 -35 -35 -35l-385 1c-19 0 -35 16 -35 35v30
c0 5 5 19 8 23l247 292c21 25 5 58 -26 58h-185c-19 0 -35 16 -35 35v24c0 19 16 35 35 35l367 -1c19 0 35 -16 35 -35v-29z" />
    <glyph glyph-name="Zdotaccent" unicode="&#x17b;" horiz-adv-x="666" 
d="M342 922c38 0 67 -29 67 -70c0 -40 -29 -69 -67 -69s-67 29 -67 69c0 41 29 70 67 70zM623 628c0 -5 -5 -19 -8 -23l-370 -442c-20 -24 -5 -57 27 -57h321c19 0 35 -16 35 -35v-36c0 -19 -16 -35 -35 -35h-521c-19 0 -35 16 -35 35v37c0 5 5 19 8 23l371 442
c20 24 5 57 -27 57h-304c-19 0 -35 16 -35 35v36c0 19 16 35 35 35h503c19 0 35 -16 35 -35v-37z" />
    <glyph glyph-name="zdotaccent" unicode="&#x17c;" horiz-adv-x="537" 
d="M268 754c38 0 67 -29 67 -70c0 -40 -29 -69 -67 -69s-67 29 -67 69c0 41 29 70 67 70zM491 467c0 -5 -5 -19 -8 -23l-248 -293c-20 -24 -5 -57 27 -57l203 -1c19 0 35 -16 35 -35v-24c0 -19 -16 -35 -35 -35l-385 1c-19 0 -35 16 -35 35v30c0 5 5 19 8 23l247 292
c21 25 5 58 -26 58h-185c-19 0 -35 16 -35 35v24c0 19 16 35 35 35l367 -1c19 0 35 -16 35 -35v-29z" />
    <glyph glyph-name="Zcaron" unicode="&#x17d;" horiz-adv-x="666" 
d="M204 879c-14 18 -2 41 21 41h32c9 0 25 -8 29 -15l24 -35c15 -22 43 -22 58 0l24 35c4 7 20 15 29 15h32c23 0 35 -23 21 -41l-68 -94c-4 -7 -20 -15 -28 -15h-78c-8 0 -24 8 -28 15zM623 628c0 -5 -5 -19 -8 -23l-370 -442c-20 -24 -5 -57 27 -57h321
c19 0 35 -16 35 -35v-36c0 -19 -16 -35 -35 -35h-521c-19 0 -35 16 -35 35v37c0 5 5 19 8 23l371 442c20 24 5 57 -27 57h-304c-19 0 -35 16 -35 35v36c0 19 16 35 35 35h503c19 0 35 -16 35 -35v-37z" />
    <glyph glyph-name="zcaron" unicode="&#x17e;" horiz-adv-x="537" 
d="M130 711c-14 18 -2 41 21 41h32c9 0 25 -8 29 -15l24 -35c15 -22 43 -22 58 0l24 35c4 7 20 15 29 15h32c23 0 35 -23 21 -41l-68 -94c-4 -7 -20 -15 -28 -15h-78c-8 0 -24 8 -28 15zM491 467c0 -5 -5 -19 -8 -23l-248 -293c-20 -24 -5 -57 27 -57l203 -1
c19 0 35 -16 35 -35v-24c0 -19 -16 -35 -35 -35l-385 1c-19 0 -35 16 -35 35v30c0 5 5 19 8 23l247 292c21 25 5 58 -26 58h-185c-19 0 -35 16 -35 35v24c0 19 16 35 35 35l367 -1c19 0 35 -16 35 -35v-29z" />
    <glyph glyph-name="florin" unicode="&#x192;" horiz-adv-x="372" 
d="M334 655c-49 1 -86 -33 -93 -88l-8 -64c-3 -21 13 -39 35 -39h61c21 0 37 -18 35 -39l-2 -10c-1 -17 -17 -31 -34 -31h-78c-17 0 -33 -14 -35 -31l-47 -383c-13 -104 -76 -170 -178 -169c-32 1 -69 12 -96 29c-9 5 -11 15 -7 25l22 58c2 5 8 7 13 4c17 -12 38 -19 56 -20
c47 -1 71 35 78 90l45 363c2 19 -12 34 -30 34c-19 0 -33 15 -31 34l2 15c1 17 17 31 34 31h7c17 0 33 14 35 31l11 88c13 104 87 170 189 169c39 -1 81 -12 112 -29c11 -5 13 -16 8 -26l-27 -56c-3 -6 -12 -7 -17 -4c-19 11 -41 18 -60 18z" />
    <glyph glyph-name="Scommaaccent" unicode="&#x218;" horiz-adv-x="622" 
d="M199 521c0 -153 378 -71 377 -323c0 -125 -110 -202 -264 -202c-99 0 -193 36 -263 92c-13 9 -18 29 -11 43l18 36c10 21 36 28 55 14c65 -48 139 -74 203 -74c82 0 131 31 131 85c0 156 -378 69 -378 318c0 120 103 195 255 195c80 0 158 -22 220 -57
c15 -8 20 -26 12 -42l-19 -42c-9 -18 -33 -25 -51 -16c-64 32 -126 46 -171 46c-69 0 -114 -26 -114 -73zM322 -49c32 0 61 -24 61 -64c0 -19 -7 -36 -18 -52l-47 -70c-4 -8 -20 -16 -29 -16h-10c-15 0 -24 13 -18 27l22 49c2 4 -1 14 -5 17c-12 12 -18 28 -18 45
c0 37 26 64 62 64z" />
    <glyph glyph-name="scommaaccent" unicode="&#x219;" horiz-adv-x="470" 
d="M157 392c0 -98 283 -45 282 -238c0 -109 -97 -158 -204 -158c-68 0 -140 20 -193 57c-13 10 -16 26 -9 41l15 30c7 14 24 19 36 11c46 -31 107 -49 156 -49s87 17 87 57c0 109 -280 48 -279 240c0 108 94 154 196 154c57 0 117 -14 163 -40c16 -8 18 -24 10 -40l-17 -34
c-6 -13 -25 -17 -38 -11c-41 21 -88 33 -127 33c-45 0 -78 -15 -78 -53zM240 -49c32 0 61 -24 61 -64c0 -19 -7 -36 -18 -52l-47 -70c-4 -8 -20 -16 -29 -16h-10c-15 0 -24 13 -18 27l22 49c2 4 -1 14 -5 17c-12 12 -18 28 -18 45c0 37 26 64 62 64z" />
    <glyph glyph-name="Tcommaaccent" unicode="&#x21a;" horiz-adv-x="579" 
d="M535 700c19 0 35 -16 35 -35v-36c0 -19 -16 -35 -35 -35h-152c-19 0 -35 -16 -35 -35v-524c0 -19 -16 -35 -35 -35h-48c-19 0 -35 16 -35 35v524c0 19 -16 35 -35 35h-151c-19 0 -35 16 -35 35v36c0 19 16 35 35 35h491zM282 -49c32 0 61 -24 61 -64
c0 -19 -7 -36 -18 -52l-47 -70c-4 -8 -20 -16 -29 -16h-10c-15 0 -24 13 -18 27l22 49c2 4 -1 14 -5 17c-12 12 -18 28 -18 45c0 37 26 64 62 64z" />
    <glyph glyph-name="tcommaaccent" unicode="&#x21b;" horiz-adv-x="407" 
d="M342 115c9 4 18 -1 20 -9l16 -49c5 -14 -1 -29 -14 -35c-35 -17 -72 -27 -109 -27c-80 0 -149 46 -149 155v241c0 19 -16 35 -35 35h-5c-19 0 -35 16 -35 35v16c0 19 16 35 35 35h5c19 0 35 16 35 35v76c0 19 16 35 35 35h44c19 0 35 -16 35 -35v-76c0 -19 16 -35 35 -35
h87c19 0 35 -16 35 -35v-16c0 -19 -16 -35 -35 -35h-87c-19 0 -35 -16 -35 -35v-220c0 -55 21 -72 57 -72c20 0 41 6 65 16zM251 -49c32 0 61 -24 61 -64c0 -19 -7 -36 -18 -52l-47 -70c-4 -8 -20 -16 -29 -16h-10c-15 0 -24 13 -18 27l22 49c2 4 -1 14 -5 17
c-12 12 -18 28 -18 45c0 37 26 64 62 64z" />
    <glyph glyph-name="dotlessj" unicode="&#x237;" horiz-adv-x="274" 
d="M164 532c19 0 35 -16 35 -35v-521c0 -112 -61 -175 -163 -174c-39 1 -76 9 -107 25c-12 6 -17 19 -13 31l18 51c2 6 10 9 16 6c20 -11 40 -16 62 -17c47 -1 72 32 72 95v504c0 19 16 35 35 35h45z" />
    <glyph glyph-name="circumflex" unicode="&#x2c6;" 
d="M303 652c13 -17 2 -38 -19 -38h-29c-8 0 -24 8 -28 15l-23 32c-15 21 -43 21 -58 0l-23 -32c-4 -7 -20 -15 -28 -15h-29c-21 0 -32 21 -19 38l65 89c4 6 20 14 28 14h70c8 0 24 -8 28 -14z" />
    <glyph glyph-name="caron" unicode="&#x2c7;" 
d="M40 714c-14 18 -2 41 21 41h32c9 0 25 -8 29 -15l24 -35c15 -22 43 -22 58 0l24 35c4 7 20 15 29 15h32c23 0 35 -23 21 -41l-68 -94c-4 -7 -20 -15 -28 -15h-78c-8 0 -24 8 -28 15z" />
    <glyph glyph-name="firsttonechinese" unicode="&#x2c9;" 
d="M303 676c0 -19 -16 -35 -35 -35h-185c-19 0 -35 16 -35 35v13c0 19 16 35 35 35h185c19 0 35 -16 35 -35v-13z" />
    <glyph glyph-name="breve" unicode="&#x2d8;" 
d="M235 730c2 8 14 19 22 19h23c24 0 37 -13 31 -36c-16 -65 -68 -106 -136 -106s-120 41 -136 106c-6 23 7 36 31 36h23c8 0 20 -11 22 -19c8 -28 31 -46 60 -46s52 18 60 46z" />
    <glyph glyph-name="dotaccent" unicode="&#x2d9;" 
d="M175 754c38 0 67 -29 67 -70c0 -40 -29 -69 -67 -69s-67 29 -67 69c0 41 29 70 67 70z" />
    <glyph glyph-name="ring" unicode="&#x2da;" 
d="M175 801c65 0 118 -53 118 -116c0 -64 -53 -116 -118 -116s-118 52 -118 116c0 63 53 116 118 116zM175 749c-37 0 -68 -29 -68 -64s31 -64 68 -64s68 29 68 64s-31 64 -68 64z" />
    <glyph glyph-name="ogonek" unicode="&#x2db;" 
d="M138 -3c5 7 20 15 29 15h12c12 0 20 -13 12 -23c-28 -42 -41 -73 -41 -94c0 -20 13 -32 31 -32c14 0 28 9 40 22c5 5 13 5 17 1l11 -14c9 -10 10 -23 1 -33c-22 -26 -51 -40 -82 -40c-39 0 -79 23 -79 78c0 36 18 75 49 120z" />
    <glyph glyph-name="tilde" unicode="&#x2dc;" 
d="M106 758c55 0 85 -55 119 -55c21 0 33 12 37 33c1 8 10 16 17 16h22c22 0 36 -15 33 -36c-8 -63 -38 -95 -89 -95c-60 0 -85 55 -120 55c-20 0 -32 -12 -36 -33c-1 -8 -10 -16 -17 -16h-23c-22 0 -36 15 -33 36c8 63 39 95 90 95z" />
    <glyph glyph-name="hungarumlaut" unicode="&#x2dd;" 
d="M141 738c22 -10 28 -36 12 -54l-52 -62c-4 -6 -19 -13 -26 -13h-28c-22 0 -34 20 -24 39l47 86c8 16 28 23 45 16zM306 738c22 -10 28 -36 12 -54l-52 -62c-4 -6 -19 -13 -26 -13h-28c-22 0 -34 20 -24 39l47 86c8 16 28 23 45 16z" />
    <glyph glyph-name="commaaccent" unicode="&#x326;" horiz-adv-x="0" 
d="M109 -49c32 0 61 -24 61 -64c0 -19 -7 -36 -18 -52l-47 -70c-4 -8 -20 -16 -29 -16h-10c-15 0 -24 13 -18 27l22 49c2 4 -1 14 -5 17c-12 12 -18 28 -18 45c0 37 26 64 62 64z" />
    <glyph glyph-name="Delta" unicode="&#x394;" horiz-adv-x="738" 
d="M716 49c10 -25 -5 -49 -32 -49h-629c-27 0 -43 24 -32 49l278 630c4 11 20 21 32 21h75c12 0 28 -10 32 -21zM518 93c27 0 43 24 32 49l-151 356c-13 30 -51 30 -64 0l-151 -356c-11 -25 5 -49 32 -49h302z" />
    <glyph glyph-name="pi" unicode="&#x3c0;" horiz-adv-x="725" 
d="M715 479c0 -19 -16 -35 -35 -35h-77c-19 0 -35 -16 -35 -35v-374c0 -19 -16 -35 -35 -35h-26c-19 0 -35 16 -35 35v374c0 19 -16 35 -35 35h-81c-17 0 -33 -14 -35 -31l-42 -382c-2 -17 -18 -31 -35 -31h-26c-21 0 -37 18 -35 39l42 380c2 14 -9 25 -22 25h-26
c-56 0 -97 -35 -96 -84c0 -19 7 -42 19 -64c3 -6 0 -15 -6 -17l-47 -18c-12 -5 -24 -2 -29 9c-17 34 -27 74 -28 110c-1 86 73 152 173 152h517c19 0 35 -16 35 -35v-18z" />
    <glyph glyph-name="Wgrave" unicode="&#x1e80;" horiz-adv-x="1036" 
d="M555 818c14 -18 2 -41 -21 -41h-39c-4 0 -18 5 -22 8l-66 53c-23 18 -18 49 8 60l38 16c14 6 34 0 42 -12zM820 24c-4 -13 -20 -24 -33 -24h-70c-14 0 -30 12 -34 25l-125 412c-10 33 -56 33 -67 0l-126 -412c-4 -13 -20 -25 -34 -25h-71c-13 0 -29 11 -33 24l-209 630
c-8 24 8 46 33 46h53c14 0 30 -12 33 -25l129 -432c11 -34 57 -33 67 1l129 430c4 13 19 25 33 25l64 1c14 0 30 -12 34 -25l128 -431c11 -34 57 -34 67 0l129 431c3 13 19 25 33 25h47c26 0 42 -22 34 -46z" />
    <glyph glyph-name="wgrave" unicode="&#x1e81;" horiz-adv-x="893" 
d="M479 650c14 -18 2 -41 -21 -41h-39c-4 0 -18 5 -22 8l-66 53c-23 18 -18 49 8 60l38 16c14 6 34 0 42 -12zM712 23c-4 -12 -20 -23 -32 -23h-70c-13 0 -29 11 -33 24l-94 273c-11 33 -55 33 -66 0l-94 -273c-4 -13 -20 -24 -33 -24h-69c-12 0 -28 11 -32 23l-171 462
c-9 24 7 47 33 47h43c13 0 29 -11 33 -24l96 -292c11 -33 56 -33 67 0l93 292c4 12 20 24 34 24h68c13 0 29 -12 33 -24l94 -291c11 -34 56 -34 66 0l95 291c4 13 20 24 33 24h42c26 0 42 -23 33 -47z" />
    <glyph glyph-name="Wacute" unicode="&#x1e82;" horiz-adv-x="1036" 
d="M626 897c26 -11 31 -42 8 -60l-66 -53c-4 -3 -18 -8 -22 -8h-39c-23 0 -35 23 -21 41l60 84c8 12 28 18 42 12zM820 24c-4 -13 -20 -24 -33 -24h-70c-14 0 -30 12 -34 25l-125 412c-10 33 -56 33 -67 0l-126 -412c-4 -13 -20 -25 -34 -25h-71c-13 0 -29 11 -33 24
l-209 630c-8 24 8 46 33 46h53c14 0 30 -12 33 -25l129 -432c11 -34 57 -33 67 1l129 430c4 13 19 25 33 25l64 1c14 0 30 -12 34 -25l128 -431c11 -34 57 -34 67 0l129 431c3 13 19 25 33 25h47c26 0 42 -22 34 -46z" />
    <glyph glyph-name="wacute" unicode="&#x1e83;" horiz-adv-x="893" 
d="M550 729c26 -11 31 -42 8 -60l-66 -53c-4 -3 -18 -8 -22 -8h-39c-23 0 -35 23 -21 41l60 84c8 12 28 18 42 12zM712 23c-4 -12 -20 -23 -32 -23h-70c-13 0 -29 11 -33 24l-94 273c-11 33 -55 33 -66 0l-94 -273c-4 -13 -20 -24 -33 -24h-69c-12 0 -28 11 -32 23l-171 462
c-9 24 7 47 33 47h43c13 0 29 -11 33 -24l96 -292c11 -33 56 -33 67 0l93 292c4 12 20 24 34 24h68c13 0 29 -12 33 -24l94 -291c11 -34 56 -34 66 0l95 291c4 13 20 24 33 24h42c26 0 42 -23 33 -47z" />
    <glyph glyph-name="Wdieresis" unicode="&#x1e84;" horiz-adv-x="1036" 
d="M435 921c35 0 60 -27 60 -64c0 -36 -25 -63 -60 -63s-61 27 -61 63c0 37 26 64 61 64zM612 921c35 0 60 -27 60 -64c0 -36 -25 -63 -60 -63s-61 27 -61 63c0 37 26 64 61 64zM820 24c-4 -13 -20 -24 -33 -24h-70c-14 0 -30 12 -34 25l-125 412c-10 33 -56 33 -67 0
l-126 -412c-4 -13 -20 -25 -34 -25h-71c-13 0 -29 11 -33 24l-209 630c-8 24 8 46 33 46h53c14 0 30 -12 33 -25l129 -432c11 -34 57 -33 67 1l129 430c4 13 19 25 33 25l64 1c14 0 30 -12 34 -25l128 -431c11 -34 57 -34 67 0l129 431c3 13 19 25 33 25h47
c26 0 42 -22 34 -46z" />
    <glyph glyph-name="wdieresis" unicode="&#x1e85;" horiz-adv-x="893" 
d="M359 753c35 0 60 -27 60 -64c0 -36 -25 -63 -60 -63s-61 27 -61 63c0 37 26 64 61 64zM536 753c35 0 60 -27 60 -64c0 -36 -25 -63 -60 -63s-61 27 -61 63c0 37 26 64 61 64zM712 23c-4 -12 -20 -23 -32 -23h-70c-13 0 -29 11 -33 24l-94 273c-11 33 -55 33 -66 0
l-94 -273c-4 -13 -20 -24 -33 -24h-69c-12 0 -28 11 -32 23l-171 462c-9 24 7 47 33 47h43c13 0 29 -11 33 -24l96 -292c11 -33 56 -33 67 0l93 292c4 12 20 24 34 24h68c13 0 29 -12 33 -24l94 -291c11 -34 56 -34 66 0l95 291c4 13 20 24 33 24h42c26 0 42 -23 33 -47z
" />
    <glyph glyph-name="Ygrave" unicode="&#x1ef2;" horiz-adv-x="637" 
d="M290 777c-4 0 -18 5 -22 8l-66 53c-23 18 -18 49 8 60l38 16c14 6 34 0 42 -12l60 -84c14 -18 2 -41 -21 -41h-39zM383 241c-1 -2 -4 -15 -4 -17v-189c0 -19 -16 -35 -35 -35h-47c-19 0 -35 16 -35 35v185c0 2 -3 15 -4 17l-228 411c-14 25 2 52 30 52h40
c9 0 25 -9 30 -17l160 -272c14 -25 46 -25 60 0l156 271c5 9 21 18 30 18h41c28 0 44 -27 30 -52z" />
    <glyph glyph-name="ygrave" unicode="&#x1ef3;" horiz-adv-x="531" 
d="M299 650c14 -18 2 -41 -21 -41h-39c-4 0 -18 5 -22 8l-66 53c-23 18 -18 49 8 60l38 16c14 6 34 0 42 -12zM484 532c27 0 43 -23 33 -48l-223 -557c-33 -84 -93 -126 -173 -126c-40 0 -72 10 -103 30c-13 8 -16 23 -8 36l30 55c3 6 13 8 20 4c19 -12 36 -17 56 -17
c35 0 63 19 81 59l12 26c2 6 2 22 0 28l-194 461c-10 25 6 49 33 49h42c12 0 28 -11 33 -22l116 -296c13 -31 54 -30 66 1l108 294c4 12 20 23 32 23h39z" />
    <glyph glyph-name="endash" unicode="&#x2013;" horiz-adv-x="405" 
d="M405 260c0 -19 -16 -35 -35 -35h-335c-19 0 -35 16 -35 35v9c0 19 16 35 35 35h335c19 0 35 -16 35 -35v-9z" />
    <glyph glyph-name="emdash" unicode="&#x2014;" horiz-adv-x="691" 
d="M691 260c0 -19 -16 -35 -35 -35h-621c-19 0 -35 16 -35 35v9c0 19 16 35 35 35h621c19 0 35 -16 35 -35v-9z" />
    <glyph glyph-name="quoteleft" unicode="&#x2018;" horiz-adv-x="214" 
d="M141 706c14 0 23 -13 17 -27l-22 -50c-2 -4 1 -14 5 -17c12 -12 18 -28 18 -45c0 -38 -26 -64 -62 -64c-32 0 -61 23 -61 64c0 20 7 36 18 52l47 71c4 7 20 16 29 16h11z" />
    <glyph glyph-name="quoteright" unicode="&#x2019;" horiz-adv-x="214" 
d="M109 700c32 0 61 -23 61 -64c0 -20 -7 -36 -18 -52l-47 -70c-4 -8 -20 -16 -29 -16h-10c-15 0 -24 13 -18 27l22 49c2 4 -1 14 -5 17c-12 12 -18 28 -18 45c0 38 26 64 62 64z" />
    <glyph glyph-name="quotesinglbase" unicode="&#x201a;" horiz-adv-x="214" 
d="M109 121c32 0 61 -24 61 -64c0 -20 -7 -37 -18 -53l-47 -70c-4 -8 -20 -16 -29 -16h-10c-15 0 -24 13 -18 27l22 50c2 4 -1 14 -5 17c-12 12 -18 28 -18 45c0 37 26 64 62 64z" />
    <glyph glyph-name="quotedblleft" unicode="&#x201c;" horiz-adv-x="296" 
d="M141 706c14 0 23 -13 17 -27l-22 -50c-2 -4 1 -14 5 -17c12 -12 18 -28 18 -45c0 -37 -26 -64 -62 -64c-32 0 -61 24 -61 64c0 20 7 37 18 53l47 70c4 8 20 16 29 16h11zM290 706c14 0 23 -13 17 -27l-22 -50c-2 -4 1 -14 5 -17c12 -12 18 -28 18 -45
c0 -37 -26 -64 -62 -64c-32 0 -61 24 -61 64c0 20 7 37 18 53l47 70c4 8 20 16 29 16h11z" />
    <glyph glyph-name="quotedblright" unicode="&#x201d;" horiz-adv-x="333" 
d="M109 701c32 0 61 -24 61 -64c0 -20 -7 -37 -18 -53l-47 -70c-4 -8 -20 -16 -29 -16h-10c-15 0 -24 13 -18 27l22 50c2 4 -1 14 -5 17c-12 12 -18 28 -18 45c0 37 26 64 62 64zM258 701c32 0 61 -24 61 -64c0 -20 -7 -37 -18 -53l-47 -70c-4 -8 -20 -16 -29 -16h-10
c-15 0 -24 13 -18 27l22 50c2 4 -1 14 -5 17c-12 12 -18 28 -18 45c0 37 26 64 62 64z" />
    <glyph glyph-name="quotedblbase" unicode="&#x201e;" horiz-adv-x="363" 
d="M109 121c32 0 61 -24 61 -64c0 -20 -7 -37 -18 -53l-47 -70c-4 -8 -20 -16 -29 -16h-10c-15 0 -24 13 -18 27l22 50c2 4 -1 14 -5 17c-12 12 -18 28 -18 45c0 37 26 64 62 64zM258 121c32 0 61 -24 61 -64c0 -20 -7 -37 -18 -53l-47 -70c-4 -8 -20 -16 -29 -16h-10
c-15 0 -24 13 -18 27l22 50c2 4 -1 14 -5 17c-12 12 -18 28 -18 45c0 37 26 64 62 64z" />
    <glyph glyph-name="dagger" unicode="&#x2020;" horiz-adv-x="536" 
d="M321 521c0 -19 16 -35 35 -35h130c19 0 35 -16 35 -35v-36c0 -19 -16 -35 -35 -35h-130c-19 0 -35 -16 -35 -35v-500c0 -19 -16 -35 -35 -35h-39c-19 0 -35 16 -35 35v500c0 19 -16 35 -35 35h-127c-19 0 -35 16 -35 35v36c0 19 16 35 35 35h127c19 0 35 16 35 35v143
c0 19 16 35 35 35h39c19 0 35 -16 35 -35v-143z" />
    <glyph glyph-name="daggerdbl" unicode="&#x2021;" horiz-adv-x="536" 
d="M356 380c-19 0 -35 -16 -35 -35v-161c0 -19 16 -35 35 -35h130c19 0 35 -16 35 -35v-35c0 -19 -16 -35 -35 -35h-130c-19 0 -35 -16 -35 -35v-164c0 -19 -16 -35 -35 -35h-39c-19 0 -35 16 -35 35v164c0 19 -16 35 -35 35h-127c-19 0 -35 16 -35 35v35c0 19 16 35 35 35
h127c19 0 35 16 35 35v161c0 19 -16 35 -35 35h-127c-19 0 -35 16 -35 35v36c0 19 16 35 35 35h127c19 0 35 16 35 35v143c0 19 16 35 35 35h39c19 0 35 -16 35 -35v-143c0 -19 16 -35 35 -35h130c19 0 35 -16 35 -35v-36c0 -19 -16 -35 -35 -35h-130z" />
    <glyph glyph-name="bullet" unicode="&#x2022;" horiz-adv-x="281" 
d="M140 366c55 0 95 -41 95 -98s-40 -100 -95 -100c-54 0 -94 43 -94 100s40 98 94 98z" />
    <glyph glyph-name="ellipsis" unicode="&#x2026;" horiz-adv-x="608" 
d="M106 118c34 0 60 -26 60 -63s-26 -64 -60 -64s-60 27 -60 64s26 63 60 63zM304 118c34 0 60 -26 60 -63s-26 -64 -60 -64s-60 27 -60 64s26 63 60 63zM502 118c34 0 60 -26 60 -63s-26 -64 -60 -64s-60 27 -60 64s26 63 60 63z" />
    <glyph glyph-name="perthousand" unicode="&#x2030;" horiz-adv-x="1420" 
d="M223 702c115 0 185 -78 185 -208c0 -131 -70 -210 -185 -210s-185 79 -185 210c0 130 70 208 185 208zM226 0c-25 0 -38 25 -23 45l472 641c4 6 20 14 28 14h37c24 0 37 -25 22 -44l-471 -642c-4 -6 -20 -14 -28 -14h-37zM223 634c-69 0 -108 -51 -108 -140
c0 -90 39 -142 108 -142s109 52 109 142c0 89 -40 140 -109 140zM750 415c115 0 185 -78 185 -208c0 -131 -70 -209 -185 -209s-185 78 -185 209c0 130 70 208 185 208zM1196 415c115 0 185 -78 185 -208c0 -131 -70 -209 -185 -209s-185 78 -185 209c0 130 70 208 185 208z
M750 348c-69 0 -108 -52 -108 -141c0 -90 39 -141 108 -141s109 51 109 141c0 89 -40 141 -109 141zM1196 348c-69 0 -108 -52 -108 -141c0 -90 39 -141 108 -141s109 51 109 141c0 89 -40 141 -109 141z" />
    <glyph glyph-name="guilsinglleft" unicode="&#x2039;" horiz-adv-x="276" 
d="M139 278c-5 -9 -5 -27 0 -36l71 -115c12 -19 0 -41 -23 -41h-29c-9 0 -25 8 -29 16l-93 139c-7 9 -7 29 0 38l93 139c4 8 20 16 29 16h29c23 0 35 -22 23 -41z" />
    <glyph glyph-name="guilsinglright" unicode="&#x203a;" horiz-adv-x="288" 
d="M172 243c5 9 5 27 0 36l-71 115c-12 19 0 41 23 41h29c9 0 25 -8 29 -16l93 -139c7 -9 7 -29 0 -38l-93 -140c-4 -8 -20 -16 -29 -16h-29c-23 0 -35 22 -23 41z" />
    <glyph glyph-name="fraction" unicode="&#x2044;" horiz-adv-x="80" 
d="M-222 0c-24 0 -37 25 -22 45l472 641c4 6 20 14 28 14h37c24 0 37 -25 22 -44l-471 -642c-4 -6 -20 -14 -28 -14h-38z" />
    <glyph glyph-name="Euro" unicode="&#x20ac;" horiz-adv-x="790" 
d="M247 352c0 -16 -2 -53 15 -53h233c18 0 32 -14 32 -32s-14 -32 -32 -32h-175c-24 0 -33 -20 -18 -38c45 -57 116 -92 195 -92c60 0 120 23 171 61c14 11 37 8 49 -5l23 -26c13 -15 15 -32 0 -45c-68 -59 -159 -95 -249 -95c-155 0 -284 88 -337 219c-5 11 -21 21 -33 21
h-52c-18 0 -32 14 -32 32s14 32 32 32h53c5 0 8 4 8 9c-2 14 -3 28 -3 43s1 30 3 44c0 5 -3 9 -8 9h-53c-18 0 -32 14 -32 32s14 32 32 32h53c12 0 28 10 33 21c55 127 184 214 341 214c89 0 178 -33 244 -89c14 -12 13 -29 2 -43l-26 -32c-11 -15 -38 -15 -52 -3
c-48 39 -108 62 -167 62c-79 0 -150 -35 -195 -92c-15 -18 -6 -38 18 -38h175c18 0 32 -14 32 -32s-14 -32 -32 -32h-234c-5 0 -10 -4 -10 -9c-3 -14 -4 -28 -4 -43z" />
    <glyph glyph-name="literSign" unicode="&#x2113;" horiz-adv-x="467" 
d="M322 706c66 0 110 -44 110 -126c0 -133 -115 -257 -231 -354c-4 -3 -10 -15 -11 -20c-11 -82 7 -122 62 -122c45 0 81 27 114 62c10 11 29 12 39 0s20 -28 8 -44c-55 -73 -119 -106 -187 -106c-85 0 -122 52 -128 135c-1 14 -17 21 -27 11c-16 -10 -31 -2 -36 14
c-5 13 1 32 12 40l48 36c5 3 13 17 14 22l40 248c26 141 94 204 173 204zM320 636c-33 0 -64 -35 -80 -124l-23 -137c-4 -21 20 -31 34 -16c65 70 110 151 110 219c0 38 -17 58 -41 58z" />
    <glyph glyph-name="trademark" unicode="&#x2122;" horiz-adv-x="886" 
d="M325 661c0 -19 -16 -35 -35 -35h-53c-19 0 -35 -16 -35 -35v-276c0 -19 -16 -35 -35 -35h-15c-19 0 -35 16 -35 35v276c0 19 -16 35 -35 35h-52c-19 0 -35 16 -35 35v4c0 19 16 35 35 35h260c19 0 35 -16 35 -35v-4zM834 315c0 -19 -16 -35 -35 -35h-7
c-19 0 -35 16 -35 35v121c0 34 -46 44 -60 14l-51 -107c-5 -10 -21 -20 -32 -20h-12c-11 0 -27 10 -31 20l-51 107c-14 30 -60 20 -60 -13v-122c0 -19 -16 -35 -35 -35h-8c-19 0 -35 16 -35 35v350c0 19 16 35 35 35h41c11 0 27 -10 32 -20l86 -181c14 -28 50 -28 64 0
l86 181c5 10 21 20 32 20h41c19 0 35 -16 35 -35v-350z" />
    <glyph glyph-name="Omega" unicode="&#x2126;" horiz-adv-x="882" 
d="M441 706c207 0 360 -142 360 -334c0 -85 -41 -179 -103 -242c-11 -11 0 -30 16 -30h124c19 0 35 -16 35 -35v-30c0 -19 -16 -35 -35 -35h-262c-19 0 -35 16 -35 35v38c0 8 13 28 20 33c79 57 135 161 135 256c0 139 -108 239 -255 239s-254 -100 -254 -239
c0 -98 59 -205 142 -261c7 -5 13 -20 13 -29v-37c0 -19 -16 -35 -35 -35h-263c-19 0 -35 16 -35 35v30c0 19 16 35 35 35h125c16 0 27 19 16 30c-62 63 -103 156 -103 242c0 192 152 334 359 334z" />
    <glyph glyph-name="estimated" unicode="&#x212e;" horiz-adv-x="809" 
d="M740 316c0 -2 -2 -4 -3 -4h-537c-1 0 -5 -1 -5 -2c-2 -1 -3 -4 -3 -5v-161c0 -8 4 -14 8 -19c51 -55 125 -89 206 -89c80 0 152 33 203 86c4 4 22 13 28 13h9c10 0 13 -13 5 -20c-61 -59 -150 -97 -246 -97c-185 0 -335 135 -335 301c0 167 150 302 335 302
s335 -135 335 -302v-3zM616 331c0 0 2 4 2 6v161c0 8 -4 15 -9 20c-52 52 -124 85 -203 85c-81 0 -153 -34 -205 -88c-5 -5 -9 -12 -9 -20v-158c0 -2 2 -6 3 -6c0 -1 4 -3 6 -3h408c2 0 6 2 7 3z" />
    <glyph glyph-name="oneeighth" unicode="&#x215b;" horiz-adv-x="834" 
d="M134 287c-19 0 -35 16 -35 35v274c0 19 -16 35 -35 35h-13c-20 0 -35 15 -35 35c0 19 15 34 35 34h97c19 0 35 -16 35 -35v-343c0 -19 -16 -35 -35 -35h-14zM106 0c-25 0 -38 25 -23 45l472 641c4 6 20 14 28 14h37c24 0 37 -25 22 -44l-471 -642c-4 -6 -20 -14 -28 -14
h-37zM630 416c90 0 148 -41 148 -108c0 -31 -16 -59 -43 -77c-5 -4 -6 -15 0 -18c40 -20 64 -54 64 -97c0 -74 -65 -119 -168 -119c-104 0 -169 45 -169 118c0 43 25 78 67 98c7 3 5 15 0 19c-29 19 -45 47 -45 79c0 65 57 105 146 105zM631 360c-49 0 -77 -21 -77 -56
c0 -36 28 -56 77 -56c48 0 76 20 76 56c0 35 -28 56 -76 56zM630 186c-56 0 -89 -23 -89 -62c0 -42 33 -65 90 -65c56 0 89 23 89 64c0 40 -32 63 -90 63z" />
    <glyph glyph-name="threeeighths" unicode="&#x215c;" horiz-adv-x="896" 
d="M168 0c-25 0 -38 25 -23 45l472 641c4 6 20 14 28 14h37c24 0 37 -25 22 -44l-471 -642c-4 -6 -20 -14 -28 -14h-37zM189 537c-4 -3 -2 -9 3 -9l11 -1c69 -7 117 -47 117 -112c0 -77 -62 -132 -159 -132c-47 0 -96 14 -132 34c-12 7 -14 20 -7 32l14 27c5 9 19 10 27 4
c27 -21 59 -33 92 -33c52 0 83 26 83 67s-31 62 -84 62h-39c-13 0 -23 10 -23 23v9c0 5 6 20 10 24l46 47c22 22 8 57 -24 57h-62c-17 0 -31 14 -31 31s14 31 31 31h214c13 0 24 -11 24 -24v-11c0 -5 -6 -20 -10 -24zM692 416c90 0 148 -41 148 -108c0 -31 -16 -59 -43 -77
c-5 -4 -6 -15 0 -18c40 -20 64 -54 64 -97c0 -74 -65 -119 -168 -119c-104 0 -169 45 -169 118c0 43 25 78 67 98c7 3 5 15 0 19c-29 19 -45 47 -45 79c0 65 57 105 146 105zM693 360c-49 0 -77 -21 -77 -56c0 -36 28 -56 77 -56c48 0 76 20 76 56c0 35 -28 56 -76 56z
M692 186c-56 0 -89 -23 -89 -62c0 -42 33 -65 90 -65c56 0 89 23 89 64c0 40 -32 63 -90 63z" />
    <glyph glyph-name="fiveeighths" unicode="&#x215d;" horiz-adv-x="914" 
d="M169 633c-19 0 -35 -16 -35 -35v-53c0 -4 4 -7 8 -6c15 3 34 4 45 4c95 0 156 -46 156 -119c0 -85 -64 -140 -163 -140c-44 0 -96 14 -136 36c-14 7 -16 21 -9 35l11 22c5 10 20 12 30 5c30 -22 64 -34 95 -34c52 0 83 26 83 71c0 38 -31 61 -83 61c-20 0 -68 -2 -99 -6
c-8 -1 -15 5 -15 13v178c0 19 16 35 35 35h200c18 0 33 -15 33 -33c0 -19 -15 -34 -33 -34h-123zM186 0c-25 0 -38 25 -23 45l472 641c4 6 20 14 28 14h37c24 0 37 -25 22 -44l-471 -642c-4 -6 -20 -14 -28 -14h-37zM710 416c90 0 148 -41 148 -108c0 -31 -16 -59 -43 -77
c-5 -4 -6 -15 0 -18c40 -20 64 -54 64 -97c0 -74 -65 -119 -168 -119c-104 0 -169 45 -169 118c0 43 25 78 67 98c7 3 5 15 0 19c-29 19 -45 47 -45 79c0 65 57 105 146 105zM711 360c-49 0 -77 -21 -77 -56c0 -36 28 -56 77 -56c48 0 76 20 76 56c0 35 -28 56 -76 56z
M710 186c-56 0 -89 -23 -89 -62c0 -42 33 -65 90 -65c56 0 89 23 89 64c0 40 -32 63 -90 63z" />
    <glyph glyph-name="seveneighths" unicode="&#x215e;" horiz-adv-x="881" 
d="M193 307c-4 -10 -20 -20 -31 -20h-22c-23 0 -35 20 -26 40l122 256c12 25 -4 50 -31 50h-68c-17 0 -31 -14 -31 -30c0 -17 -14 -31 -30 -31h-9c-19 0 -35 16 -35 35v58c0 19 16 35 35 35h254c17 0 30 -13 30 -30v-22c0 -2 -3 -13 -3 -15zM153 0c-25 0 -38 25 -23 45
l472 641c4 6 20 14 28 14h37c24 0 37 -25 22 -44l-471 -642c-4 -6 -20 -14 -28 -14h-37zM677 416c90 0 148 -41 148 -108c0 -31 -16 -59 -43 -77c-5 -4 -6 -15 0 -18c40 -20 64 -54 64 -97c0 -74 -65 -119 -168 -119c-104 0 -169 45 -169 118c0 43 25 78 67 98
c7 3 5 15 0 19c-29 19 -45 47 -45 79c0 65 57 105 146 105zM678 360c-49 0 -77 -21 -77 -56c0 -36 28 -56 77 -56c48 0 76 20 76 56c0 35 -28 56 -76 56zM677 186c-56 0 -89 -23 -89 -62c0 -42 33 -65 90 -65c56 0 89 23 89 64c0 40 -32 63 -90 63z" />
    <glyph glyph-name="partialdiff" unicode="&#x2202;" horiz-adv-x="615" 
d="M270 705c182 0 297 -144 297 -363s-107 -347 -285 -347c-148 0 -246 90 -246 234c0 136 88 224 226 224c81 0 141 -33 173 -85c4 -7 18 -6 18 2c0 150 -69 236 -191 236c-47 0 -94 -13 -135 -37c-12 -7 -32 -4 -38 9l-18 36c-9 17 -4 35 13 44c56 29 125 47 186 47z
M283 359c-85 0 -137 -47 -137 -128c0 -85 57 -134 142 -134c101 0 145 69 145 129c0 74 -55 133 -150 133z" />
    <glyph glyph-name="product" unicode="&#x220f;" horiz-adv-x="750" 
d="M658 -159c0 -19 -16 -35 -35 -35h-45c-19 0 -35 16 -35 35v768c0 19 -16 35 -35 35h-266c-19 0 -35 -16 -35 -35v-768c0 -19 -16 -35 -35 -35h-45c-19 0 -35 16 -35 35v866c0 19 16 35 35 35h496c19 0 35 -16 35 -35v-866z" />
    <glyph glyph-name="summation" unicode="&#x2211;" horiz-adv-x="611" 
d="M598 672c0 -19 -16 -35 -35 -35h-312c-32 0 -47 -33 -27 -58l210 -250c10 -12 11 -32 1 -44l-214 -260c-20 -24 -4 -57 27 -57h325c19 0 35 -16 35 -35v-36c0 -19 -16 -35 -35 -35h-506c-19 0 -35 16 -35 35v43c0 5 5 19 8 23l267 321c10 12 11 32 0 44l-259 313
c-3 4 -8 18 -8 23v44c0 19 16 35 35 35h488c19 0 35 -16 35 -35v-36z" />
    <glyph glyph-name="minus" unicode="&#x2212;" horiz-adv-x="498" 
d="M463 320c0 -19 -16 -35 -35 -35h-358c-19 0 -35 16 -35 35v9c0 19 16 35 35 35h358c19 0 35 -16 35 -35v-9z" />
    <glyph glyph-name="divisionslash" unicode="&#x2215;" horiz-adv-x="331" 
d="M85 -93c-4 -13 -20 -24 -33 -24h-24c-26 0 -41 22 -33 46l293 863c4 13 20 24 33 24h24c26 0 41 -22 33 -46z" />
    <glyph glyph-name="bulletoperator" unicode="&#x2219;" horiz-adv-x="281" 
d="M140 366c55 0 95 -41 95 -98s-40 -100 -95 -100c-54 0 -94 43 -94 100s40 98 94 98z" />
    <glyph glyph-name="radical" unicode="&#x221a;" horiz-adv-x="689" 
d="M187 399c14 0 30 -12 34 -25l92 -293c10 -34 57 -33 67 1l189 643c4 13 19 25 33 25h37c25 0 40 -21 33 -45l-256 -834c-4 -13 -20 -25 -34 -25h-72c-13 0 -29 11 -33 24l-135 408c-4 13 -20 24 -33 24h-63c-19 0 -35 16 -35 35v27c0 19 16 35 35 35h141z" />
    <glyph glyph-name="infinity" unicode="&#x221e;" horiz-adv-x="875" 
d="M647 503c111 0 193 -86 193 -201c0 -116 -82 -202 -193 -202c-91 0 -143 44 -184 98c-11 15 -38 15 -49 0c-41 -54 -94 -98 -186 -98c-111 0 -193 86 -193 201c0 116 82 202 193 202c91 0 143 -44 184 -98c11 -15 38 -15 49 0c41 54 94 98 186 98zM647 185
c65 0 113 49 113 117s-48 117 -113 117c-77 0 -121 -44 -157 -99c-7 -10 -7 -28 0 -38c37 -54 81 -97 157 -97zM228 184c77 0 120 44 157 99c7 10 7 28 0 38c-37 54 -80 97 -157 97c-65 0 -113 -49 -113 -117s48 -117 113 -117z" />
    <glyph glyph-name="integral" unicode="&#x222b;" horiz-adv-x="342" 
d="M332 829c8 -3 13 -13 11 -22l-9 -54c-1 -5 -6 -8 -11 -6c-14 5 -27 7 -41 7c-55 0 -76 -32 -76 -120c0 -118 22 -415 22 -544c0 -157 -42 -218 -151 -218c-29 0 -50 4 -71 14c-8 3 -13 13 -11 22l10 53c1 6 8 9 14 6c16 -7 29 -10 45 -10c56 0 78 35 78 125
c0 129 -23 422 -23 542c0 157 42 218 150 218c22 0 40 -4 63 -13z" />
    <glyph glyph-name="approxequal" unicode="&#x2248;" horiz-adv-x="498" 
d="M163 511c64 0 111 -57 152 -57c21 0 34 12 38 35c1 8 10 16 18 16h27c21 0 36 -12 33 -33c-7 -71 -39 -107 -95 -107c-68 0 -110 57 -151 57c-22 0 -34 -12 -38 -36c-1 -7 -10 -15 -17 -15h-29c-21 0 -36 12 -33 33c7 71 39 107 95 107zM163 291c64 0 111 -57 152 -57
c21 0 34 12 38 34c1 8 10 16 18 16h27c21 0 36 -12 33 -33c-7 -71 -39 -107 -95 -107c-68 0 -110 57 -151 57c-22 0 -34 -12 -38 -34c-1 -8 -10 -16 -17 -16h-29c-21 0 -36 12 -33 33c7 71 39 107 95 107z" />
    <glyph glyph-name="notequal" unicode="&#x2260;" horiz-adv-x="498" 
d="M334 390c-14 0 -30 -12 -34 -25l-19 -61c-7 -23 9 -45 34 -45h113c19 0 35 -16 35 -35v-9c0 -19 -16 -35 -35 -35h-160c-14 0 -30 -12 -34 -24l-31 -101c-4 -12 -20 -24 -34 -24h-18c-23 0 -38 20 -31 42l20 61c7 24 -9 46 -34 46h-36c-19 0 -35 16 -35 35v9
c0 19 16 35 35 35h83c14 0 30 12 34 25l19 61c7 23 -9 45 -34 45h-102c-19 0 -35 16 -35 35v9c0 19 16 35 35 35h149c14 0 30 12 34 24l30 96c4 12 20 24 34 24h18c23 0 38 -20 31 -42l-18 -56c-8 -24 8 -46 33 -46h47c19 0 35 -16 35 -35v-9c0 -19 -16 -35 -35 -35h-94z
" />
    <glyph glyph-name="lessequal" unicode="&#x2264;" horiz-adv-x="498" 
d="M463 559c0 -12 -11 -27 -22 -32l-250 -103c-31 -12 -31 -52 0 -64l250 -103c11 -5 22 -20 22 -32v-20c0 -23 -20 -36 -40 -27l-367 155c-10 5 -21 20 -21 32v53c0 12 10 27 21 32l367 156c20 9 40 -4 40 -26v-21zM463 55c0 -19 -16 -35 -35 -35h-358c-19 0 -35 16 -35 35
v10c0 19 16 35 35 35h358c19 0 35 -16 35 -35v-10z" />
    <glyph glyph-name="greaterequal" unicode="&#x2265;" horiz-adv-x="498" 
d="M35 229c0 12 11 27 22 32l250 104c31 12 31 52 0 64l-250 103c-11 5 -22 20 -22 32v21c0 22 20 35 40 26l367 -156c11 -5 21 -20 21 -32v-53c0 -12 -11 -27 -21 -32l-367 -155c-21 -9 -40 4 -40 26v20zM463 55c0 -19 -16 -35 -35 -35h-358c-19 0 -35 16 -35 35v10
c0 19 16 35 35 35h358c19 0 35 -16 35 -35v-10z" />
    <glyph glyph-name="lozenge" unicode="&#x25ca;" horiz-adv-x="536" 
d="M488 350c7 -10 7 -30 0 -40l-192 -285c-15 -22 -43 -22 -58 0l-190 285c-7 10 -7 30 0 39l191 284c15 22 43 22 58 0zM155 350c-7 -10 -7 -30 -1 -40l84 -123c15 -22 43 -22 58 0l85 123c7 10 7 30 0 40l-84 123c-15 22 -43 22 -58 0z" />
    <glyph glyph-name="fi" unicode="&#xfb01;" horiz-adv-x="627" 
d="M485 615c-38 0 -67 29 -67 69c0 41 29 70 67 70s67 -29 67 -70c0 -40 -29 -69 -67 -69zM82 513c14 0 25 11 25 26v25c0 127 94 183 183 183c30 0 59 -5 84 -16c8 -4 15 -15 14 -24l-2 -67c-1 -8 -10 -13 -17 -10c-26 10 -53 16 -76 16c-41 0 -72 -19 -72 -71v-31
c0 -17 14 -31 31 -31h73c19 0 35 -16 35 -35v-16c0 -19 -16 -35 -35 -35h-69c-19 0 -35 -16 -35 -35v-357c0 -19 -16 -35 -35 -35h-44c-19 0 -35 16 -35 35v357c0 19 -16 35 -35 35s-35 16 -35 35v16c0 19 16 35 35 35h10zM428 497c0 19 16 35 35 35h44c19 0 35 -16 35 -35
v-462c0 -19 -16 -35 -35 -35h-44c-19 0 -35 16 -35 35v462z" />
    <glyph glyph-name="fl" unicode="&#xfb02;" horiz-adv-x="651" 
d="M75 513c17 0 32 15 32 33v32c0 103 76 175 184 174c30 -1 62 -7 87 -17c7 -3 12 -12 12 -21l-3 -71c0 -6 -7 -9 -12 -6c-19 12 -41 18 -62 18c-53 1 -92 -38 -92 -94v-24c0 -13 11 -24 24 -24h81c19 0 35 -16 35 -35l-1 -15c0 -20 -15 -35 -35 -35h-69
c-19 0 -35 -16 -35 -35v-358c0 -19 -16 -35 -35 -35h-44c-19 0 -35 16 -35 35v358c0 19 -16 35 -35 35s-35 16 -35 35l1 16c0 19 15 34 35 34h2zM526 742c19 0 35 -16 35 -35v-672c0 -19 -16 -35 -35 -35h-45c-19 0 -35 16 -35 35v672c0 19 16 35 35 35h45z" />
    <glyph glyph-name="eight.dnom" horiz-adv-x="407" 
d="M203 416c90 0 148 -41 148 -108c0 -31 -16 -59 -43 -77c-5 -4 -6 -15 0 -18c40 -20 64 -54 64 -97c0 -74 -65 -119 -168 -119c-104 0 -169 45 -169 118c0 43 25 78 67 98c7 3 5 15 0 19c-29 19 -45 47 -45 79c0 65 57 105 146 105zM204 360c-49 0 -77 -21 -77 -56
c0 -36 28 -56 77 -56c48 0 76 20 76 56c0 35 -28 56 -76 56zM203 186c-56 0 -89 -23 -89 -62c0 -42 33 -65 90 -65c56 0 89 23 89 64c0 40 -32 63 -90 63z" />
    <glyph glyph-name="eight.numr" horiz-adv-x="407" 
d="M203 703c90 0 148 -41 148 -108c0 -32 -16 -59 -43 -77c-5 -4 -6 -15 0 -18c40 -20 64 -55 64 -97c0 -74 -65 -120 -168 -120c-104 0 -169 46 -169 119c0 43 25 78 67 98c7 3 6 15 0 19c-29 18 -45 46 -45 79c0 65 57 105 146 105zM204 646c-49 0 -77 -20 -77 -56
c0 -35 28 -55 77 -55c48 0 76 20 76 55c0 36 -28 56 -76 56zM203 473c-56 0 -89 -23 -89 -63c0 -41 33 -64 90 -64c56 0 89 22 89 64c0 40 -32 63 -90 63z" />
    <glyph glyph-name="five.dnom" horiz-adv-x="377" 
d="M169 347c-19 0 -35 -16 -35 -35v-54c0 -4 4 -7 8 -6c15 3 34 5 45 5c95 0 156 -47 156 -120c0 -85 -64 -140 -163 -140c-44 0 -96 14 -136 36c-14 7 -16 21 -9 35l11 22c5 10 20 12 30 6c30 -23 64 -35 95 -35c52 0 83 26 83 71c0 39 -31 62 -83 62c-20 0 -68 -2 -99 -7
c-8 -1 -15 5 -15 13v178c0 19 16 35 35 35h200c18 0 33 -15 33 -33s-15 -33 -33 -33h-123z" />
    <glyph glyph-name="five.numr" horiz-adv-x="377" 
d="M169 633c-19 0 -35 -16 -35 -35v-53c0 -4 4 -7 8 -6c15 3 34 4 45 4c95 0 156 -46 156 -119c0 -85 -64 -140 -163 -140c-44 0 -96 14 -136 36c-14 7 -16 21 -9 35l11 22c5 10 20 12 30 5c30 -22 64 -34 95 -34c52 0 83 26 83 71c0 38 -31 61 -83 61c-20 0 -68 -2 -99 -6
c-8 -1 -15 5 -15 13v178c0 19 16 35 35 35h200c18 0 33 -15 33 -33c0 -19 -15 -34 -33 -34h-123z" />
    <glyph glyph-name="four.dnom" horiz-adv-x="394" 
d="M197 159c19 0 35 16 35 35v32c0 19 16 35 35 35h9c19 0 35 -16 35 -35v-36c0 -17 14 -31 31 -31c16 0 30 -14 30 -30v-1c0 -17 -14 -31 -30 -31c-17 0 -31 -14 -31 -30v-32c0 -19 -16 -35 -35 -35h-9c-19 0 -35 16 -35 35v27c0 19 -16 35 -35 35h-139
c-17 0 -30 13 -30 30v20c0 2 3 15 4 17l129 231c5 9 21 18 31 18h19c19 0 30 -18 21 -35l-92 -167c-13 -25 2 -52 31 -52h26z" />
    <glyph glyph-name="four.numr" horiz-adv-x="394" 
d="M197 446c19 0 35 16 35 35v31c0 19 16 35 35 35h9c19 0 35 -16 35 -35v-35c0 -17 14 -31 31 -31c16 0 30 -14 30 -30v-1c0 -17 -14 -31 -30 -31c-17 0 -31 -14 -31 -30v-32c0 -19 -16 -35 -35 -35h-9c-19 0 -35 16 -35 35v27c0 19 -16 35 -35 35h-139
c-17 0 -30 13 -30 30v20c0 2 3 15 4 17l129 231c5 9 21 18 31 18h19c19 0 30 -18 21 -35l-92 -167c-13 -25 2 -52 31 -52h26z" />
    <glyph glyph-name="nine.dnom" horiz-adv-x="403" 
d="M176 -3c-38 0 -80 9 -115 24c-11 5 -13 15 -7 26l16 28c3 7 15 9 21 6c24 -12 52 -18 80 -18c72 0 113 45 114 125c0 5 -9 5 -12 1c-20 -27 -55 -45 -103 -45c-83 0 -137 53 -137 133c0 86 61 139 154 139c111 0 178 -76 178 -203c0 -130 -74 -216 -189 -216zM188 207
c54 0 84 31 84 71c0 34 -24 70 -81 70c-49 0 -79 -26 -79 -72c0 -43 28 -69 76 -69z" />
    <glyph glyph-name="nine.numr" horiz-adv-x="403" 
d="M176 283c-38 0 -80 9 -115 24c-11 6 -13 16 -7 27l16 28c3 7 15 9 21 6c24 -12 52 -18 80 -18c72 0 113 44 114 125c0 5 -9 5 -12 1c-20 -27 -55 -45 -103 -45c-83 0 -137 52 -137 133c0 86 61 139 154 139c111 0 178 -76 178 -203c0 -131 -74 -217 -189 -217zM188 494
c54 0 84 31 84 71c0 34 -24 69 -81 69c-49 0 -79 -26 -79 -71c0 -44 28 -69 76 -69z" />
    <glyph glyph-name="one.dnom" horiz-adv-x="262" 
d="M134 0c-19 0 -35 16 -35 35v275c0 19 -16 35 -35 35h-14c-19 0 -34 15 -34 34s15 34 34 34h98c19 0 35 -16 35 -35v-343c0 -19 -16 -35 -35 -35h-14z" />
    <glyph glyph-name="one.numr" horiz-adv-x="262" 
d="M134 287c-19 0 -35 16 -35 35v274c0 19 -16 35 -35 35h-13c-20 0 -35 15 -35 35c0 19 15 34 35 34h97c19 0 35 -16 35 -35v-343c0 -19 -16 -35 -35 -35h-14z" />
    <glyph glyph-name="seven.dnom" horiz-adv-x="374" 
d="M193 20c-4 -10 -20 -20 -31 -20h-22c-23 0 -35 20 -26 40l122 257c12 25 -4 50 -31 50h-68c-17 0 -31 -14 -31 -30c0 -17 -14 -31 -30 -31h-9c-19 0 -35 16 -35 35v57c0 19 16 35 35 35h254c17 0 30 -13 30 -30v-22c0 -2 -3 -13 -3 -15z" />
    <glyph glyph-name="seven.numr" horiz-adv-x="374" 
d="M193 307c-4 -10 -20 -20 -31 -20h-22c-23 0 -35 20 -26 40l122 256c12 25 -4 50 -31 50h-68c-17 0 -31 -14 -31 -30c0 -17 -14 -31 -30 -31h-9c-19 0 -35 16 -35 35v58c0 19 16 35 35 35h254c17 0 30 -13 30 -30v-22c0 -2 -3 -13 -3 -15z" />
    <glyph glyph-name="six.dnom" horiz-adv-x="401" 
d="M228 416c37 0 80 -9 114 -24c11 -5 13 -15 7 -26l-14 -28c-4 -7 -16 -9 -23 -6c-24 12 -52 18 -80 18c-71 0 -113 -45 -113 -125c0 -5 8 -5 11 -1c20 27 56 44 104 44c83 0 136 -52 136 -132c0 -86 -61 -139 -154 -139c-110 0 -178 75 -178 202c0 131 74 217 190 217z
M215 206c-53 0 -84 -31 -84 -72c0 -33 25 -69 81 -69c49 0 80 26 80 72c0 44 -29 69 -77 69z" />
    <glyph glyph-name="six.numr" horiz-adv-x="401" 
d="M228 703c37 0 80 -9 114 -24c11 -5 13 -15 8 -26l-16 -29c-3 -7 -15 -9 -22 -6c-24 12 -52 18 -80 18c-71 0 -113 -45 -113 -125c0 -5 8 -5 11 -1c20 28 56 45 104 45c83 0 136 -52 136 -133c0 -85 -61 -139 -154 -139c-110 0 -178 76 -178 203c0 131 74 217 190 217z
M215 492c-53 0 -84 -31 -84 -71c0 -34 25 -69 81 -69c49 0 80 26 80 72c0 43 -29 68 -77 68z" />
    <glyph glyph-name="three.dnom" horiz-adv-x="355" 
d="M189 251c-4 -4 -2 -9 3 -9l11 -2c69 -7 117 -47 117 -112c0 -77 -62 -131 -159 -131c-47 0 -96 13 -132 34c-13 7 -14 20 -7 32l14 26c5 9 19 11 27 4c27 -21 59 -32 92 -32c52 0 83 26 83 66c0 41 -31 62 -84 62h-39c-13 0 -23 10 -23 23v9c0 5 6 20 10 24l46 47
c22 22 8 57 -24 57h-61c-18 0 -32 14 -32 32c0 17 14 31 32 31h213c13 0 24 -11 24 -24v-11c0 -5 -6 -20 -10 -24z" />
    <glyph glyph-name="three.numr" horiz-adv-x="355" 
d="M189 537c-4 -3 -2 -9 3 -9l11 -1c69 -7 117 -47 117 -112c0 -77 -62 -132 -159 -132c-47 0 -96 14 -132 34c-12 7 -14 20 -7 32l14 27c5 9 19 10 27 4c27 -21 59 -33 92 -33c52 0 83 26 83 67s-31 62 -84 62h-39c-13 0 -23 10 -23 23v9c0 5 6 20 10 24l46 47
c22 22 8 57 -24 57h-62c-17 0 -31 14 -31 31s14 31 31 31h214c13 0 24 -11 24 -24v-11c0 -5 -6 -20 -10 -24z" />
    <glyph glyph-name="two.dnom" horiz-adv-x="383" 
d="M191 416c82 0 139 -41 139 -105c0 -43 -32 -90 -80 -136l-54 -54c-21 -21 -7 -54 22 -54h97c18 0 33 -15 33 -33c0 -19 -15 -34 -33 -34h-249c-16 0 -29 13 -29 29v14c0 5 6 20 10 24l147 150c29 29 49 61 49 83c0 29 -24 47 -65 47c-30 0 -65 -14 -97 -36
c-10 -7 -26 -5 -32 6l-7 13c-8 16 -6 32 9 42c43 28 91 44 140 44z" />
    <glyph glyph-name="two.numr" horiz-adv-x="383" 
d="M191 703c82 0 139 -41 139 -105c0 -43 -32 -90 -80 -136l-54 -54c-21 -22 -7 -55 23 -55h96c18 0 33 -15 33 -33s-15 -33 -33 -33h-250c-15 0 -28 13 -28 28v14c0 5 6 20 10 24l147 151c29 28 49 60 49 82c0 30 -24 47 -65 47c-30 0 -65 -14 -97 -36c-10 -7 -26 -5 -31 6
l-8 14c-8 16 -3 35 12 44c43 26 89 42 137 42z" />
    <glyph glyph-name="zero.dnom" horiz-adv-x="447" 
d="M223 415c115 0 185 -78 185 -208c0 -131 -70 -209 -185 -209s-185 78 -185 209c0 130 70 208 185 208zM223 348c-69 0 -108 -52 -108 -141c0 -90 39 -141 108 -141s109 51 109 141c0 89 -40 141 -109 141z" />
    <glyph glyph-name="zero.numr" horiz-adv-x="447" 
d="M223 702c115 0 185 -78 185 -208c0 -131 -70 -210 -185 -210s-185 79 -185 210c0 130 70 208 185 208zM223 634c-69 0 -108 -51 -108 -140c0 -90 39 -142 108 -142s109 52 109 142c0 89 -40 140 -109 140z" />
    </font>
</defs>
</svg>
